<svg width="683" height="188" viewBox="0 0 683 188" fill="none" xmlns="http://www.w3.org/2000/svg">
    <rect x="120.333" y="34" width="120" height="120.333" rx="60" transform="rotate(90 120.333 34)" fill="#8F389D" />
    <path d="M99.25 94L10 94L28 94M28 94C52.8528 94 73 73.8528 73 49M28 94C52.8528 94 73 114.147 73 139" stroke="white"
        stroke-width="15" />
    <path
        d="M230.777 110.883C230.739 114.596 230.195 117.896 229.145 120.784C228.132 123.635 226.707 126.11 224.869 128.211C223.031 130.274 220.875 132.036 218.399 133.499C215.924 134.924 213.261 136.087 210.41 136.987C207.56 137.85 204.559 138.394 201.409 138.619C198.296 138.881 195.164 139.013 192.013 139.013C186.312 139.013 181.305 138.788 176.992 138.338C174.517 138.038 170.822 137.212 165.909 135.862C161.896 134.774 158.745 133.63 156.457 132.43V110.208H173.391C175.342 112.908 177.536 114.896 179.974 116.171C182.449 117.446 184.981 118.084 187.569 118.084C188.244 118.084 188.994 118.028 189.819 117.915C190.644 117.803 191.413 117.484 192.126 116.959C192.876 116.434 193.495 115.609 193.983 114.483C194.508 113.358 194.77 111.783 194.77 109.758C191.545 109.457 188.338 109.026 185.15 108.464C181.999 107.901 178.98 107.132 176.092 106.157C173.204 105.182 170.503 103.963 167.99 102.5C165.515 101 163.358 99.1994 161.521 97.0991C159.72 94.9987 158.295 92.542 157.245 89.729C156.232 86.8785 155.726 83.5967 155.726 79.8835C155.726 75.9078 156.251 72.4197 157.301 69.4192C158.351 66.3812 159.777 63.7745 161.577 61.5991C163.415 59.3862 165.553 57.5671 167.99 56.1419C170.466 54.6791 173.11 53.5164 175.923 52.6538C178.774 51.7911 181.718 51.2473 184.756 51.0222C187.831 50.7972 190.888 50.6847 193.926 50.6847C198.352 50.6847 202.328 50.8534 205.853 51.191C209.417 51.4911 212.623 51.9786 215.474 52.6538C218.324 53.3289 220.837 54.0978 223.013 54.9604C225.226 55.7856 227.195 56.592 228.92 57.3796V79.3209H211.986C210.073 76.6205 207.935 74.6326 205.572 73.3574C203.247 72.0822 200.846 71.4446 198.371 71.4446C197.696 71.4446 196.927 71.5383 196.064 71.7259C195.202 71.8759 194.395 72.2697 193.645 72.9073C192.895 73.5074 192.257 74.4076 191.732 75.6078C191.207 76.7705 190.945 78.3645 190.945 80.3899C197.508 80.6149 203.284 81.3275 208.273 82.5278C213.261 83.728 217.405 85.547 220.706 87.985C224.044 90.3854 226.557 93.4797 228.245 97.2678C229.933 101.019 230.777 105.557 230.777 110.883ZM288.688 93.611L304.272 90.2916V106.326L288.688 102.95V115.384C290.939 115.384 293.114 115.234 295.214 114.933C297.315 114.596 299.265 114.146 301.065 113.583C302.866 113.021 304.516 112.364 306.016 111.614C307.516 110.864 308.81 110.058 309.898 109.195H317.606V138H248.069V115.552L254.82 114.258V82.359L248.069 81.065V58.7861H317.606V87.5911H309.898C308.81 86.766 307.516 85.9784 306.016 85.2282C304.516 84.4781 302.866 83.8217 301.065 83.2591C299.265 82.6965 297.315 82.2465 295.214 81.9089C293.114 81.5713 290.939 81.4026 288.688 81.4026V93.611ZM352.957 79.7148C351.007 79.7148 349.282 79.9773 347.781 80.5024C346.281 81.0275 345.025 81.6839 344.012 82.4715C342.999 83.2591 342.23 84.1218 341.705 85.0595C341.18 85.9596 340.918 86.8035 340.918 87.5911H331.522V58.7861H408.261V87.5911H398.865C398.865 86.8035 398.603 85.9596 398.078 85.0595C397.553 84.1218 396.784 83.2591 395.771 82.4715C394.758 81.6839 393.502 81.0275 392.002 80.5024C390.501 79.9773 388.776 79.7148 386.826 79.7148V114.258L393.577 115.552V138H346.206V115.552L352.957 114.258V79.7148ZM464.597 116.396C466.172 116.396 467.673 116.19 469.098 115.777C470.523 115.327 471.836 114.765 473.036 114.09C474.274 113.377 475.38 112.608 476.355 111.783C477.368 110.92 478.249 110.058 479 109.195H488.395V138H424.034V115.552L430.785 114.258V82.2465L424.034 80.9525V58.7861H471.405V80.9525L464.597 82.2465V116.396ZM544.675 93.611L560.259 90.2916V106.326L544.675 102.95V115.384C546.926 115.384 549.101 115.234 551.201 114.933C553.302 114.596 555.252 114.146 557.052 113.583C558.853 113.021 560.503 112.364 562.003 111.614C563.503 110.864 564.797 110.058 565.885 109.195H573.593V138H504.055V115.552L510.807 114.258V82.359L504.055 81.065V58.7861H573.593V87.5911H565.885C564.797 86.766 563.503 85.9784 562.003 85.2282C560.503 84.4781 558.853 83.8217 557.052 83.2591C555.252 82.6965 553.302 82.2465 551.201 81.9089C549.101 81.5713 546.926 81.4026 544.675 81.4026V93.611ZM678.65 138H645.007C643.957 136.05 642.869 133.987 641.744 131.811C640.618 129.599 639.531 127.292 638.481 124.891C637.43 122.491 636.436 120.016 635.499 117.465C634.599 114.915 633.83 112.289 633.192 109.589H631.336V138H590.716V115.552L597.467 114.258V82.2465L590.716 80.9525V58.7861H636.793C642.906 58.7861 648.176 59.0486 652.602 59.5737C657.065 60.0988 660.835 60.8677 663.91 61.8804C667.023 62.8931 669.536 64.1308 671.449 65.5935C673.362 67.0188 674.843 68.6503 675.893 70.4881C676.981 72.2885 677.712 74.2763 678.088 76.4517C678.463 78.6271 678.65 80.9337 678.65 83.3717C678.65 85.8471 678.406 88.0975 677.919 90.1228C677.469 92.1482 676.644 94.0048 675.443 95.6926C674.243 97.3804 672.593 98.9369 670.492 100.362C668.43 101.75 665.785 103.063 662.56 104.3C663.235 105.651 664.229 107.263 665.542 109.139C666.892 110.977 668.355 112.871 669.93 114.821C671.505 116.734 673.062 118.59 674.599 120.391C676.175 122.191 677.525 123.729 678.65 125.004V138ZM631.336 94.3423C633.398 94.3423 635.255 94.2486 636.905 94.061C638.593 93.836 640.018 93.3859 641.181 92.7108C642.381 91.9982 643.3 90.9667 643.938 89.6165C644.575 88.2663 644.894 86.4472 644.894 84.1593C644.894 81.9089 644.575 80.1086 643.938 78.7583C643.3 77.4081 642.381 76.3767 641.181 75.6641C640.018 74.9139 638.593 74.4263 636.905 74.2013C635.255 73.9763 633.398 73.8637 631.336 73.8637V94.3423Z"
        fill="black" />
</svg>