<svg width="1100" height="208" viewBox="0 0 1100 208" fill="none" xmlns="http://www.w3.org/2000/svg">
<path d="M123.079 158.461V86.3186C123.079 65.1954 106.028 48.0718 84.9946 48.0718C63.9611 48.0718 46.9102 65.1954 46.9102 86.3186V104.405" stroke="#7D5EFF" stroke-width="17.6623" stroke-linecap="round" stroke-linejoin="round"/>
<path d="M9.37891 158.495V85.0865C9.37891 75.3542 11.2477 66.0514 14.6428 57.5063" stroke="#058CFF" stroke-width="17.6623" stroke-linecap="round" stroke-linejoin="round"/>
<path d="M85.5508 86.2256V87.3295" stroke="#2F1B72" stroke-width="17.6623" stroke-linecap="round" stroke-linejoin="round"/>
<path d="M85.5508 116.583V158.53" stroke="#2F1B72" stroke-width="17.6623" stroke-linecap="round" stroke-linejoin="round"/>
<path d="M160.617 121.239V158.495" stroke="#A952FF" stroke-width="17.6623" stroke-linecap="round" stroke-linejoin="round"/>
<path d="M46.9102 158.461V137.521" stroke="#7D5EFF" stroke-width="17.6623" stroke-linecap="round" stroke-linejoin="round"/>
<path d="M160.616 83.9826C160.616 42.8303 126.707 9.46973 85.555 9.46973C65.5573 9.46973 47.2452 17.2325 33.5898 29.909" stroke="#058CFF" stroke-width="17.6623" stroke-linecap="round" stroke-linejoin="round"/>
<path d="M237.594 66.426V167.896H220.95V66.426H237.594ZM246.598 127.308C246.598 119.229 248.253 112.075 251.562 105.846C254.969 99.6167 259.543 94.7987 265.286 91.392C271.126 87.888 277.599 86.136 284.704 86.136C289.96 86.136 295.119 87.304 300.18 89.64C305.339 91.8787 309.427 94.896 312.444 98.692V59.856H329.234V167.896H312.444V155.778C309.719 159.671 305.923 162.883 301.056 165.414C296.287 167.945 290.787 169.21 284.558 169.21C277.55 169.21 271.126 167.458 265.286 163.954C259.543 160.353 254.969 155.389 251.562 149.062C248.253 142.638 246.598 135.387 246.598 127.308ZM312.444 127.6C312.444 122.052 311.276 117.234 308.94 113.146C306.701 109.058 303.733 105.943 300.034 103.802C296.335 101.661 292.345 100.59 288.062 100.59C283.779 100.59 279.789 101.661 276.09 103.802C272.391 105.846 269.374 108.912 267.038 113C264.799 116.991 263.68 121.76 263.68 127.308C263.68 132.856 264.799 137.723 267.038 141.908C269.374 146.093 272.391 149.305 276.09 151.544C279.886 153.685 283.877 154.756 288.062 154.756C292.345 154.756 296.335 153.685 300.034 151.544C303.733 149.403 306.701 146.288 308.94 142.2C311.276 138.015 312.444 133.148 312.444 127.6ZM417.525 125.702C417.525 128.719 417.331 131.445 416.941 133.878H355.475C355.962 140.302 358.347 145.461 362.629 149.354C366.912 153.247 372.168 155.194 378.397 155.194C387.352 155.194 393.679 151.447 397.377 143.952H415.335C412.902 151.349 408.473 157.433 402.049 162.202C395.723 166.874 387.839 169.21 378.397 169.21C370.708 169.21 363.797 167.507 357.665 164.1C351.631 160.596 346.861 155.729 343.357 149.5C339.951 143.173 338.247 135.873 338.247 127.6C338.247 119.327 339.902 112.075 343.211 105.846C346.618 99.5193 351.339 94.6527 357.373 91.246C363.505 87.8393 370.513 86.136 378.397 86.136C385.989 86.136 392.754 87.7907 398.691 91.1C404.629 94.4093 409.252 99.0813 412.561 105.116C415.871 111.053 417.525 117.915 417.525 125.702ZM400.151 120.446C400.054 114.314 397.864 109.399 393.581 105.7C389.299 102.001 383.994 100.152 377.667 100.152C371.925 100.152 367.009 102.001 362.921 105.7C358.833 109.301 356.4 114.217 355.621 120.446H400.151ZM467.193 86.136C473.519 86.136 479.165 87.45 484.129 90.078C489.19 92.706 493.132 96.5993 495.955 101.758C498.777 106.917 500.189 113.146 500.189 120.446V167.896H483.691V122.928C483.691 115.725 481.89 110.226 478.289 106.43C474.687 102.537 469.772 100.59 463.543 100.59C457.313 100.59 452.349 102.537 448.651 106.43C445.049 110.226 443.249 115.725 443.249 122.928V167.896H426.605V87.45H443.249V96.648C445.974 93.3387 449.429 90.7593 453.615 88.91C457.897 87.0607 462.423 86.136 467.193 86.136ZM533.537 101.028V145.558C533.537 148.575 534.218 150.765 535.581 152.128C537.041 153.393 539.474 154.026 542.881 154.026H553.101V167.896H539.961C532.466 167.896 526.724 166.144 522.733 162.64C518.742 159.136 516.747 153.442 516.747 145.558V101.028H507.257V87.45H516.747V67.448H533.537V87.45H553.101V101.028H533.537ZM567.857 168.918C564.84 168.918 562.309 167.896 560.265 165.852C558.221 163.808 557.199 161.277 557.199 158.26C557.199 155.243 558.221 152.712 560.265 150.668C562.309 148.624 564.84 147.602 567.857 147.602C570.777 147.602 573.259 148.624 575.303 150.668C577.347 152.712 578.369 155.243 578.369 158.26C578.369 161.277 577.347 163.808 575.303 165.852C573.259 167.896 570.777 168.918 567.857 168.918ZM650.232 147.164H607.746L600.446 167.896H583.072L619.426 66.28H638.698L675.052 167.896H657.532L650.232 147.164ZM645.56 133.586L629.062 86.428L612.418 133.586H645.56ZM715.971 86.136C722.2 86.136 727.7 87.4013 732.469 89.932C737.336 92.3653 741.132 95.4313 743.857 99.13V87.45H760.647V169.21C760.647 176.607 759.09 183.177 755.975 188.92C752.86 194.76 748.334 199.335 742.397 202.644C736.557 205.953 729.549 207.608 721.373 207.608C710.472 207.608 701.42 205.029 694.217 199.87C687.014 194.809 682.926 187.898 681.953 179.138H698.451C699.716 183.323 702.393 186.681 706.481 189.212C710.666 191.84 715.63 193.154 721.373 193.154C728.089 193.154 733.491 191.11 737.579 187.022C741.764 182.934 743.857 176.997 743.857 169.21V155.778C741.034 159.574 737.19 162.786 732.323 165.414C727.554 167.945 722.103 169.21 715.971 169.21C708.963 169.21 702.539 167.458 696.699 163.954C690.956 160.353 686.382 155.389 682.975 149.062C679.666 142.638 678.011 135.387 678.011 127.308C678.011 119.229 679.666 112.075 682.975 105.846C686.382 99.6167 690.956 94.7987 696.699 91.392C702.539 87.888 708.963 86.136 715.971 86.136ZM743.857 127.6C743.857 122.052 742.689 117.234 740.353 113.146C738.114 109.058 735.146 105.943 731.447 103.802C727.748 101.661 723.758 100.59 719.475 100.59C715.192 100.59 711.202 101.661 707.503 103.802C703.804 105.846 700.787 108.912 698.451 113C696.212 116.991 695.093 121.76 695.093 127.308C695.093 132.856 696.212 137.723 698.451 141.908C700.787 146.093 703.804 149.305 707.503 151.544C711.299 153.685 715.29 154.756 719.475 154.756C723.758 154.756 727.748 153.685 731.447 151.544C735.146 149.403 738.114 146.288 740.353 142.2C742.689 138.015 743.857 133.148 743.857 127.6ZM848.938 125.702C848.938 128.719 848.744 131.445 848.354 133.878H786.888C787.375 140.302 789.76 145.461 794.042 149.354C798.325 153.247 803.581 155.194 809.81 155.194C818.765 155.194 825.092 151.447 828.79 143.952H846.748C844.315 151.349 839.886 157.433 833.462 162.202C827.136 166.874 819.252 169.21 809.81 169.21C802.121 169.21 795.21 167.507 789.078 164.1C783.044 160.596 778.274 155.729 774.77 149.5C771.364 143.173 769.66 135.873 769.66 127.6C769.66 119.327 771.315 112.075 774.624 105.846C778.031 99.5193 782.752 94.6527 788.786 91.246C794.918 87.8393 801.926 86.136 809.81 86.136C817.402 86.136 824.167 87.7907 830.104 91.1C836.042 94.4093 840.665 99.0813 843.974 105.116C847.284 111.053 848.938 117.915 848.938 125.702ZM831.564 120.446C831.467 114.314 829.277 109.399 824.994 105.7C820.712 102.001 815.407 100.152 809.08 100.152C803.338 100.152 798.422 102.001 794.334 105.7C790.246 109.301 787.813 114.217 787.034 120.446H831.564ZM898.606 86.136C904.932 86.136 910.578 87.45 915.542 90.078C920.603 92.706 924.545 96.5993 927.368 101.758C930.19 106.917 931.602 113.146 931.602 120.446V167.896H915.104V122.928C915.104 115.725 913.303 110.226 909.702 106.43C906.1 102.537 901.185 100.59 894.956 100.59C888.726 100.59 883.762 102.537 880.064 106.43C876.462 110.226 874.662 115.725 874.662 122.928V167.896H858.018V87.45H874.662V96.648C877.387 93.3387 880.842 90.7593 885.028 88.91C889.31 87.0607 893.836 86.136 898.606 86.136ZM939.984 127.6C939.984 119.327 941.639 112.075 944.948 105.846C948.355 99.5193 953.027 94.6527 958.964 91.246C964.901 87.8393 971.715 86.136 979.404 86.136C989.137 86.136 997.167 88.472 1003.49 93.144C1009.92 97.7187 1014.25 104.289 1016.49 112.854H998.53C997.07 108.863 994.734 105.749 991.522 103.51C988.31 101.271 984.271 100.152 979.404 100.152C972.591 100.152 967.14 102.585 963.052 107.452C959.061 112.221 957.066 118.937 957.066 127.6C957.066 136.263 959.061 143.027 963.052 147.894C967.14 152.761 972.591 155.194 979.404 155.194C989.04 155.194 995.415 150.96 998.53 142.492H1016.49C1014.15 150.668 1009.77 157.189 1003.35 162.056C996.924 166.825 988.943 169.21 979.404 169.21C971.715 169.21 964.901 167.507 958.964 164.1C953.027 160.596 948.355 155.729 944.948 149.5C941.639 143.173 939.984 135.873 939.984 127.6ZM1098.19 87.45L1048.84 205.71H1031.62L1047.97 166.582L1016.29 87.45H1034.83L1057.46 148.77L1080.96 87.45H1098.19Z" fill="#2F1B72"/>
</svg>
