<svg width="644" height="145" viewBox="0 0 644 145" fill="none" xmlns="http://www.w3.org/2000/svg">
<g clip-path="url(#clip0_1_1756)">
<rect opacity="0.6" x="0.5" y="0.65332" width="62.4992" height="143.762" rx="31.2496" fill="#4E26DE"/>
<path d="M63.2502 12.6542L56.4981 19.3576L2.92728 72.5414L56.4981 125.725L63.2502 132.429C70.3651 139.492 79.9911 143.453 90.0356 143.453C110.962 143.453 127.926 126.612 127.926 105.837C127.926 95.8647 123.936 86.3082 116.821 79.2447L110.069 72.5414L116.821 65.838C123.936 58.7745 127.926 49.2181 127.926 39.2461C127.926 18.4712 110.962 1.62964 90.0356 1.62964C79.9911 1.62964 70.3651 5.59072 63.2502 12.6542Z" fill="#4E26DE"/>
<path d="M286.627 144.416C271.839 144.416 259.852 132.428 259.852 117.641L259.852 27.2749C259.852 12.4875 271.839 0.499938 286.627 0.499938L308.381 0.499937C348.122 0.499935 380.339 32.7165 380.339 72.4577C380.339 112.199 348.122 144.416 308.381 144.416L286.627 144.416Z" fill="#4E26DE"/>
<path d="M132.67 27.275C132.67 12.4876 144.658 0.5 159.445 0.5H226.383C241.17 0.5 253.158 12.4876 253.158 27.275V84.1718C253.158 117.444 226.186 144.416 192.914 144.416C159.642 144.416 132.67 117.444 132.67 84.1719V27.275Z" fill="#4E26DE"/>
<circle cx="456.991" cy="72.4578" r="71.9578" fill="#4E26DE"/>
<path d="M556.449 106.399C570.199 120.149 613.949 122.444 613.949 95.3993C613.949 75.1454 561.764 70.0464 561.764 45.424C561.764 24.0735 602.699 24.8993 613.949 37.8785" stroke="#4E26DE" stroke-width="56.5" stroke-linecap="round"/>
</g>
<defs>
<clipPath id="clip0_1_1756">
<rect width="643.5" height="144" fill="white" transform="translate(0.5 0.5)"/>
</clipPath>
</defs>
</svg>
