<svg width="90" height="20" viewBox="0 0 90 20" fill="none" xmlns="http://www.w3.org/2000/svg">
<g clip-path="url(#clip0_1_1798)">
<rect opacity="0.6" x="0.00140381" y="0.0209961" width="8.68041" height="19.967" rx="4.34021" fill="#4E26DE"/>
<path d="M8.71648 1.68792L7.77868 2.61895L0.338329 10.0056L7.77868 17.3922L8.71648 18.3232C9.70465 19.3043 11.0416 19.8544 12.4367 19.8544C15.343 19.8544 17.6992 17.5153 17.6992 14.6299C17.6992 13.2449 17.145 11.9176 16.1568 10.9366L15.219 10.0056L16.1568 9.07456C17.145 8.09352 17.6992 6.76623 17.6992 5.38124C17.6992 2.49584 15.343 0.156738 12.4367 0.156738C11.0416 0.156738 9.70465 0.706888 8.71648 1.68792Z" fill="#4E26DE"/>
<path d="M39.7392 19.9883C37.6854 19.9883 36.0205 18.3233 36.0205 16.2695L36.0205 3.71876C36.0205 1.66496 37.6854 2.85375e-05 39.7392 2.84477e-05L42.7607 2.83156e-05C48.2803 2.80743e-05 52.7548 4.47455 52.7548 9.99415C52.7548 15.5138 48.2803 19.9883 42.7607 19.9883L39.7392 19.9883Z" fill="#4E26DE"/>
<path d="M18.3574 3.71873C18.3574 1.66493 20.0224 0 22.0762 0H31.373C33.4268 0 35.0917 1.66494 35.0917 3.71874V11.6211C35.0917 16.2422 31.3456 19.9883 26.7246 19.9883C22.1035 19.9883 18.3574 16.2422 18.3574 11.6211V3.71873Z" fill="#4E26DE"/>
<ellipse cx="63.4023" cy="9.99413" rx="9.9941" ry="9.99413" fill="#4E26DE"/>
<path d="M77.2148 14.7077C79.1246 16.6175 85.2009 16.9362 85.2009 13.18C85.2009 10.3669 77.9531 9.65874 77.9531 6.23896C77.9531 3.27361 83.6384 3.38831 85.2009 5.19097" stroke="#4E26DE" stroke-width="7.8472" stroke-linecap="round"/>
</g>
<defs>
<clipPath id="clip0_1_1798">
<rect width="89.3746" height="20" fill="white"/>
</clipPath>
</defs>
</svg>
