<svg width="44" height="44" viewBox="0 0 44 44" fill="none" xmlns="http://www.w3.org/2000/svg">
    <rect width="43.9721" height="43.9956" rx="7.99707" fill="#2EB364" />
    <g clip-path="url(#clip0_113_1025)">
        <mask id="mask0_113_1025" style="mask-type:alpha" maskUnits="userSpaceOnUse" x="5" y="17" width="27"
            height="21">
            <path fill-rule="evenodd" clip-rule="evenodd"
                d="M11.494 25.9978H6.99768C6.4456 25.9978 5.99805 25.5503 5.99805 24.9982V18.9974C5.99805 18.4454 6.4456 17.9978 6.99768 17.9978H11.494C22.1967 17.9978 30.9344 26.417 31.4548 36.9983C31.482 37.5497 31.0318 37.9978 30.4797 37.9978H24.4849C23.9328 37.9978 23.4896 37.5487 23.4442 36.9985C22.9368 30.8386 17.7803 25.9978 11.494 25.9978Z"
                fill="#237D47" />
        </mask>
        <g mask="url(#mask0_113_1025)">
            <path fill-rule="evenodd" clip-rule="evenodd"
                d="M11.494 25.9978H6.99768C6.4456 25.9978 5.99805 25.5503 5.99805 24.9982V18.9974C5.99805 18.4454 6.4456 17.9978 6.99768 17.9978H11.494C22.1967 17.9978 30.9344 26.417 31.4548 36.9983C31.482 37.5497 31.0318 37.9978 30.4797 37.9978H24.4849C23.9328 37.9978 23.4896 37.5487 23.4442 36.9985C22.9368 30.8386 17.7803 25.9978 11.494 25.9978Z"
                fill="#AFD8C0" />
            <path fill-rule="evenodd" clip-rule="evenodd"
                d="M37.9746 26.9982C37.9746 27.5503 37.527 27.9978 36.975 27.9978H6.99768C6.4456 27.9978 5.99805 27.5503 5.99805 26.9982V20.9974C5.99805 20.4454 6.4456 19.9978 6.99768 19.9978H36.975C37.527 19.9978 37.9746 20.4454 37.9746 20.9974V26.9982Z"
                fill="black" fill-opacity="0.05" />
        </g>
        <mask id="mask1_113_1025" style="mask-type:alpha" maskUnits="userSpaceOnUse" x="5" y="17" width="33" height="9">
            <path fill-rule="evenodd" clip-rule="evenodd"
                d="M37.9746 24.9982C37.9746 25.5503 37.527 25.9978 36.975 25.9978H6.99768C6.4456 25.9978 5.99805 25.5503 5.99805 24.9982V18.9974C5.99805 18.4454 6.4456 17.9978 6.99768 17.9978H36.975C37.527 17.9978 37.9746 18.4454 37.9746 18.9974V24.9982Z"
                fill="#278B50" />
        </mask>
        <g mask="url(#mask1_113_1025)">
            <path fill-rule="evenodd" clip-rule="evenodd"
                d="M37.9746 24.9982C37.9746 25.5503 37.527 25.9978 36.975 25.9978H6.99768C6.4456 25.9978 5.99805 25.5503 5.99805 24.9982V18.9974C5.99805 18.4454 6.4456 17.9978 6.99768 17.9978H36.975C37.527 17.9978 37.9746 18.4454 37.9746 18.9974V24.9982Z"
                fill="#D7EBDF" />
            <path fill-rule="evenodd" clip-rule="evenodd"
                d="M13.4925 19.9978H8.99622C8.44413 19.9978 7.99658 20.4453 7.99658 20.9974V26.9982C7.99658 27.5503 8.44413 27.9978 8.99622 27.9978H13.4925C24.1952 27.9978 32.933 19.5786 33.4534 8.99728C33.4805 8.44586 33.0303 7.99778 32.4783 7.99778H26.4834C25.9313 7.99778 25.4881 8.4469 25.4428 8.99712C24.9353 15.157 19.7788 19.9978 13.4925 19.9978Z"
                fill="black" fill-opacity="0.05" />
        </g>
        <path fill-rule="evenodd" clip-rule="evenodd"
            d="M11.494 17.9978H6.99768C6.4456 17.9978 5.99805 18.4453 5.99805 18.9974V24.9982C5.99805 25.5503 6.4456 25.9978 6.99768 25.9978H11.494C22.1967 25.9978 30.9344 17.5786 31.4548 6.99728C31.482 6.44586 31.0318 5.99778 30.4797 5.99778H24.4849C23.9328 5.99778 23.4896 6.4469 23.4442 6.99712C22.9368 13.157 17.7803 17.9978 11.494 17.9978Z"
            fill="white" />
    </g>
    <defs>
        <clipPath id="clip0_113_1025">
            <rect width="31.9765" height="32" fill="white" transform="translate(5.99805 5.9978)" />
        </clipPath>
    </defs>
</svg>