<svg width="417" height="82" viewBox="0 0 417 82" fill="none" xmlns="http://www.w3.org/2000/svg">
<mask id="mask0_103_1033" style="mask-type:alpha" maskUnits="userSpaceOnUse" x="0" y="29" width="64" height="51">
<path fill-rule="evenodd" clip-rule="evenodd" d="M61.2784 80C62.7505 80 63.9511 78.8053 63.875 77.3351C62.4905 50.5914 40.3868 29.3332 13.3224 29.3332H2.66646C1.19435 29.3332 0.000976562 30.5266 0.000976562 31.9987V48.0011C0.000976562 49.4732 1.19435 50.6666 2.66645 50.6666H13.3224C28.6113 50.6666 41.1658 62.3843 42.5104 77.3365C42.6422 78.8027 43.8229 80 45.295 80H61.2784Z" fill="#237D47"/>
</mask>
<g mask="url(#mask0_103_1033)">
<path fill-rule="evenodd" clip-rule="evenodd" d="M61.2784 80C62.7505 80 63.9511 78.8053 63.875 77.3351C62.4905 50.5914 40.3868 29.3332 13.3224 29.3332H2.66646C1.19435 29.3332 0.000976562 30.5266 0.000976562 31.9987V48.0011C0.000976562 49.4732 1.19435 50.6666 2.66645 50.6666H13.3224C28.6113 50.6666 41.1658 62.3843 42.5104 77.3365C42.6422 78.8027 43.8229 80 45.295 80H61.2784Z" fill="#237D47"/>
<path fill-rule="evenodd" clip-rule="evenodd" d="M79.2627 53.3344C79.2627 54.8065 78.0693 55.9999 76.5972 55.9999H2.66568C1.19358 55.9999 0.000204027 54.8065 0.000204027 53.3344V37.332C0.000204027 35.8599 1.19359 34.6665 2.66569 34.6665L76.5972 34.6665C78.0693 34.6665 79.2627 35.8599 79.2627 37.332V53.3344Z" fill="black" fill-opacity="0.05"/>
</g>
<mask id="mask1_103_1033" style="mask-type:alpha" maskUnits="userSpaceOnUse" x="0" y="29" width="80" height="22">
<path fill-rule="evenodd" clip-rule="evenodd" d="M79.2627 48.0016C79.2627 49.4737 78.0693 50.6671 76.5972 50.6671H2.66568C1.19358 50.6671 0.000204027 49.4737 0.000204027 48.0016V31.9992C0.000204027 30.5271 1.19359 29.3337 2.66569 29.3337L76.5972 29.3337C78.0693 29.3337 79.2627 30.5271 79.2627 31.9992V48.0016Z" fill="#278B50"/>
</mask>
<g mask="url(#mask1_103_1033)">
<path fill-rule="evenodd" clip-rule="evenodd" d="M79.2627 48.0016C79.2627 49.4737 78.0693 50.6671 76.5972 50.6671H2.66568C1.19358 50.6671 0.000204027 49.4737 0.000204027 48.0016V31.9992C0.000204027 30.5271 1.19359 29.3337 2.66569 29.3337L76.5972 29.3337C78.0693 29.3337 79.2627 30.5271 79.2627 31.9992V48.0016Z" fill="#278B50"/>
<path fill-rule="evenodd" clip-rule="evenodd" d="M66.605 5.3335C68.0771 5.3335 69.2778 6.52823 69.2017 7.99836C67.8171 34.7421 45.7134 56.0003 18.6491 56.0003H7.99312C6.52101 56.0003 5.32764 54.8069 5.32764 53.3348V37.3324C5.32764 35.8603 6.52101 34.6669 7.99311 34.6669H18.6491C33.9379 34.6669 46.4924 22.9492 47.837 7.997C47.9689 6.53082 49.1496 5.3335 50.6217 5.3335H66.605Z" fill="black" fill-opacity="0.05"/>
</g>
<path fill-rule="evenodd" clip-rule="evenodd" d="M61.2779 0C62.75 0 63.9506 1.19473 63.8745 2.66486C62.49 29.4086 40.3863 50.6668 13.3219 50.6668H2.66597C1.19386 50.6668 0.000488281 49.4734 0.000488281 48.0013V31.9989C0.000488281 30.5268 1.19386 29.3334 2.66596 29.3334H13.3219C28.6108 29.3334 41.1653 17.6157 42.5099 2.66351C42.6417 1.19732 43.8224 0 45.2945 0H61.2779Z" fill="#389D61"/>
<path d="M109.543 80V0.072515H125.528V43.4617H132.379L147.794 21.7671H165.492L146.652 48.5999L167.205 80H148.936L134.092 57.1636H125.528V80H109.543ZM167.169 57.1636V21.7671H183.154V54.8799C183.154 59.1427 184.182 62.416 186.237 64.6996C188.369 66.9071 191.338 68.0109 195.144 68.0109C198.95 68.0109 202.185 66.5646 204.849 63.672C207.513 60.7793 208.845 57.0875 208.845 52.5963V21.7671H224.831V80H208.845V72.0073H208.275C207.361 73.758 205.953 75.3947 204.05 76.9171C199.939 80.1142 195.258 81.7127 190.005 81.7127C182.774 81.7127 177.141 79.6194 173.106 75.4327C169.148 71.246 167.169 65.1563 167.169 57.1636ZM236.504 73.2633C231.404 67.5541 228.854 60.0943 228.854 50.8836C228.854 41.6729 231.404 34.251 236.504 28.618C241.681 22.9089 248.075 20.0544 255.687 20.0544C260.787 20.0544 265.392 21.5768 269.503 24.6217C271.254 26.068 272.738 27.5904 273.956 29.189H274.527V0.072515H290.512V80H274.527V72.5782H273.956C272.738 74.1767 271.254 75.6991 269.503 77.1454C265.392 80.1903 260.787 81.7127 255.687 81.7127C248.075 81.7127 241.681 78.8962 236.504 73.2633ZM249.407 38.3235C246.743 41.3684 245.411 45.5551 245.411 50.8836C245.411 56.2121 246.743 60.3987 249.407 63.4436C252.071 66.4884 255.497 68.0109 259.683 68.0109C264.098 68.0109 267.676 66.5265 270.416 63.5578C273.157 60.5129 274.527 56.2882 274.527 50.8836C274.527 45.4789 273.157 41.2923 270.416 38.3235C267.676 35.2787 264.098 33.7562 259.683 33.7562C255.497 33.7562 252.071 35.2787 249.407 38.3235ZM303.072 72.8065C296.983 66.7929 293.938 59.4853 293.938 50.8836C293.938 42.2818 296.983 35.0122 303.072 29.0748C309.162 23.0612 316.774 20.0544 325.909 20.0544C334.967 20.0544 342.541 23.0612 348.631 29.0748C354.797 35.0122 357.88 42.2818 357.88 50.8836C357.88 59.4853 354.797 66.7929 348.631 72.8065C342.541 78.744 334.967 81.7127 325.909 81.7127C316.774 81.7127 309.162 78.744 303.072 72.8065ZM314.947 38.5519C311.979 41.749 310.494 45.8595 310.494 50.8836C310.494 55.9076 311.979 60.0181 314.947 63.2152C317.916 66.4123 321.57 68.0109 325.909 68.0109C330.248 68.0109 333.902 66.4123 336.87 63.2152C339.839 60.0181 341.323 55.9076 341.323 50.8836C341.323 45.8595 339.839 41.749 336.87 38.5519C333.902 35.3548 330.248 33.7562 325.909 33.7562C321.57 33.7562 317.916 35.3548 314.947 38.5519ZM357.349 61.16H373.906C374.438 62.5301 375.276 63.7861 376.418 64.928C378.853 67.3638 382.203 68.5818 386.466 68.5818C392.936 68.5818 396.171 66.6788 396.171 62.8727C396.171 62.2637 396.019 61.7309 395.714 61.2741C395.41 60.7413 394.877 60.2846 394.116 59.9039C393.355 59.4472 392.631 59.0666 391.946 58.7621C391.261 58.4576 390.234 58.1532 388.863 57.8487C387.569 57.4681 386.504 57.2016 385.666 57.0494C384.905 56.8972 383.649 56.6307 381.898 56.2501C380.224 55.8695 379.006 55.6031 378.244 55.4508C366.217 52.8627 360.204 46.9633 360.204 37.7526C360.204 32.8808 362.373 28.7322 366.712 25.3068C371.127 21.8052 377.141 20.0544 384.753 20.0544C394.953 20.0544 402.603 23.2134 407.703 29.5315C409.911 32.2719 411.395 35.3929 412.157 38.8944H396.171C395.638 37.7526 394.953 36.8011 394.116 36.0399C391.756 34.1368 388.635 33.1853 384.753 33.1853C382.012 33.1853 379.995 33.6421 378.701 34.5555C377.407 35.3929 376.76 36.4586 376.76 37.7526C376.76 38.2093 376.836 38.6661 376.988 39.1228C377.217 39.5034 377.559 39.884 378.016 40.2646C378.473 40.5691 378.93 40.8736 379.386 41.1781C379.843 41.4064 380.49 41.6729 381.327 41.9774C382.165 42.2057 382.888 42.4341 383.497 42.6624C384.182 42.8908 385.057 43.1192 386.123 43.3475C387.189 43.5759 388.102 43.7662 388.863 43.9185C389.625 44.0707 390.614 44.2991 391.832 44.6035C393.05 44.8319 394.04 45.0222 394.801 45.1745C406.752 47.8387 412.727 53.7381 412.727 62.8727C412.727 67.9728 410.368 72.3879 405.648 76.1178C400.929 79.8478 394.534 81.7127 386.466 81.7127C375.656 81.7127 367.664 78.2873 362.487 71.4363C360.128 68.3154 358.415 64.8899 357.349 61.16Z" fill="black"/>
</svg>
