<svg width="1287" height="288" viewBox="0 0 1287 288" fill="none" xmlns="http://www.w3.org/2000/svg">
    <g clip-path="url(#clip0_210_1021)">
        <rect opacity="0.6" y="0.306519" width="124.998" height="287.525" rx="62.4992" fill="#389D61" />
        <path
            d="M125.5 24.3081L111.996 37.7149L4.85457 144.082L111.996 250.45L125.5 263.857C139.73 277.984 158.982 285.906 179.071 285.906C220.923 285.906 254.852 252.223 254.852 210.673C254.852 190.729 246.872 171.616 232.642 157.489L219.138 144.082L232.642 130.676C246.872 116.549 254.852 97.4359 254.852 77.4919C254.852 35.9421 220.923 2.25903 179.071 2.25903C158.982 2.25903 139.73 10.1812 125.5 24.3081Z"
            fill="#389D61" />
        <path
            d="M572.254 287.831C542.679 287.831 518.704 263.856 518.704 234.281L518.704 53.55C518.704 23.9751 542.679 -8.67738e-06 572.254 -9.97014e-06L615.763 -1.1872e-05C695.245 -1.53463e-05 759.679 64.4332 759.679 143.916V143.916C759.679 223.398 695.245 287.831 615.763 287.831L572.254 287.831Z"
            fill="#389D61" />
        <path
            d="M264.341 53.5502C264.341 23.9754 288.316 0.000244141 317.891 0.000244141H451.766C481.341 0.000244141 505.316 23.9754 505.316 53.5502V167.344C505.316 233.887 451.372 287.831 384.828 287.831V287.831C318.285 287.831 264.341 233.887 264.341 167.344V53.5502Z"
            fill="#389D61" />
        <circle cx="912.982" cy="143.916" r="143.916" fill="#389D61" />
        <path
            d="M1111.9 211.799C1139.4 239.299 1226.9 243.889 1226.9 189.799C1226.9 149.291 1122.53 139.093 1122.53 89.8481C1122.53 47.1471 1204.4 48.7987 1226.9 74.7571"
            stroke="#389D61" stroke-width="113" stroke-linecap="round" />
    </g>
    <defs>
        <clipPath id="clip0_210_1021">
            <rect width="1287" height="288" fill="white" />
        </clipPath>
    </defs>
</svg>