<svg width="212" height="222" viewBox="0 0 212 222" fill="none" xmlns="http://www.w3.org/2000/svg">
<rect x="5.18304" y="6.18304" width="107.634" height="209.634" rx="53.817" fill="#555555" stroke="white" stroke-width="9.63391"/>
<path d="M22.7573 106.564L18.5147 110.807L22.7573 115.049L96.7458 189.038L106.071 198.363C117.021 209.313 131.842 215.458 147.308 215.458C179.524 215.458 205.64 189.342 205.64 157.126C205.64 141.66 199.495 126.84 188.545 115.89L183.462 110.807L188.545 105.724C199.495 94.7735 205.64 79.9534 205.64 64.4867C205.64 32.2712 179.524 6.15527 147.308 6.15527C131.842 6.15527 117.021 12.2998 106.071 23.2498L96.7458 32.5754L22.7573 106.564Z" fill="black" stroke="white" stroke-width="12"/>
</svg>
