<svg width="160" height="44" viewBox="0 0 160 44" fill="none" xmlns="http://www.w3.org/2000/svg">
    <rect width="43.9721" height="43.9956" rx="7.99707" fill="#2EB364" />
    <g clip-path="url(#clip0_117_1021)">
        <mask id="mask0_117_1021" style="mask-type:alpha" maskUnits="userSpaceOnUse" x="5" y="17" width="27"
            height="21">
            <path fill-rule="evenodd" clip-rule="evenodd"
                d="M11.494 25.9978H6.99768C6.4456 25.9978 5.99805 25.5503 5.99805 24.9982V18.9974C5.99805 18.4454 6.4456 17.9978 6.99768 17.9978H11.494C22.1967 17.9978 30.9344 26.417 31.4548 36.9983C31.482 37.5497 31.0318 37.9978 30.4797 37.9978H24.4849C23.9328 37.9978 23.4896 37.5487 23.4442 36.9985C22.9368 30.8386 17.7803 25.9978 11.494 25.9978Z"
                fill="#237D47" />
        </mask>
        <g mask="url(#mask0_117_1021)">
            <path fill-rule="evenodd" clip-rule="evenodd"
                d="M11.494 25.9978H6.99768C6.4456 25.9978 5.99805 25.5503 5.99805 24.9982V18.9974C5.99805 18.4454 6.4456 17.9978 6.99768 17.9978H11.494C22.1967 17.9978 30.9344 26.417 31.4548 36.9983C31.482 37.5497 31.0318 37.9978 30.4797 37.9978H24.4849C23.9328 37.9978 23.4896 37.5487 23.4442 36.9985C22.9368 30.8386 17.7803 25.9978 11.494 25.9978Z"
                fill="#AFD8C0" />
            <path fill-rule="evenodd" clip-rule="evenodd"
                d="M37.9746 26.9982C37.9746 27.5503 37.527 27.9978 36.975 27.9978H6.99768C6.4456 27.9978 5.99805 27.5503 5.99805 26.9982V20.9974C5.99805 20.4454 6.4456 19.9978 6.99768 19.9978H36.975C37.527 19.9978 37.9746 20.4454 37.9746 20.9974V26.9982Z"
                fill="black" fill-opacity="0.05" />
        </g>
        <mask id="mask1_117_1021" style="mask-type:alpha" maskUnits="userSpaceOnUse" x="5" y="17" width="33" height="9">
            <path fill-rule="evenodd" clip-rule="evenodd"
                d="M37.9746 24.9982C37.9746 25.5503 37.527 25.9978 36.975 25.9978H6.99768C6.4456 25.9978 5.99805 25.5503 5.99805 24.9982V18.9974C5.99805 18.4454 6.4456 17.9978 6.99768 17.9978H36.975C37.527 17.9978 37.9746 18.4454 37.9746 18.9974V24.9982Z"
                fill="#278B50" />
        </mask>
        <g mask="url(#mask1_117_1021)">
            <path fill-rule="evenodd" clip-rule="evenodd"
                d="M37.9746 24.9982C37.9746 25.5503 37.527 25.9978 36.975 25.9978H6.99768C6.4456 25.9978 5.99805 25.5503 5.99805 24.9982V18.9974C5.99805 18.4454 6.4456 17.9978 6.99768 17.9978H36.975C37.527 17.9978 37.9746 18.4454 37.9746 18.9974V24.9982Z"
                fill="#D7EBDF" />
            <path fill-rule="evenodd" clip-rule="evenodd"
                d="M13.4926 19.9978H8.99622C8.44413 19.9978 7.99658 20.4453 7.99658 20.9974V26.9982C7.99658 27.5503 8.44413 27.9978 8.99622 27.9978H13.4926C24.1952 27.9978 32.933 19.5786 33.4534 8.99728C33.4805 8.44586 33.0303 7.99778 32.4783 7.99778H26.4834C25.9313 7.99778 25.4881 8.4469 25.4428 8.99712C24.9353 15.157 19.7788 19.9978 13.4926 19.9978Z"
                fill="black" fill-opacity="0.05" />
        </g>
        <path fill-rule="evenodd" clip-rule="evenodd"
            d="M11.494 17.9978H6.99768C6.4456 17.9978 5.99805 18.4453 5.99805 18.9974V24.9982C5.99805 25.5503 6.4456 25.9978 6.99768 25.9978H11.494C22.1967 25.9978 30.9344 17.5786 31.4548 6.99728C31.482 6.44586 31.0318 5.99778 30.4797 5.99778H24.4849C23.9328 5.99778 23.4896 6.4469 23.4442 6.99712C22.9368 13.157 17.7803 17.9978 11.494 17.9978Z"
            fill="white" />
    </g>
    <path
        d="M56.7273 35.4978V8.86506H62.0539V23.3228H64.3367L69.473 16.0939H75.3703L69.0925 25.0349L75.941 35.4978H69.8535L64.9074 27.8884H62.0539V35.4978H56.7273ZM75.9291 27.8884V16.0939H81.2556V27.1275C81.2556 28.5479 81.598 29.6386 82.2829 30.3995C82.9931 31.1351 83.9823 31.5029 85.2505 31.5029C86.5188 31.5029 87.5968 31.021 88.4845 30.0571C89.3723 29.0933 89.8161 27.8631 89.8161 26.3666V16.0939H95.1427V35.4978H89.8161V32.8345H89.6259C89.3215 33.4179 88.8523 33.9632 88.2182 34.4705C86.8485 35.5358 85.2886 36.0685 83.5384 36.0685C81.1288 36.0685 79.2518 35.371 77.9075 33.9759C76.5885 32.5809 75.9291 30.5517 75.9291 27.8884ZM99.0324 33.253C97.333 31.3507 96.4832 28.865 96.4832 25.7959C96.4832 22.7268 97.333 20.2537 99.0324 18.3768C100.757 16.4744 102.888 15.5232 105.424 15.5232C107.124 15.5232 108.658 16.0305 110.028 17.0451C110.611 17.527 111.106 18.0343 111.512 18.567H111.702V8.86506H117.029V35.4978H111.702V33.0248H111.512C111.106 33.5574 110.611 34.0647 110.028 34.5466C108.658 35.5612 107.124 36.0685 105.424 36.0685C102.888 36.0685 100.757 35.13 99.0324 33.253ZM103.332 21.6107C102.444 22.6253 102 24.0204 102 25.7959C102 27.5714 102.444 28.9664 103.332 29.981C104.219 30.9956 105.361 31.5029 106.756 31.5029C108.227 31.5029 109.419 31.0083 110.332 30.0191C111.245 29.0045 111.702 27.5968 111.702 25.7959C111.702 23.995 111.245 22.5999 110.332 21.6107C109.419 20.5961 108.227 20.0889 106.756 20.0889C105.361 20.0889 104.219 20.5961 103.332 21.6107ZM121.214 33.1009C119.184 31.0971 118.17 28.6621 118.17 25.7959C118.17 22.9297 119.184 20.5074 121.214 18.5289C123.243 16.5251 125.779 15.5232 128.823 15.5232C131.841 15.5232 134.365 16.5251 136.394 18.5289C138.449 20.5074 139.476 22.9297 139.476 25.7959C139.476 28.6621 138.449 31.0971 136.394 33.1009C134.365 35.0793 131.841 36.0685 128.823 36.0685C125.779 36.0685 123.243 35.0793 121.214 33.1009ZM125.171 21.6868C124.181 22.7521 123.687 24.1218 123.687 25.7959C123.687 27.4699 124.181 28.8396 125.171 29.9049C126.16 30.9702 127.377 31.5029 128.823 31.5029C130.269 31.5029 131.486 30.9702 132.476 29.9049C133.465 28.8396 133.959 27.4699 133.959 25.7959C133.959 24.1218 133.465 22.7521 132.476 21.6868C131.486 20.6215 130.269 20.0889 128.823 20.0889C127.377 20.0889 126.16 20.6215 125.171 21.6868ZM139.299 29.2201H144.816C144.994 29.6766 145.273 30.0952 145.653 30.4756C146.465 31.2873 147.581 31.6931 149.001 31.6931C151.157 31.6931 152.235 31.059 152.235 29.7908C152.235 29.5879 152.184 29.4103 152.083 29.2581C151.982 29.0806 151.804 28.9284 151.55 28.8016C151.297 28.6494 151.056 28.5226 150.827 28.4211C150.599 28.3196 150.257 28.2182 149.8 28.1167C149.369 27.9899 149.014 27.9011 148.735 27.8504C148.481 27.7997 148.063 27.7109 147.479 27.5841C146.921 27.4572 146.515 27.3685 146.262 27.3177C142.254 26.4554 140.25 24.4896 140.25 21.4205C140.25 19.7972 140.973 18.4148 142.419 17.2734C143.89 16.1066 145.894 15.5232 148.43 15.5232C151.829 15.5232 154.378 16.5759 156.078 18.6811C156.813 19.5942 157.308 20.6342 157.562 21.801H152.235C152.058 21.4205 151.829 21.1034 151.55 20.8498C150.764 20.2157 149.724 19.8986 148.43 19.8986C147.517 19.8986 146.845 20.0508 146.414 20.3552C145.983 20.6342 145.767 20.9893 145.767 21.4205C145.767 21.5727 145.793 21.7249 145.843 21.8771C145.919 22.0039 146.034 22.1307 146.186 22.2575C146.338 22.359 146.49 22.4604 146.642 22.5619C146.794 22.638 147.01 22.7268 147.289 22.8282C147.568 22.9043 147.809 22.9804 148.012 23.0565C148.24 23.1326 148.532 23.2087 148.887 23.2848C149.242 23.3609 149.547 23.4243 149.8 23.475C150.054 23.5257 150.384 23.6018 150.789 23.7033C151.195 23.7794 151.525 23.8428 151.779 23.8935C155.761 24.7813 157.752 26.747 157.752 29.7908C157.752 31.4902 156.966 32.9614 155.393 34.2042C153.82 35.4471 151.69 36.0685 149.001 36.0685C145.399 36.0685 142.736 34.9271 141.011 32.6443C140.225 31.6043 139.654 30.4629 139.299 29.2201Z"
        fill="#001C06" />
    <defs>
        <clipPath id="clip0_117_1021">
            <rect width="31.9765" height="32" fill="white" transform="translate(5.99805 5.9978)" />
        </clipPath>
    </defs>
</svg>