<svg width="561" height="224" viewBox="0 0 561 224" fill="none" xmlns="http://www.w3.org/2000/svg">
<rect width="560.263" height="224" fill="white"/>
<mask id="mask0_77_1779" style="mask-type:alpha" maskUnits="userSpaceOnUse" x="72" y="101" width="64" height="52">
<path fill-rule="evenodd" clip-rule="evenodd" d="M133.278 152C134.75 152 135.951 150.805 135.875 149.335C134.49 122.592 112.387 101.333 85.3224 101.333H74.6665C73.1944 101.333 72.001 102.527 72.001 103.999V120.001C72.001 121.473 73.1943 122.667 74.6665 122.667H85.3224C100.611 122.667 113.166 134.384 114.51 149.337C114.642 150.803 115.823 152 117.295 152H133.278Z" fill="#237D47"/>
</mask>
<g mask="url(#mask0_77_1779)">
<path fill-rule="evenodd" clip-rule="evenodd" d="M133.278 152C134.75 152 135.951 150.805 135.875 149.335C134.49 122.592 112.387 101.333 85.3224 101.333H74.6665C73.1944 101.333 72.001 102.527 72.001 103.999V120.001C72.001 121.473 73.1943 122.667 74.6665 122.667H85.3224C100.611 122.667 113.166 134.384 114.51 149.337C114.642 150.803 115.823 152 117.295 152H133.278Z" fill="#237D47"/>
<path fill-rule="evenodd" clip-rule="evenodd" d="M151.263 125.335C151.263 126.807 150.069 128 148.597 128H74.6657C73.1936 128 72.0002 126.807 72.0002 125.335V109.332C72.0002 107.86 73.1936 106.667 74.6657 106.667H148.597C150.069 106.667 151.263 107.86 151.263 109.332V125.335Z" fill="black" fill-opacity="0.05"/>
</g>
<mask id="mask1_77_1779" style="mask-type:alpha" maskUnits="userSpaceOnUse" x="72" y="101" width="80" height="22">
<path fill-rule="evenodd" clip-rule="evenodd" d="M151.263 120.002C151.263 121.474 150.069 122.667 148.597 122.667H74.6657C73.1936 122.667 72.0002 121.474 72.0002 120.002V103.999C72.0002 102.527 73.1936 101.334 74.6657 101.334H148.597C150.069 101.334 151.263 102.527 151.263 103.999V120.002Z" fill="#278B50"/>
</mask>
<g mask="url(#mask1_77_1779)">
<path fill-rule="evenodd" clip-rule="evenodd" d="M151.263 120.002C151.263 121.474 150.069 122.667 148.597 122.667H74.6657C73.1936 122.667 72.0002 121.474 72.0002 120.002V103.999C72.0002 102.527 73.1936 101.334 74.6657 101.334H148.597C150.069 101.334 151.263 102.527 151.263 103.999V120.002Z" fill="#278B50"/>
<path fill-rule="evenodd" clip-rule="evenodd" d="M138.605 77.3334C140.077 77.3334 141.278 78.5281 141.202 79.9982C139.817 106.742 117.713 128 90.6491 128H79.9931C78.521 128 77.3276 126.807 77.3276 125.335V109.332C77.3276 107.86 78.521 106.667 79.9931 106.667H90.6491C105.938 106.667 118.492 94.9491 119.837 79.9969C119.969 78.5307 121.15 77.3334 122.622 77.3334H138.605Z" fill="black" fill-opacity="0.05"/>
</g>
<path fill-rule="evenodd" clip-rule="evenodd" d="M133.278 72.0001C134.75 72.0001 135.951 73.1949 135.875 74.665C134.49 101.409 112.386 122.667 85.3219 122.667H74.666C73.1939 122.667 72.0005 121.474 72.0005 120.001V103.999C72.0005 102.527 73.1939 101.334 74.666 101.334H85.3219C100.611 101.334 113.165 89.6158 114.51 74.6636C114.642 73.1974 115.822 72.0001 117.295 72.0001H133.278Z" fill="#389D61"/>
<path d="M181.543 152V72.0725H197.528V115.462H204.379L219.794 93.7671H237.492L218.652 120.6L239.205 152H220.936L206.092 129.164H197.528V152H181.543ZM239.169 129.164V93.7671H255.154V126.88C255.154 131.143 256.182 134.416 258.237 136.7C260.369 138.907 263.338 140.011 267.144 140.011C270.95 140.011 274.185 138.565 276.849 135.672C279.513 132.779 280.845 129.087 280.845 124.596V93.7671H296.831V152H280.845V144.007H280.275C279.361 145.758 277.953 147.395 276.05 148.917C271.939 152.114 267.258 153.713 262.005 153.713C254.774 153.713 249.141 151.619 245.106 147.433C241.148 143.246 239.169 137.156 239.169 129.164ZM308.504 145.263C303.404 139.554 300.854 132.094 300.854 122.884C300.854 113.673 303.404 106.251 308.504 100.618C313.681 94.9089 320.075 92.0544 327.687 92.0544C332.787 92.0544 337.392 93.5768 341.503 96.6217C343.254 98.068 344.738 99.5904 345.956 101.189H346.527V72.0725H362.512V152H346.527V144.578H345.956C344.738 146.177 343.254 147.699 341.503 149.145C337.392 152.19 332.787 153.713 327.687 153.713C320.075 153.713 313.681 150.896 308.504 145.263ZM321.407 110.324C318.743 113.368 317.411 117.555 317.411 122.884C317.411 128.212 318.743 132.399 321.407 135.444C324.071 138.488 327.497 140.011 331.683 140.011C336.098 140.011 339.676 138.527 342.416 135.558C345.157 132.513 346.527 128.288 346.527 122.884C346.527 117.479 345.157 113.292 342.416 110.324C339.676 107.279 336.098 105.756 331.683 105.756C327.497 105.756 324.071 107.279 321.407 110.324ZM375.072 144.807C368.983 138.793 365.938 131.485 365.938 122.884C365.938 114.282 368.983 107.012 375.072 101.075C381.162 95.0612 388.774 92.0544 397.909 92.0544C406.967 92.0544 414.541 95.0612 420.631 101.075C426.797 107.012 429.88 114.282 429.88 122.884C429.88 131.485 426.797 138.793 420.631 144.807C414.541 150.744 406.967 153.713 397.909 153.713C388.774 153.713 381.162 150.744 375.072 144.807ZM386.947 110.552C383.979 113.749 382.494 117.86 382.494 122.884C382.494 127.908 383.979 132.018 386.947 135.215C389.916 138.412 393.57 140.011 397.909 140.011C402.248 140.011 405.902 138.412 408.87 135.215C411.839 132.018 413.323 127.908 413.323 122.884C413.323 117.86 411.839 113.749 408.87 110.552C405.902 107.355 402.248 105.756 397.909 105.756C393.57 105.756 389.916 107.355 386.947 110.552ZM429.349 133.16H445.906C446.438 134.53 447.276 135.786 448.418 136.928C450.853 139.364 454.203 140.582 458.466 140.582C464.936 140.582 468.171 138.679 468.171 134.873C468.171 134.264 468.019 133.731 467.714 133.274C467.41 132.741 466.877 132.285 466.116 131.904C465.355 131.447 464.631 131.067 463.946 130.762C463.261 130.458 462.234 130.153 460.863 129.849C459.569 129.468 458.504 129.202 457.666 129.049C456.905 128.897 455.649 128.631 453.898 128.25C452.224 127.87 451.006 127.603 450.244 127.451C438.217 124.863 432.204 118.963 432.204 109.753C432.204 104.881 434.373 100.732 438.712 97.3068C443.127 93.8052 449.141 92.0544 456.753 92.0544C466.953 92.0544 474.603 95.2134 479.703 101.532C481.911 104.272 483.395 107.393 484.157 110.894H468.171C467.638 109.753 466.953 108.801 466.116 108.04C463.756 106.137 460.635 105.185 456.753 105.185C454.012 105.185 451.995 105.642 450.701 106.556C449.407 107.393 448.76 108.459 448.76 109.753C448.76 110.209 448.836 110.666 448.988 111.123C449.217 111.503 449.559 111.884 450.016 112.265C450.473 112.569 450.93 112.874 451.386 113.178C451.843 113.406 452.49 113.673 453.327 113.977C454.165 114.206 454.888 114.434 455.497 114.662C456.182 114.891 457.057 115.119 458.123 115.348C459.189 115.576 460.102 115.766 460.863 115.918C461.625 116.071 462.614 116.299 463.832 116.604C465.05 116.832 466.04 117.022 466.801 117.174C478.752 119.839 484.727 125.738 484.727 134.873C484.727 139.973 482.368 144.388 477.648 148.118C472.929 151.848 466.534 153.713 458.466 153.713C447.656 153.713 439.664 150.287 434.487 143.436C432.128 140.315 430.415 136.89 429.349 133.16Z" fill="black"/>
</svg>
