<svg xmlns="http://www.w3.org/2000/svg" width="200" height="200" viewBox="-.5 -.5 200 200" overflow="visible">
	<path fill="#FFF"
		d="M-2559.936 6359.65c19.127 26.489 46.371 47.744 80.988 44.707-.391-32.709-44.95-51.716-80.988-44.707zM-2634.014 6073.506c4.082-7.232 2.571-17.81 3.831-26.684-9.019 4.635-15.506 14.72-24.551 18.641 2.6 5.355 14.287 5.366 20.72 8.043zM-2687.179 6018.109l-18.654 18.212c4.158 3.301 9.676 8.132 17.11 6.36l1.544-24.572zM-2731.117 5998.391c-4.356-.363-14.41 20.156-18.785 19.857l14.762 8.728c5.085.305 2.324-25.015 4.023-28.585zM-2776.505 5989.09l4.736-11.668c-10.245.813-15.511 20.68-21.719 26.244 17.118 3.443 17.761 8.144 16.983-14.576zM-2825.16 5962.186l-18.405 31.539 17.091 3.962 1.314-35.501zM-2872.173 5967.636l-21.059 16.139c21.197 8.295 22.411 11.406 21.059-16.139zM-2922.987 5980.398c-3.084-9.172-.18-20.226.396-29.914-4.952 9.422-16.338 16.166-17.745 27.299 4.847 4.019 11.54 2.238 17.349 2.615z" />
	<path
		d="M70.165 21.946C62.09 27.292 49.432 38.35 43.382 44.795c1.491.208 3.068-.957 4.751-1.179l11.635-3.192c-4.833 4.151-15.001 11.47-17.946 17.234 3.632-1.309 11.254-5.699 15.043-6.059-3.309 3.038-10.214 8.801-12.378 12.469.261.124.08.445.12.669 2.846-1.635 9.763-5.91 12.9-6.199-3.229 3.484-9.169 10.193-10.47 14.688 2.804-1.913 9.856-5.792 12.944-6.969-.703 1.773-2.262 3.09-3.276 4.864-1.399 2.453-4.711 5.246-4.834 8.161 2.46-2.375 5.51-4.474 8.571-6.148-1.365 2.947-3.876 5.384-4.561 8.892 2.007-2.02 5.813-3.071 8.399-4.005l-.312.311c-.224.191-3.136 2.335-5.121 4.727 1.765-.114.449-.334 2.707.18l-.043.114c-.154 13.494 25.501 18.427 41.224 17.743 3.314-6.419 1.525-16.789 10.088-21.247 5.764-3.067 6.416-4.742 13.068-3.491 3.596.674 11.461 3.392 15.227 2.534 3.514-2.033 5.221-2.928 8.332-5.37 3.01-4.574-23.988-19.398-2.164-.171 5.236 1.121 6.588.954 8.139-1.376.693-1.88 2.348-6.877 3.859-10.133l.107-1.76c-1.467-4.414-1.111-11.965-1.852-13.053-4.842-6.713-22.34-7.764-30.256-16.596 1.35-4.384-1.482-7.997-4.367-10.738-4.332-3.187-10.313-1.722-14.925-.399-5.255-1.099-10.117-2.986-15.233-4.48-11.377-1.19-22.593 7.13-22.593 7.13z" />
	<path fill="#FF1A00"
		d="M103.517 25.68l-3.771 1.438c-.453-.901.676-1.757 1.126-2.599.322-.616 1.247-.961 1.465-1.705-4.877-.786-9.486-3.178-14.688-2.354-5.563.878-8.802 3.003-12.005 5.54-1.617.885-2.396 2.142-3.968 3.201-1.92 1.729-2.755 5.176-3.233 5.833 2.785-1.206 5.587-1.026 7.479-1.663-7.115 4.447-8.358 13.134-6.39 20.38l-.116.159c-2.391-1.429-3.083-4.065-3.745-6.371-.471 1.515-.538 3.44-.859 5.132-.764-.713-1.184-1.734-1.61-2.644-.799 7.668 2.938 13.913 7.521 19.966 3.068 4.058-2.923 6.744-1.512 11.838l7.206-.404c.929-.348.64-.223.64-.223-1.806 3.613-11.365 6.352-13.201 8.417.513.425 8.917-2.164 11.991-2.687l-9.045 5.112c.899.277-.028 3.311 1.946 3.023 12.508 3.713 26.597 8.866 28.792 3.488 1.831-3.419 4.541-9.21 4.122-12.49l1.941-2.949c-2.59.643-5.199 1.691-7.202 3.823-.599-1.256.342-2.763.81-3.951 1.343-2.41 4.026-3.686 6.151-5.056l-4.464-1.976c-2.25-3.864-6.523-7.047-6.639-11.586l1.057.36c4.069 4.621 9.854 8.371 15.647 8.639-3.943-.338 16.471-2.743 15.271-4.472 2.17 3.121 8.729 4.432 13.52 6.071 2.201-.792 3.162-.566 4.816-2.057-.705-.765-1.795-1.39-2.844-1.787-6.295-1.738-21.162-4.796-24.365-10.986-.604 2.637 1.838 4.812 4.566 7.061l-5.873-.826c-10.331-4.782-9.083-12.984-6.813-20.78l.785 6.508 2.025 3.548c3.851-6.966 1.835-6.1-5.898-15.494l5.832 2.228c2.663 2.142 7.04 5.845 10.921 8.417 10.453 6.845 15.625 11.381 28.891 12.311l4.092.908c2.896-7.59-2.719-14.597-1.021-3.989-2.166-2.631-4.283-5.066-3.842-6.439-.76-1.147 3.143-4.014 2.811-5.319-3.83-3.894-20.389-5.984-29.381-14.907-.264 1.492 4.158 5.354 4.924 6.683-8.918.088-14.174-2.651-15.127-5.542-.195-.481.047-2.623.998-3.313 1.287-.672 2.541-1.693 4.02-1.83-2.316-1.891-5.25.643-7.302 1.788-1.594 2.737.889 5.788 1.202 8.014-2.175-.549-5.111-4.378-5.471-6.782-3.306.362-6.34-.065-8.881-1.974 2.243-.492 4.56-1.331 6.906-1.755 6.143-1.34 12.598-7.655 18.803-2.72l-2.889-3.672c-5.791-.61-10.827 2.078-16.122 3.416z" />
	<path
		d="M83.254 28.459c-1.649 1.924-3.302 3.85-3.687 6.437l.369.434c1.102-1.326 2.753-2.437 4.274-3.207.002 2.726 1.76 5.399 4.11 6.713l.395.028c-.498-2.879-.166-6.399.96-8.998 1.793-1.508 4.151-2.106 5.668-3.692-3.797-.888-7.411-.136-10.658 1.1l-1.431 1.185z" />
	<path fill="#FFF" d="M121.379 36.471c-1.561-2.157-3.777-3.888-6.594-3.642.029 2.662 3.658 4.214 6.594 3.642z" />
	<path
		d="M98.854 36.815c-2.445.187-4.736.622-7.041 1.224 1.017.937 2.302 1.252 3.266 2.129-3.017 1.137-6.176 1.861-8.813 4.186l.546.325c4.878-1.015 10.645-.929 15.732.16l.294-.212-2.948-5.361 4.533-.981c-2.405-2.249-5.156-4.46-8.322-5.422.484 1.308 1.816 2.616 2.753 3.952zM116.564 42.189c2.406.445 5.064.503 7.357.074-3.787-1.932-8.625-1.552-11.639-4.944.57 1.78 1.804 4.649 4.282 4.87zM80.567 55.828c.943 3.023-2.23 6.707.312 9.485 2.165 2.522 4.81 4.614 7.354 6.464l-.225-.943c-2.266-2.647-4.349-5.569-5.396-8.716 2.656.928 5.463 2.216 8.496 2.646-3.416-5.104-9.678-9.984-7.319-16.97.129-1.154 1.655-2.041 1.271-3.113-3.57 2.727-5.064 6.754-4.493 11.147z" />
	<path fill="#FFF"
		d="M127.412 59.77c-.334.589-.213 1.45-.316 2.174.738-.379 1.264-1.199 2-1.518-.213-.438-1.162-.44-1.684-.656zM131.738 64.284l1.518-1.487c-.336-.267-.785-.661-1.395-.518l-.123 2.005zM135.316 65.887c.355.026 1.174-1.643 1.531-1.618l-1.203-.711c-.415-.026-.189 2.035-.328 2.329zM139.012 66.644l-.385.95c.836-.067 1.264-1.684 1.766-2.138-1.391-.279-1.444-.663-1.381 1.188zM142.977 68.834l1.498-2.569-1.395-.32-.103 2.889zM146.801 68.39l1.715-1.312c-1.727-.678-1.825-.931-1.715 1.312zM150.938 67.35c.254.748.02 1.647-.031 2.436.404-.766 1.332-1.313 1.445-2.221-.395-.332-.94-.183-1.414-.215z" />
	<path
		d="M99.399 96.021c.547 1.031.572 2.285 1.119 3.315 1.295-2.793 1.147-6.148-.533-8.659-2.923-1.288-5.745-2.625-8.264-4.671 1.047 3.571 4.471 7.507 7.678 10.015zM117.387 36.775c-.953-.248-1.51-1.317-1.25-2.393.268-1.079 1.252-1.75 2.207-1.502.955.245 1.512 1.318 1.25 2.393-.266 1.075-1.254 1.748-2.207 1.502zM98.356 103.161l2.835-2.31c-2.758-1.791-7.426-5.004-9.95-7.387 1.983 4.125 2.043 8.688 7.115 9.697z" />
	<path
		d="M57.859 84.722c11.552 15.175 27.262 21.19 46.412 19.542l-1.629-3.542c-17.031.631-31.21-3.592-40.875-17.588l-3.908 1.588zM10.063 170.061c2.903.027 5.809-.039 8.712.014l-.375 2.293-5.096.02-.021 3.24h4.088v2.342h-4.088v6.334h-3.22v-14.243zM30.648 184.227c-2.242-.338-3.854-1.586-4.75-3.68-.511-1.191-.656-2.105-.596-3.748.061-1.664.254-2.451.886-3.605.814-1.488 1.881-2.344 3.555-2.846.877-.266 1.065-.291 2.274-.293 1.095-.004 1.446.029 2.078.201 2.303.627 3.802 2.172 4.426 4.559.288 1.105.265 3.764-.042 4.846-.697 2.463-2.385 4.098-4.674 4.527-.712.134-2.393.154-3.157.039zm2.343-2.264c.926-.281 1.579-1.137 1.876-2.463.205-.91.238-3.596.058-4.547-.335-1.762-1.328-2.654-2.957-2.656-1.589-.002-2.456.793-2.912 2.67-.214.883-.238 3.438-.041 4.396.279 1.357.877 2.211 1.761 2.512.605.207 1.679.248 2.215.088zM47.563 170.053h3.446v8.381c0 1.154.179 1.98.537 2.48.364.492.955.883 1.772.883.823 0 1.414-.391 1.772-.883.364-.5.546-1.326.546-2.48v-8.381h3.445v8.381c0 1.979-.474 3.451-1.423 4.418-.948.967-2.396 1.451-4.34 1.451-1.939 0-3.383-.484-4.331-1.451-.949-.967-1.423-2.439-1.423-4.418v-8.381M68.606 170.053l3.509.051c1.381 2.793 2.899 5.531 4.078 8.41l.197.504-.049-1.01-.18-7.951h2.948v14.246h-3.182l-.363-.758c-1.15-2.398-3.13-6.629-3.602-7.697-.302-.684-.524-1.137-.495-1.012.029.127.083 2.309.119 4.848l.065 4.619h-3.047v-14.25zM92.398 182.191l.931.002c.986 0 1.843-1.076 2.366-1.844.522-.766.977-1.873.977-3.322 0-1.424-.431-2.496-.905-3.213-.469-.725-1.17-1.424-2.104-1.424l-1.265-.002v9.805m-3.52 2.11v-14.25h4.209c1.173 0 2.12.104 2.84.311.72.201 1.357.529 1.912.986a5.88 5.88 0 011.776 2.41c.39.949.584 2.084.584 3.404 0 1.223-.2 2.328-.6 3.314a6.489 6.489 0 01-1.744 2.482 5.073 5.073 0 01-1.832 1.031c-.678.207-1.558.311-2.641.311h-4.504M106.307 184.277l5.092-14.225h3.457c1.617 4.746 3.281 9.477 4.885 14.225l-3.457.023-1.084-3.391-4.433.002-1.083 3.389c-1.125-.011-2.253.024-3.377-.023zm6.744-10.634l-1.51 4.887h2.873c-.594-1.596-.844-3.276-1.363-4.887zM127.924 172.535h-3.867v-2.48c3.799 0 7.6-.004 11.4 0-.002 0-.529 2.479-.529 2.479l-3.748.002v11.768h-3.256v-11.769zM142.326 170.053h3.471v14.242h-3.471v-14.242zM159.949 184.227c-2.24-.338-3.854-1.586-4.748-3.68-.512-1.191-.656-2.105-.598-3.748.061-1.664.254-2.451.885-3.605.816-1.488 1.883-2.344 3.557-2.846.877-.266 1.064-.291 2.275-.293 1.094-.004 1.445.029 2.076.201 2.305.627 3.803 2.172 4.426 4.559.289 1.105.266 3.764-.041 4.846-.697 2.463-2.387 4.098-4.676 4.527-.71.134-2.392.154-3.156.039zm2.344-2.264c.926-.281 1.578-1.137 1.875-2.463.205-.91.24-3.596.059-4.547-.336-1.762-1.328-2.654-2.957-2.656-1.59-.002-2.457.793-2.912 2.67-.215.883-.238 3.438-.041 4.396.279 1.357.877 2.211 1.762 2.512.603.207 1.677.248 2.214.088zM176.656 170.053l3.563.051c1.402 2.793 2.945 5.531 4.143 8.41l.199.504-.049-1.01-.182-7.951h2.992v14.246h-3.23l-.369-.758c-1.168-2.398-3.178-6.629-3.658-7.697-.305-.684-.531-1.137-.502-1.012.031.127.086 2.309.121 4.848l.066 4.619h-3.094v-14.25zM184.923 162.559c-1.527-.85-2.496-1.666-3.189-2.689l-.402-.596-.586.516c-.816.725-1.14.965-1.887 1.406-1.727 1.02-4.043 1.439-6.92 1.252-5.955-.385-9.082-3.238-9.49-8.66-.182-2.412.223-4.607 1.158-6.289 1.281-2.305 3.79-3.914 7.313-4.695 1.803-.398 3.266-.545 5.977-.594l2.516-.049-.049-1.311c-.027-.723-.09-1.543-.137-1.824-.25-1.477-.87-2.223-2.035-2.445-.902-.17-1.32-.18-2.357-.053-2.006.246-4.098 1.066-6.678 2.623-.69.416-1.297.744-1.346.725-.096-.037-3.463-5.682-3.46-5.799.007-.166 2.093-1.316 3.581-1.973 4.023-1.775 6.543-2.377 9.953-2.377 3.17 0 5.36.533 7.127 1.736.693.473 1.736 1.551 2.115 2.186.35.586.777 1.646 1.012 2.51l.19.691-.042 4.766c-.02 2.619-.04 6.43-.04 8.467 0 4.178 0 4.18.632 5.414.273.537.498.814 1.266 1.57.855.842.922.93.81 1.059-.069.076-1.03 1.184-2.138 2.461-1.109 1.275-2.057 2.328-2.107 2.338-.052.011-.404-.156-.787-.366zm-9.47-6.29c1.23-.154 2.246-.641 3.182-1.518l.508-.477.055-3.168.053-3.168-1.316.057c-4.154.178-5.707.842-6.377 2.729-.213.596-.295 2.16-.146 2.787.334 1.418 1.457 2.533 2.768 2.748.246.039.486.078.531.082.042.007.378-.027.742-.072zm-38.28 5.735a7.667 7.667 0 01-3.502-1.459c-1.109-.826-1.762-1.803-2.238-3.348-.445-1.441-.436-1.025-.49-18.475-.05-15.838-.057-16.158-.236-18.186-.102-1.135-.162-2.086-.137-2.111.074-.074 8.055-1.891 8.154-1.857.098.037.248 1.135.361 2.654.162 10.801.012 21.605.156 32.406.063 2.619.086 2.936.24 3.373.38 1.078.902 1.469 1.963 1.465.336 0 .662-.018.727-.039.105-.033.48 1.133 1.371 4.289l.162.578-1.27.334c-1.85.487-3.698.618-5.26.376zm16.932.074c-1.066-.125-1.982-.391-2.85-.822-2.164-1.08-3.219-2.633-3.713-5.475-.066-.375-.109-5.193-.146-16.57-.053-15.98-.055-16.049-.25-18.383-.117-1.43-.164-2.367-.119-2.408.102-.088 8.1-1.91 8.152-1.857.088.088.268 1.711.348 3.148.213 11.125-.035 22.258.162 33.383.055 1.18.107 1.611.238 1.984.221.625.525 1.014.945 1.199.457.203 1.182.281 1.516.166.174-.063.283-.066.316-.014.078.129 1.402 4.816 1.37 4.85-.017.018-.505.164-1.085.328-1.398.393-3.689.614-4.884.471zm-86.879-.072c-.134-.018-.61-.076-1.059-.127a13.656 13.656 0 01-1.756-.363c-5.568-1.582-9.046-6.182-9.853-13.021-.124-1.047-.123-3.988.001-5.09.362-3.213 1.4-6.119 2.997-8.387 1.083-1.537 2.861-3.086 4.462-3.889 2.021-1.016 3.78-1.402 6.368-1.402 2.15 0 3.536.219 5.156.816 3.931 1.449 7.106 5.004 8.254 9.238.922 3.398.905 8.645-.037 12.051-.744 2.691-2.024 4.861-3.966 6.725s-4.086 2.918-6.7 3.297c-.768.111-3.4.214-3.867.152zm3.094-6.311c1.815-.824 2.693-2.672 3.095-6.512.153-1.465.177-5.111.041-6.512-.375-3.879-1.335-5.748-3.356-6.531-1.055-.41-2.505-.303-3.577.262-1.823.959-2.647 2.99-2.926 7.207-.158 2.404-.013 5.633.343 7.572.475 2.602 1.225 3.77 2.86 4.457.767.322 1.165.387 2.143.344.697-.029.9-.072 1.377-.287zM9.864 134.977c-.13-1.063-.376-2.029-.667-2.621-.147-.301-.224-.547-.182-.584.09-.078 7.021-1.965 7.22-1.965.204 0 .671.98.915 1.92.112.432.204.855.204.939 0 .086.027.152.061.152.034-.002.391-.277.794-.615 1.52-1.27 3.532-2.127 5.465-2.324 2.115-.217 4.02.1 5.551.92.98.527 2.146 1.512 2.768 2.336l.488.646.314-.326c.76-.789 2.256-1.92 3.307-2.496.898-.494 2.17-.893 3.413-1.074 1.114-.16 3.312-.063 4.384.197 1.185.287 2.204.719 2.971 1.26 1.574 1.109 2.172 2.082 2.584 4.207.172.885.174 1.025.203 13.373l.03 12.479H41.7v-10.934c0-7.029-.03-11.18-.084-11.623-.198-1.623-.574-2.096-1.798-2.268-1.429-.199-3.438.574-5.267 2.025l-.667.529v22.27h-7.729c-.473-7.383.652-15.438-.186-22.727-.296-1.432-.807-1.955-2.059-2.107-1.462-.178-3.452.498-5.153 1.75l-.664.488-.005 22.596H10.11c-.277-8.74.492-17.726-.245-26.423zm76.222 21.253l14.46-19.949-13.249-.043v-5.779h23.043v5.578c-4.503 6.535-9.129 12.986-13.598 19.545l14.18.037-.06.182-1.888 5.559-22.899.041.011-5.171zm30.2-25.361l.183-.041c2.588-.43 5.186-.809 7.775-1.227l.266-.045V161.4h-8.225v-30.531zm3.54-4.086c-1.963-.195-3.682-1.678-4.188-3.611-.703-2.688.707-5.361 3.273-6.201.484-.158.754-.191 1.592-.191 1.578 0 2.482.357 3.508 1.381.986.986 1.412 2.068 1.418 3.586.004 1.563-.406 2.584-1.457 3.637-1.09 1.093-2.488 1.565-4.146 1.399z" />
</svg>