<svg width="876" height="184" viewBox="0 0 876 184" fill="none" xmlns="http://www.w3.org/2000/svg">
    <path
        d="M295.475 134.015C291.576 134.015 287.934 133.645 284.55 132.903C281.199 132.162 277.976 131.099 274.882 129.713L274.737 114.921H284.55L286.436 122.462C287.531 123.01 288.724 123.445 290.013 123.767C291.334 124.089 292.833 124.25 294.508 124.25C297.667 124.25 299.89 123.735 301.179 122.704C302.468 121.672 303.113 120.383 303.113 118.836C303.113 117.386 302.42 116.113 301.034 115.018C299.681 113.89 296.958 112.907 292.865 112.069C286.677 110.78 282.117 108.782 279.185 106.075C276.252 103.368 274.786 99.9033 274.786 95.6816C274.786 92.7812 275.511 90.1387 276.961 87.7539C278.443 85.3691 280.683 83.4517 283.68 82.0015C286.709 80.5513 290.577 79.8262 295.282 79.8262C299.213 79.8262 302.807 80.2129 306.062 80.9863C309.349 81.7275 312.104 82.7104 314.328 83.9351L314.473 98.2437H304.708L303.209 91.3794C302.339 90.7349 301.308 90.2515 300.116 89.9292C298.956 89.6069 297.634 89.4458 296.152 89.4458C293.67 89.4458 291.769 89.9453 290.448 90.9443C289.126 91.9434 288.466 93.2324 288.466 94.8115C288.466 95.7139 288.691 96.5518 289.143 97.3252C289.626 98.0986 290.561 98.8237 291.946 99.5005C293.332 100.177 295.346 100.822 297.989 101.434C304.466 102.917 309.188 104.898 312.152 107.38C315.117 109.829 316.6 113.277 316.6 117.725C316.6 122.591 314.827 126.522 311.282 129.52C307.77 132.517 302.5 134.015 295.475 134.015ZM355.989 134.015C350.994 134.015 346.627 132.919 342.889 130.728C339.15 128.504 336.25 125.459 334.188 121.592C332.157 117.725 331.142 113.31 331.142 108.347V106.413C331.142 101.225 332.109 96.6323 334.043 92.6362C335.976 88.6079 338.699 85.4497 342.212 83.1616C345.757 80.8413 349.93 79.6973 354.732 79.7295C359.469 79.7295 363.449 80.6641 366.672 82.5332C369.895 84.4023 372.344 87.0933 374.02 90.606C375.695 94.1187 376.533 98.3726 376.533 103.368V111.054H345.789L345.692 111.344C345.886 113.632 346.45 115.678 347.384 117.483C348.351 119.255 349.705 120.657 351.445 121.688C353.185 122.688 355.296 123.187 357.777 123.187C360.356 123.187 362.756 122.865 364.98 122.22C367.236 121.543 369.427 120.561 371.554 119.271L375.373 127.973C373.214 129.713 370.491 131.163 367.204 132.323C363.949 133.451 360.211 134.015 355.989 134.015ZM345.886 101.724H363.337V100.467C363.337 98.3403 363.046 96.5195 362.466 95.0049C361.919 93.458 361.016 92.2656 359.759 91.4277C358.535 90.5898 356.94 90.1709 354.974 90.1709C353.105 90.1709 351.525 90.6704 350.236 91.6694C348.947 92.6362 347.932 93.9736 347.191 95.6816C346.482 97.3896 345.999 99.3232 345.741 101.482L345.886 101.724ZM390.447 133V124.541L397.263 123.09V90.6543L389.722 89.2041V80.6963H410.363L410.944 87.6089C412.619 85.0952 414.714 83.1616 417.228 81.8081C419.774 80.4224 422.706 79.7295 426.026 79.7295C429.377 79.7295 432.245 80.4707 434.63 81.9531C437.047 83.4355 438.852 85.6753 440.044 88.6724C441.655 85.8687 443.75 83.6772 446.328 82.0981C448.906 80.519 451.936 79.7295 455.416 79.7295C460.572 79.7295 464.633 81.4858 467.598 84.9985C470.595 88.5112 472.093 93.8608 472.093 101.047V123.09L478.909 124.541V133H451.887V124.541L457.978 123.09V100.999C457.978 97.1318 457.334 94.457 456.045 92.9746C454.788 91.46 452.951 90.7026 450.534 90.7026C448.342 90.7026 446.489 91.3311 444.975 92.5879C443.46 93.8125 442.364 95.4399 441.688 97.4702V123.09L447.392 124.541V133H421.917V124.541L427.621 123.09V100.999C427.621 97.2285 426.976 94.5698 425.687 93.0229C424.43 91.4761 422.561 90.7026 420.08 90.7026C418.082 90.7026 416.358 91.1055 414.907 91.9111C413.457 92.7168 412.265 93.877 411.33 95.3916V123.09L417.421 124.541V133H390.447ZM491.18 133V124.541L497.996 123.09V90.6543L490.455 89.2041V80.6963H512.111V123.09L518.879 124.541V133H491.18ZM497.512 69.6265V57.5898H512.111V69.6265H497.512ZM556.141 134.015C551.114 134.015 546.763 132.887 543.089 130.631C539.448 128.375 536.644 125.266 534.678 121.302C532.712 117.306 531.729 112.746 531.729 107.622V106.171C531.729 101.015 532.728 96.4551 534.726 92.4912C536.724 88.5273 539.544 85.4175 543.186 83.1616C546.827 80.8735 551.114 79.7295 556.044 79.7295C560.749 79.7295 564.794 80.4707 568.178 81.9531C571.594 83.4033 574.365 85.0952 576.492 87.0288L576.395 102.014H565.761L563.875 92.6846C563.102 91.9111 562.119 91.2827 560.927 90.7993C559.734 90.3159 558.526 90.0742 557.301 90.0742C554.723 90.0742 552.58 90.7188 550.872 92.0078C549.196 93.2969 547.939 95.1338 547.101 97.5186C546.263 99.9033 545.845 102.788 545.845 106.171V107.622C545.845 111.199 546.312 114.147 547.246 116.468C548.181 118.756 549.422 120.448 550.969 121.543C552.548 122.639 554.304 123.187 556.238 123.187C558.719 123.187 560.701 122.542 562.183 121.253C563.698 119.932 564.729 118.079 565.277 115.694H577.362L577.507 115.984C576.959 119.69 575.864 122.897 574.22 125.604C572.609 128.311 570.321 130.39 567.356 131.84C564.423 133.29 560.685 134.015 556.141 134.015ZM616.703 134.015C611.547 134.015 607.116 132.887 603.41 130.631C599.704 128.375 596.868 125.25 594.902 121.253C592.936 117.225 591.953 112.601 591.953 107.38V106.365C591.953 101.176 592.936 96.584 594.902 92.5879C596.868 88.5596 599.687 85.4175 603.361 83.1616C607.067 80.8735 611.482 79.7295 616.606 79.7295C621.795 79.7295 626.226 80.8735 629.9 83.1616C633.574 85.4175 636.393 88.5435 638.359 92.5396C640.325 96.5356 641.308 101.144 641.308 106.365V107.38C641.308 112.601 640.325 117.225 638.359 121.253C636.393 125.25 633.574 128.375 629.9 130.631C626.226 132.887 621.827 134.015 616.703 134.015ZM616.703 123.187C619.152 123.187 621.15 122.526 622.697 121.205C624.244 119.884 625.388 118.047 626.129 115.694C626.871 113.31 627.241 110.538 627.241 107.38V106.365C627.241 103.271 626.871 100.548 626.129 98.1953C625.388 95.8105 624.228 93.9575 622.649 92.6362C621.102 91.2827 619.088 90.606 616.606 90.606C614.189 90.606 612.191 91.2827 610.612 92.6362C609.033 93.9575 607.873 95.8105 607.132 98.1953C606.423 100.548 606.068 103.271 606.068 106.365V107.38C606.068 110.538 606.423 113.31 607.132 115.694C607.873 118.079 609.033 119.932 610.612 121.253C612.191 122.542 614.222 123.187 616.703 123.187ZM653.82 133V124.541L660.636 123.09V67.5479L653.095 66.0977V57.5898H674.751V123.09L681.567 124.541V133H653.82ZM718.105 134.015C712.948 134.015 708.517 132.887 704.811 130.631C701.105 128.375 698.269 125.25 696.303 121.253C694.337 117.225 693.355 112.601 693.355 107.38V106.365C693.355 101.176 694.337 96.584 696.303 92.5879C698.269 88.5596 701.089 85.4175 704.763 83.1616C708.469 80.8735 712.884 79.7295 718.008 79.7295C723.196 79.7295 727.628 80.8735 731.301 83.1616C734.975 85.4175 737.795 88.5435 739.761 92.5396C741.727 96.5356 742.71 101.144 742.71 106.365V107.38C742.71 112.601 741.727 117.225 739.761 121.253C737.795 125.25 734.975 128.375 731.301 130.631C727.628 132.887 723.229 134.015 718.105 134.015ZM718.105 123.187C720.554 123.187 722.552 122.526 724.099 121.205C725.646 119.884 726.79 118.047 727.531 115.694C728.272 113.31 728.643 110.538 728.643 107.38V106.365C728.643 103.271 728.272 100.548 727.531 98.1953C726.79 95.8105 725.629 93.9575 724.05 92.6362C722.503 91.2827 720.489 90.606 718.008 90.606C715.591 90.606 713.593 91.2827 712.014 92.6362C710.435 93.9575 709.274 95.8105 708.533 98.1953C707.824 100.548 707.47 103.271 707.47 106.365V107.38C707.47 110.538 707.824 113.31 708.533 115.694C709.274 118.079 710.435 119.932 712.014 121.253C713.593 122.542 715.623 123.187 718.105 123.187ZM756.43 133V124.541L763.198 123.09V90.6543L755.705 89.2041V80.6963H776.346L776.975 88.189C778.715 85.5142 780.858 83.4355 783.404 81.9531C785.982 80.4707 788.915 79.7295 792.202 79.7295C797.39 79.7295 801.451 81.3892 804.383 84.7085C807.316 88.0278 808.782 93.2324 808.782 100.322V123.09L815.55 124.541V133H788.576V124.541L794.619 123.09V100.371C794.619 96.8579 793.926 94.3765 792.54 92.9263C791.154 91.4438 789.092 90.7026 786.353 90.7026C784.322 90.7026 782.55 91.1377 781.035 92.0078C779.553 92.8457 778.312 94.0542 777.313 95.6333V123.09L783.017 124.541V133H756.43ZM850.54 134.015C846.641 134.015 842.999 133.645 839.615 132.903C836.264 132.162 833.041 131.099 829.948 129.713L829.802 114.921H839.615L841.501 122.462C842.596 123.01 843.789 123.445 845.078 123.767C846.399 124.089 847.898 124.25 849.573 124.25C852.732 124.25 854.955 123.735 856.244 122.704C857.533 121.672 858.178 120.383 858.178 118.836C858.178 117.386 857.485 116.113 856.099 115.018C854.746 113.89 852.023 112.907 847.93 112.069C841.742 110.78 837.182 108.782 834.25 106.075C831.317 103.368 829.851 99.9033 829.851 95.6816C829.851 92.7812 830.576 90.1387 832.026 87.7539C833.509 85.3691 835.748 83.4517 838.745 82.0015C841.775 80.5513 845.642 79.8262 850.347 79.8262C854.279 79.8262 857.872 80.2129 861.127 80.9863C864.414 81.7275 867.169 82.7104 869.393 83.9351L869.538 98.2437H859.773L858.275 91.3794C857.405 90.7349 856.373 90.2515 855.181 89.9292C854.021 89.6069 852.699 89.4458 851.217 89.4458C848.736 89.4458 846.834 89.9453 845.513 90.9443C844.192 91.9434 843.531 93.2324 843.531 94.8115C843.531 95.7139 843.757 96.5518 844.208 97.3252C844.691 98.0986 845.626 98.8237 847.011 99.5005C848.397 100.177 850.411 100.822 853.054 101.434C859.531 102.917 864.253 104.898 867.218 107.38C870.182 109.829 871.665 113.277 871.665 117.725C871.665 122.591 869.892 126.522 866.347 129.52C862.835 132.517 857.566 134.015 850.54 134.015Z"
        fill="black" />
    <path d="M91.9238 0L183.848 91.9239L91.9238 183.848L-5.32047e-05 91.9239L91.9238 0Z" fill="black" />
    <path fill-rule="evenodd" clip-rule="evenodd"
        d="M75.2042 136.806C75.6554 138.968 77.7864 140.378 79.8848 139.687C96.7003 134.152 107.034 116.746 103.332 99.0063L102.254 93.8395C101.803 91.677 99.684 90.2897 97.5215 90.741L90.8209 92.1392C88.6584 92.5905 87.2711 94.7094 87.7224 96.872L88.8005 102.039C90.8255 111.742 85.5962 121.274 76.8017 124.999C74.7675 125.86 73.3547 127.943 73.8059 130.105L75.2042 136.806Z"
        fill="white" />
    <rect x="81.4424" y="81.9239" width="22" height="22" fill="white" />
    <rect x="81.4424" y="39.9239" width="22" height="22" fill="white" />
</svg>