<svg xmlns="http://www.w3.org/2000/svg" fill="none" height="116" width="468">
   <g fill="currentColor">
      <path
         d="M191.43 51.83l6-12.06h10.07l-10.21 18 10.47 18.42h-10.1l-6.09-12.32-6.1 12.32H175.4l10.47-18.42-10.21-18h10.08l5.69 12.06zm32.07 11.39h-4.77v12.86H210V39.77h14.3c4.37 0 7.68.93 10.07 2.92a9.832 9.832 0 013.71 8.08 11.91 11.91 0 01-1.59 6.36 11.288 11.288 0 01-4.77 4.11l7.55 14.7v.4h-9.41l-6.36-13.12zm-4.64-6.75h5.57a4.54 4.54 0 003.71-1.33 5.51 5.51 0 001.32-3.71 4.896 4.896 0 00-1.32-3.71 4.715 4.715 0 00-3.71-1.32h-5.57v10.07zm32.87 7.28v12.33H243V39.77h14.58a16.53 16.53 0 017.42 1.59 12.494 12.494 0 015 4.37 11.664 11.664 0 011.72 6.5 10.524 10.524 0 01-3.84 8.48c-2.52 2.12-6 3.18-10.47 3.18h-5.69l.01-.14zm0-6.75h5.69a4.846 4.846 0 003.85-1.33 4.439 4.439 0 001.32-3.58 5.923 5.923 0 00-1.32-4.1 4.626 4.626 0 00-3.71-1.59h-5.83V57zm45 12.45H312v6.76h-24.1V39.77h8.75v29.68h.08zm41.08-8.74h-13.74v8.74h16.3v6.76h-25V39.77h25.18v6.76h-16.3v7.68h13.65l-.09 6.5zm5.56 15.37V39.77h11.79A17.89 17.89 0 01364 42a15.002 15.002 0 016 6.23 19.671 19.671 0 012.26 8.88v1.72a18.554 18.554 0 01-2.12 9 16.107 16.107 0 01-14.58 8.48h-12.14l-.05-.23zm8.75-29.55v22.92h3A6.998 6.998 0 00361 66.8c1.333-1.847 2-4.497 2-7.95v-1.59c0-3.58-.667-6.23-2-7.95a7.089 7.089 0 00-6-2.65h-2.91l.03-.13zm53.71 25.17a14.245 14.245 0 01-6 3.58 25.461 25.461 0 01-8.61 1.33c-4.77 0-8.62-1.46-11.4-4.38-2.78-2.92-4.37-7-4.64-12.19v-3.18a22.93 22.93 0 011.86-9.4 14.692 14.692 0 015.43-6.23 15.498 15.498 0 018.22-2.12c4.5 0 8.08 1.06 10.6 3.18 2.52 2.12 4 5.17 4.37 9.27h-8.48a6.817 6.817 0 00-2-4.37 6 6 0 00-4.18-1.32 5.928 5.928 0 00-5.17 2.78 14.68 14.68 0 00-1.85 8v2.25c0 3.58.66 6.36 1.85 8.22 1.19 1.86 3.18 2.78 5.83 2.78a7.53 7.53 0 005.17-1.59v-5.7h-6.09v-6h14.84V71.7h.25zm27.17-11h-13.78v8.74h16.29v6.76h-25V39.77h25.18v6.76h-16.3v7.68h13.78v6.5l-.17-.01zm19.21 2.51h-4.77v12.87h-8.88V39.77h14.31c4.38 0 7.69.93 10.07 2.92a9.798 9.798 0 013.71 8.08 11.91 11.91 0 01-1.59 6.36 11.288 11.288 0 01-4.77 4.11l7.56 14.7v.4h-9.41l-6.23-13.13zm-4.77-6.75H453a4.54 4.54 0 003.71-1.33 5.509 5.509 0 001.29-3.7 4.944 4.944 0 00-1.32-3.71A4.714 4.714 0 00453 46.4h-5.57l.01 10.06zM35.4 7.2h2.8V0h-2.8a22.58 22.58 0 00-22.6 22.6V39A13.6 13.6 0 010 52.6l.2 3.6-.2 3.6a13.6 13.6 0 0112.8 13.6v18.9A23.66 23.66 0 0036.4 116v-7.2A16.411 16.411 0 0120 92.4v-19a20.77 20.77 0 00-9.1-17.2A20.9 20.9 0 0020 39V22.6A15.47 15.47 0 0135.4 7.2zM118.6 7.2h-2.8V0h2.8a22.56 22.56 0 0122.5 22.6V39a13.6 13.6 0 0012.8 13.6l-.2 3.6.2 3.6a13.6 13.6 0 00-12.8 13.6v18.9a23.66 23.66 0 01-23.6 23.7v-7.2a16.412 16.412 0 0016.4-16.4v-19a20.774 20.774 0 019.1-17.2 20.898 20.898 0 01-9.1-17.2V22.6a15.31 15.31 0 00-4.452-10.878A15.308 15.308 0 00118.6 7.2zM103.2 29h10.7L91.6 49.9a21.76 21.76 0 01-29.2 0L40.1 29h10.7l16.9 15.8a13.68 13.68 0 0018.5 0l17-15.8zM50.7 87H40l22.4-21a21.55 21.55 0 0129.2 0L114 87h-10.7l-17-16a13.68 13.68 0 00-18.5 0L50.7 87z" />
   </g>
</svg>