<!-- Icons from https://heroicons.com/ -->
<svg xmlns="http://www.w3.org/2000/svg" style="display: none">
  <g fill="none" stroke="currentColor">
    <symbol id="adjustments" viewBox="0 0 24 24">
      <path
        stroke-linecap="round"
        stroke-linejoin="round"
        stroke-width="2"
        d="M12 6V4m0 2a2 2 0 100 4m0-4a2 2 0 110 4m-6 8a2 2 0 100-4m0 4a2 2 0 110-4m0 4v2m0-6V4m6 6v10m6-2a2 2 0 100-4m0 4a2 2 0 110-4m0 4v2m0-6V4" />
    </symbol>
    <symbol id="arrow-sm-right" viewBox="0 0 24 24">
      <path stroke-linecap="round" stroke-linejoin="round" stroke-width="2" d="M13 7l5 5m0 0l-5 5m5-5H6" />
    </symbol>
    <symbol id="at-symbol" viewBox="0 0 24 24">
      <path stroke="currentColor" stroke-width="2" stroke-linecap="round" stroke-linejoin="round" d="M16 12a4 4 0 10-8 0 4 4 0 008 0zm0 0v1.5a2.5 2.5 0 005 0V12a9 9 0 10-9 9m4.5-1.206a8.959 8.959 0 01-4.5 1.207" />
    </symbol>
    <symbol id="badge-check" viewBox="0 0 24 24">
      <path stroke-linecap="round" stroke-width="2" stroke-linejoin="round" d="M9 12l2 2 4-4M7.835 4.697a3.42 3.42 0 001.946-.806 3.42 3.42 0 014.438 0 3.42 3.42 0 001.946.806 3.42 3.42 0 013.138 3.138 3.42 3.42 0 00.806 1.946 3.42 3.42 0 010 4.438 3.42 3.42 0 00-.806 1.946 3.42 3.42 0 01-3.138 3.138 3.42 3.42 0 00-1.946.806 3.42 3.42 0 01-4.438 0 3.42 3.42 0 00-1.946-.806 3.42 3.42 0 01-3.138-3.138 3.42 3.42 0 00-.806-1.946 3.42 3.42 0 010-4.438 3.42 3.42 0 00.806-1.946 3.42 3.42 0 013.138-3.138z" />
    </symbol>
    <symbol id="bell" viewBox="0 0 24 24">
      <path stroke-linecap="round" stroke-width="2" stroke-linejoin="round" d="M15 17h5l-1.405-1.405A2.032 2.032 0 0118 14.158V11a6.002 6.002 0 00-4-5.659V5a2 2 0 10-4 0v.341C7.67 6.165 6 8.388 6 11v3.159c0 .538-.214 1.055-.595 1.436L4 17h5m6 0v1a3 3 0 11-6 0v-1m6 0H9" />
    </symbol>
    <symbol id="cash" viewBox="0 0 24 24">
      <path
        stroke-linecap="round"
        stroke-linejoin="round"
        stroke-width="2"
        d="M17 9V7a2 2 0 00-2-2H5a2 2 0 00-2 2v6a2 2 0 002 2h2m2 4h10a2 2 0 002-2v-6a2 2 0 00-2-2H9a2 2 0 00-2 2v6a2 2 0 002 2zm7-5a2 2 0 11-4 0 2 2 0 014 0z" />
    </symbol>
    <symbol id="chart-bar" viewBox="0 0 24 24">
      <path
        stroke-linecap="round"
        stroke-linejoin="round"
        stroke-width="2"
        d="M9 19v-6a2 2 0 00-2-2H5a2 2 0 00-2 2v6a2 2 0 002 2h2a2 2 0 002-2zm0 0V9a2 2 0 012-2h2a2 2 0 012 2v10m-6 0a2 2 0 002 2h2a2 2 0 002-2m0 0V5a2 2 0 012-2h2a2 2 0 012 2v14a2 2 0 01-2 2h-2a2 2 0 01-2-2z" />
    </symbol>
    <symbol id="chat-alt" viewBox="0 0 24 24">
      <path
        stroke-linecap="round"
        stroke-linejoin="round"
        stroke-width="2"
        d="M8 10h.01M12 10h.01M16 10h.01M9 16H5a2 2 0 01-2-2V6a2 2 0 012-2h14a2 2 0 012 2v8a2 2 0 01-2 2h-5l-5 5v-5z" />
    </symbol>
    <symbol id="chat-alt-2" viewBox="0 0 24 24">
      <path
        stroke-linecap="round"
        stroke-linejoin="round"
        stroke-width="2"
        d="M12 4.354a4 4 0 110 5.292M15 21H3v-1a6 6 0 0112 0v1zm0 0h6v-1a6 6 0 00-9-5.197M13 7a4 4 0 11-8 0 4 4 0 018 0z" />
    </symbol>
    <symbol id="check" viewBox="0 0 24 24">
      <path stroke-linecap="round" stroke-linejoin="round" stroke-width="2" d="M5 13l4 4L19 7" />
    </symbol>
    <symbol id="chevron-double-right" viewBox="0 0 24 24">
      <path stroke-linecap="round" stroke-linejoin="round" stroke-width="2" d="M13 5l7 7-7 7M5 5l7 7-7 7" />
    </symbol>
    <symbol id="chevron-down" viewBox="0 0 24 24">
     <path stroke-width="1.5" stroke="currentColor" stroke-linecap="round" stroke-linejoin="round" d="M19.5 8.25l-7.5 7.5-7.5-7.5" />
    </symbol>
    <symbol id="chevron-right" viewBox="0 0 24 24">
      <path stroke-linecap="round" stroke-linejoin="round" stroke-width="2" d="M9 5l7 7-7 7" />
    </symbol>
    <symbol id="chevron-left" viewBox="0 0 24 24">
      <path stroke-linecap="round" stroke-linejoin="round" stroke-width="2" d="M15 19l-7-7 7-7" />
    </symbol>
    <symbol id="clipboard-copy" viewBox="0 0 24 24">
      <path
        stroke-linecap="round"
        stroke-linejoin="round"
        d="M8 5H6a2 2 0 00-2 2v12a2 2 0 002 2h10a2 2 0 002-2v-1M8 5a2 2 0 002 2h2a2 2 0 002-2M8 5a2 2 0 012-2h2a2 2 0 012 2m0 0h2a2 2 0 012 2v3m2 4H10m0 0l3-3m-3 3l3 3" />
    </symbol>
    <symbol id="clock" viewBox="0 0 24 24">
      <path
        stroke-linecap="round"
        stroke-linejoin="round"
        stroke-width="2"
        d="M12 8v4l3 3m6-3a9 9 0 11-18 0 9 9 0 0118 0z" />
    </symbol>
    <symbol id="cog" viewBox="0 0 24 24">
      <path
        stroke-linecap="round"
        stroke-linejoin="round"
        stroke-width="2"
        d="M10.325 4.317c.426-1.756 2.924-1.756 3.35 0a1.724 1.724 0 002.573 1.066c1.543-.94 3.31.826 2.37 2.37a1.724 1.724 0 001.065 2.572c1.756.426 1.756 2.924 0 3.35a1.724 1.724 0 00-1.066 2.573c.94 1.543-.826 3.31-2.37 2.37a1.724 1.724 0 00-2.572 1.065c-.426 1.756-2.924 1.756-3.35 0a1.724 1.724 0 00-2.573-1.066c-1.543.94-3.31-.826-2.37-2.37a1.724 1.724 0 00-1.065-2.572c-1.756-.426-1.756-2.924 0-3.35a1.724 1.724 0 001.066-2.573c-.94-1.543.826-3.31 2.37-2.37.996.608 2.296.07 2.572-1.065z" />
      <path stroke-linecap="round" stroke-linejoin="round" stroke-width="2" d="M15 12a3 3 0 11-6 0 3 3 0 016 0z" />
    </symbol>
    <symbol id="credit-card" viewBox="0 0 24 24">
      <path stroke-linecap="round" stroke-linejoin="round" stroke-width="2" d="M3 10h18M7 15h1m4 0h1m-7 4h12a3 3 0 003-3V8a3 3 0 00-3-3H6a3 3 0 00-3 3v8a3 3 0 003 3z" />
    </symbol>
    <symbol id="currency-dollar" viewBox="0 0 24 24">
      <path
        stroke-linecap="round"
        stroke-linejoin="round"
        stroke-width="2"
        d="M12 8c-1.657 0-3 .895-3 2s1.343 2 3 2 3 .895 3 2-1.343 2-3 2m0-8c1.11 0 2.08.402 2.599 1M12 8V7m0 1v8m0 0v1m0-1c-1.11 0-2.08-.402-2.599-1M21 12a9 9 0 11-18 0 9 9 0 0118 0z" />
    </symbol>
    <symbol id="cursor-click" viewBox="0 0 24 24">
      <path
        stroke-linecap="round"
        stroke-linejoin="round"
        stroke-width="2"
        d="M15 15l-2 5L9 9l11 4-5 2zm0 0l5 5M7.188 2.239l.777 2.897M5.136 7.965l-2.898-.777M13.95 4.05l-2.122 2.122m-5.657 5.656l-2.12 2.122" />
    </symbol>
    <symbol id="document" viewBox="0 0 24 24">
      <path
        stroke-linecap="round"
        stroke-linejoin="round"
        stroke-width="2"
        d="M7 21h10a2 2 0 002-2V9.414a1 1 0 00-.293-.707l-5.414-5.414A1 1 0 0012.586 3H7a2 2 0 00-2 2v14a2 2 0 002 2z" />
    </symbol>
    <symbol id="download" viewBox="0 0 24 24">
      <path
        strokeLinecap="round"
        strokeLinejoin="round"
        d="M4 16v1a3 3 0 003 3h10a3 3 0 003-3v-1m-4-4l-4 4m0 0l-4-4m4 4V4" />
    </symbol>
    <symbol id="exclaimation" viewBox="0 0 24 24">
      <path stroke-linecap="round" stroke-linejoin="round" d="M12 9v2m0 4h.01m-6.938 4h13.856c1.54 0 2.502-1.667 1.732-3L13.732 4c-.77-1.333-2.694-1.333-3.464 0L3.34 16c-.77 1.333.192 3 1.732 3z" />
    </symbol>
    <symbol id="exclamation-triangle" fill="none" viewBox="0 0 24 24" stroke-width="1.5" stroke="currentColor">
     <path stroke-linecap="round" stroke-linejoin="round" d="M12 9v3.75m-9.303 3.376c-.866 1.5.217 3.374 1.948 3.374h14.71c1.73 0 2.813-1.874 1.948-3.374L13.949 3.378c-.866-1.5-3.032-1.5-3.898 0L2.697 16.126zM12 15.75h.007v.008H12v-.008z" />
    </symbol>
    <symbol id="exclaimation-circle" viewBox="0 0 24 24">
      <path
        stroke-linecap="round"
        stroke-linejoin="round"
        stroke-width="2"
        d="M12 8v4m0 4h.01M21 12a9 9 0 11-18 0 9 9 0 0118 0z" />
    </symbol>
    <symbol id="external-link" viewBox="0 0 24 24">
      <path
        stroke-linecap="round"
        stroke-linejoin="round"
        stroke-width="2"
        d="M10 6H6a2 2 0 00-2 2v10a2 2 0 002 2h10a2 2 0 002-2v-4M14 4h6m0 0v6m0-6L10 14" />
    </symbol>
    <symbol id="eye" viewBox="0 0 24 24">
      <path stroke-width="2" stroke-linecap="round" stroke-linejoin="round" d="M15 12a3 3 0 11-6 0 3 3 0 016 0z" />
      <path stroke-width="2" stroke-linecap="round" stroke-linejoin="round" d="M2.458 12C3.732 7.943 7.523 5 12 5c4.478 0 8.268 2.943 9.542 7-1.274 4.057-5.064 7-9.542 7-4.477 0-8.268-2.943-9.542-7z" />
    </symbol>
    <symbol id="globe-alt" viewBox="0 0 24 24" stroke-width="1.5" stroke="currentColor">
     <path stroke-linecap="round" stroke-linejoin="round" d="M12 21a9.004 9.004 0 008.716-6.747M12 21a9.004 9.004 0 01-8.716-6.747M12 21c2.485 0 4.5-4.03 4.5-9S14.485 3 12 3m0 18c-2.485 0-4.5-4.03-4.5-9S9.515 3 12 3m0 0a8.997 8.997 0 017.843 4.582M12 3a8.997 8.997 0 00-7.843 4.582m15.686 0A11.953 11.953 0 0112 10.5c-2.998 0-5.74-1.1-7.843-2.918m15.686 0A8.959 8.959 0 0121 12c0 .778-.099 1.533-.284 2.253m0 0A17.919 17.919 0 0112 16.5c-3.162 0-6.133-.815-8.716-2.247m0 0A9.015 9.015 0 013 12c0-1.605.42-3.113 1.157-4.418" />
    </symbol>
    <symbol id="home" viewBox="0 0 24 24">
      <path
        stroke-linecap="round"
        stroke-linejoin="round"
        stroke-width="2"
        d="M3 12l2-2m0 0l7-7 7 7M5 10v10a1 1 0 001 1h3m10-11l2 2m-2-2v10a1 1 0 01-1 1h-3m-6 0a1 1 0 001-1v-4a1 1 0 011-1h2a1 1 0 011 1v4a1 1 0 001 1m-6 0h6" />
    </symbol>
    <symbol id="inbox" viewBox="0 0 24 24">
      <path
        stroke-linecap="round"
        stroke-linejoin="round"
        stroke-width="2"
        d="M20 13V6a2 2 0 00-2-2H6a2 2 0 00-2 2v7m16 0v5a2 2 0 01-2 2H6a2 2 0 01-2-2v-5m16 0h-2.586a1 1 0 00-.707.293l-2.414 2.414a1 1 0 01-.707.293h-3.172a1 1 0 01-.707-.293l-2.414-2.414A1 1 0 006.586 13H4" />
    </symbol>
    <symbol id="information-circle" viewBox="0 0 24 24">
      <path
        stroke-linecap="round"
        stroke-linejoin="round"
        stroke-width="2"
        d="M13 16h-1v-4h-1m1-4h.01M21 12a9 9 0 11-18 0 9 9 0 0118 0z" />
    </symbol>
    <symbol id="key" viewBox="0 0 24 24">
      <path stroke-width="2" stroke-linecap="round" stroke-linejoin="round" d="M15 7a2 2 0 012 2m4 0a6 6 0 01-7.743 5.743L11 17H9v2H7v2H4a1 1 0 01-1-1v-2.586a1 1 0 01.293-.707l5.964-5.964A6 6 0 1121 9z" />
    </symbol>
    <symbol id="library" viewBox="0 0 24 24">
      <path
        stroke-linecap="round"
        stroke-linejoin="round"
        stroke-width="2"
        d="M8 14v3m4-3v3m4-3v3M3 21h18M3 10h18M3 7l9-4 9 4M4 10h16v11H4V10z" />
    </symbol>
    <symbol id="lightning-bolt" viewBox="0 0 24 24">
      <path stroke-linecap="round" stroke-linejoin="round" stroke-width="2" d="M13 10V3L4 14h7v7l9-11h-7z" />
    </symbol>
    <symbol id="lock-closed" viewBox="0 0 24 24">
      <path
        stroke-linecap="round"
        stroke-linejoin="round"
        stroke-width="2"
        d="M12 15v2m-6 4h12a2 2 0 002-2v-6a2 2 0 00-2-2H6a2 2 0 00-2 2v6a2 2 0 002 2zm10-10V7a4 4 0 00-8 0v4h8z" />
    </symbol>
    <symbol id="logout" viewBox="0 0 24 24">
      <path
        stroke-linecap="round"
        stroke-linejoin="round"
        stroke-width="2"
        d="M17 16l4-4m0 0l-4-4m4 4H7m6 4v1a3 3 0 01-3 3H6a3 3 0 01-3-3V7a3 3 0 013-3h4a3 3 0 013 3v1" />
    </symbol>
    <symbol id="link" viewBox="0 0 24 24">
      <path
        stroke-linecap="round"
        stroke-linejoin="round"
        stroke-width="3"
        d="M13.828 10.172a4 4 0 00-5.656 0l-4 4a4 4 0 105.656 5.656l1.102-1.101m-.758-4.899a4 4 0 005.656 0l4-4a4 4 0 00-5.656-5.656l-1.1 1.1" />
    </symbol>
    <symbol id="menu-alt-2" viewBox="0 0 24 24">
      <path stroke-linecap="round" stroke-linejoin="round" stroke-width="2" d="M4 6h16M4 12h16M4 18h7" />
    </symbol>
    <symbol id="microphone" viewBox="0 0 24 24">
      <path stroke-linecap="round" stroke-linejoin="round" d="M19 11a7 7 0 01-7 7m0 0a7 7 0 01-7-7m7 7v4m0 0H8m4 0h4m-4-8a3 3 0 01-3-3V5a3 3 0 116 0v6a3 3 0 01-3 3z" />
    </symbol>
    <symbol id="paper-airplane" viewBox="0 0 24 24" stroke-width="1.5" stroke="currentColor">
     <path stroke-linecap="round" stroke-linejoin="round" d="M6 12L3.269 3.126A59.768 59.768 0 0121.485 12 59.77 59.77 0 013.27 20.876L5.999 12zm0 0h7.5" />
    </symbol>
    <symbol id="paper-clip" viewBox="0 0 24 24">
      <path  stroke="currentColor" stroke-width="2" stroke-linecap="round" stroke-linejoin="round" d="M15.172 7l-6.586 6.586a2 2 0 102.828 2.828l6.414-6.586a4 4 0 00-5.656-5.656l-6.415 6.585a6 6 0 108.486 8.486L20.5 13" />
    </symbol>
    <symbol id="pencil" viewBox="0 0 24 24">
      <path
        stroke-linecap="round"
        stroke-linejoin="round"
        stroke-width="2"
        d="M15.232 5.232l3.536 3.536m-2.036-5.036a2.5 2.5 0 113.536 3.536L6.5 21.036H3v-3.572L16.732 3.732z" />
    </symbol>
    <symbol id="pencil-alt" viewBox="0 0 24 24">
      <path
        stroke-linecap="round"
        stroke-linejoin="round"
        stroke-width="2"
        d="M11 5H6a2 2 0 00-2 2v11a2 2 0 002 2h11a2 2 0 002-2v-5m-1.414-9.414a2 2 0 112.828 2.828L11.828 15H9v-2.828l8.586-8.586z" />
    </symbol>
    <symbol id="phone" viewBox="0 0 24 24">
      <path
        stroke-linecap="round"
        stroke-linejoin="round"
        stroke-width="2"
        d="M3 5a2 2 0 012-2h3.28a1 1 0 01.948.684l1.498 4.493a1 1 0 01-.502 1.21l-2.257 1.13a11.042 11.042 0 005.516 5.516l1.13-2.257a1 1 0 011.21-.502l4.493 1.498a1 1 0 01.684.949V19a2 2 0 01-2 2h-1C9.716 21 3 14.284 3 6V5z" />
    </symbol>
    <symbol id="photograph" viewBox="0 0 24 24">
      <path
        stroke-linecap="round"
        stroke-linejoin="round"
        stroke-width="2"
        d="M4 16l4.586-4.586a2 2 0 012.828 0L16 16m-2-2l1.586-1.586a2 2 0 012.828 0L20 14m-6-6h.01M6 20h12a2 2 0 002-2V6a2 2 0 00-2-2H6a2 2 0 00-2 2v12a2 2 0 002 2z" />
    </symbol>
    <symbol id="play" viewBox="0 0 24 24">
      <path
        stroke-linecap="round"
        stroke-linejoin="round"
        stroke-width="2"
        d="M14.752 11.168l-3.197-2.132A1 1 0 0010 9.87v4.263a1 1 0 001.555.832l3.197-2.132a1 1 0 000-1.664z" />
      <path stroke-linecap="round" stroke-linejoin="round" stroke-width="2" d="M21 12a9 9 0 11-18 0 9 9 0 0118 0z" />
    </symbol>
    <symbol id="presentation-chart-line" viewBox="0 0 24 24">
      <path
        stroke-linecap="round"
        stroke-linejoin="round"
        stroke-width="2"
        d="M7 12l3-3 3 3 4-4M8 21l4-4 4 4M3 4h18M4 4h16v12a1 1 0 01-1 1H5a1 1 0 01-1-1V4z" />
    </symbol>
    <symbol id="qrcode" viewBox="0 0 24 24">
      <path stroke-linecap="round" stroke-linejoin="round" d="M12 4v1m6 11h2m-6 0h-2v4m0-11v3m0 0h.01M12 12h4.01M16 20h4M4 12h4m12 0h.01M5 8h2a1 1 0 001-1V5a1 1 0 00-1-1H5a1 1 0 00-1 1v2a1 1 0 001 1zm12 0h2a1 1 0 001-1V5a1 1 0 00-1-1h-2a1 1 0 00-1 1v2a1 1 0 001 1zM5 20h2a1 1 0 001-1v-2a1 1 0 00-1-1H5a1 1 0 00-1 1v2a1 1 0 001 1z" />
    </symbol>
    <symbol id="question-mark-circle" viewBox="0 0 24 24">
      <path stroke-linecap="round" stroke-linejoin="round" stroke-width="2" d="M8.228 9c.549-1.165 2.03-2 3.772-2 2.21 0 4 1.343 4 3 0 1.4-1.278 2.575-3.006 2.907-.542.104-.994.54-.994 1.093m0 3h.01M21 12a9 9 0 11-18 0 9 9 0 0118 0z" />
    </symbol>
    <symbol id="refresh" viewBox="0 0 24 24">
      <path
        stroke-linecap="round"
        stroke-linejoin="round"
        stroke-width="2"
        d="M4 4v5h.582m15.356 2A8.001 8.001 0 004.582 9m0 0H9m11 11v-5h-.581m0 0a8.003 8.003 0 01-15.357-2m15.357 2H15" />
    </symbol>
    <symbol id="receipt-refund" viewBox="0 0 24 24">
      <path
        stroke-linecap="round"
        stroke-linejoin="round"
        stroke-width="2"
        d="M16 15v-1a4 4 0 00-4-4H8m0 0l3 3m-3-3l3-3m9 14V5a2 2 0 00-2-2H6a2 2 0 00-2 2v16l4-2 4 2 4-2 4 2z" />
    </symbol>
    <symbol id="search" viewBox="0 0 24 24">
      <path stroke-linecap="round" stroke-linejoin="round" stroke-width="2" d="M21 21l-6-6m2-5a7 7 0 11-14 0 7 7 0 0114 0z" />
    </symbol>
    <symbol id="share" viewBox="0 0 24 24">
      <path stroke-linecap="round" stroke-linejoin="round" d="M8.684 13.342C8.886 12.938 9 12.482 9 12c0-.482-.114-.938-.316-1.342m0 2.684a3 3 0 110-2.684m0 2.684l6.632 3.316m-6.632-6l6.632-3.316m0 0a3 3 0 105.367-2.684 3 3 0 00-5.367 2.684zm0 9.316a3 3 0 105.368 2.684 3 3 0 00-5.368-2.684z" />
    </symbol>
    <symbol id="shopping-cart" viewBox="0 0 24 24">
      <path
        stroke-linecap="round"
        stroke-linejoin="round"
        stroke-width="2"
        d="M3 3h2l.4 2M7 13h10l4-8H5.4M7 13L5.4 5M7 13l-2.293 2.293c-.63.63-.184 1.707.707 1.707H17m0 0a2 2 0 100 4 2 2 0 000-4zm-8 2a2 2 0 11-4 0 2 2 0 014 0z" />
    </symbol>
    <symbol id="sparkles" viewBox="0 0 24 24">
      <path
        stroke-linecap="round"
        stroke-linejoin="round"
        stroke-width="2"
        d="M5 3v4M3 5h4M6 17v4m-2-2h4m5-16l2.286 6.857L21 12l-5.714 2.143L13 21l-2.286-6.857L5 12l5.714-2.143L13 3z" />
    </symbol>
    <symbol id="support" viewBox="0 0 24 24">
      <path
        stroke-linecap="round"
        stroke-linejoin="round"
        stroke-width="2"
        d="M18.364 5.636l-3.536 3.536m0 5.656l3.536 3.536M9.172 9.172L5.636 5.636m3.536 9.192l-3.536 3.536M21 12a9 9 0 11-18 0 9 9 0 0118 0zm-5 0a4 4 0 11-8 0 4 4 0 018 0z" />
    </symbol>
    <symbol id="switch-vertical" viewBox="0 0 24 24">
      <path
        stroke-linecap="round"
        stroke-linejoin="round"
        stroke-width="2"
        d="M7 16V4m0 0L3 8m4-4l4 4m6 0v12m0 0l4-4m-4 4l-4-4" />
    </symbol>
    <symbol id="terminal" viewBox="0 0 24 24">
      <path
        stroke-linecap="round"
        stroke-linejoin="round"
        stroke-width="2"
        d="M8 9l3 3-3 3m5 0h3M5 20h14a2 2 0 002-2V6a2 2 0 00-2-2H5a2 2 0 00-2 2v12a2 2 0 002 2z" />
    </symbol>
    <symbol id="thumb-down" viewBox="0 0 24 24">
      <path
        stroke-linecap="round"
        stroke-linejoin="round"
        stroke-width="2"
        d="M10 14H5.236a2 2 0 01-1.789-2.894l3.5-7A2 2 0 018.736 3h4.018a2 2 0 01.485.06l3.76.94m-7 10v5a2 2 0 002 2h.096c.5 0 .905-.405.905-.904 0-.715.211-1.413.608-2.008L17 13V4m-7 10h2m5-10h2a2 2 0 012 2v6a2 2 0 01-2 2h-2.5" />
    </symbol>
    <symbol id="thumb-up" viewBox="0 0 24 24">
      <path
        stroke-linecap="round"
        stroke-linejoin="round"
        stroke-width="2"
        d="M14 10h4.764a2 2 0 011.789 2.894l-3.5 7A2 2 0 0115.263 21h-4.017c-.163 0-.326-.02-.485-.06L7 20m7-10V5a2 2 0 00-2-2h-.095c-.5 0-.905.405-.905.905 0 .714-.211 1.412-.608 2.006L7 11v9m7-10h-2M7 20H5a2 2 0 01-2-2v-6a2 2 0 012-2h2.5" />
    </symbol>
    <symbol id="trash" viewBox="0 0 24 24">
      <path
        strokeLinecap="round"
        strokeLinejoin="round"
        d="M19 7l-.867 12.142A2 2 0 0116.138 21H7.862a2 2 0 01-1.995-1.858L5 7m5 4v6m4-6v6m1-10V4a1 1 0 00-1-1h-4a1 1 0 00-1 1v3M4 7h16" />
    </symbol>
    <symbol id="user-circle" viewBox="0 0 24 24">
      <path stroke-linecap="round" stroke-linejoin="round" stroke-width="2" d="M5.121 17.804A13.937 13.937 0 0112 16c2.5 0 4.847.655 6.879 1.804M15 10a3 3 0 11-6 0 3 3 0 016 0zm6 2a9 9 0 11-18 0 9 9 0 0118 0z" />
    </symbol>
    <symbol id="upload" viewBox="0 0 24 24">
      <path
        strokeLinecap="round"
        strokeLinejoin="round"
        stroke-width="2"
        d="M4 16v1a3 3 0 003 3h10a3 3 0 003-3v-1m-4-8l-4-4m0 0L8 8m4-4v12" />
    </symbol>
    <symbol id="video-camera" viewBox="0 0 24 24">
      <path stroke-linecap="round" stroke-linejoin="round" d="M15 10l4.553-2.276A1 1 0 0121 8.618v6.764a1 1 0 01-1.447.894L15 14M5 18h8a2 2 0 002-2V8a2 2 0 00-2-2H5a2 2 0 00-2 2v8a2 2 0 002 2z" />
    </symbol>
    <symbol id="view-grid" viewBox="0 0 24 24">
      <path
        stroke-linecap="round"
        stroke-linejoin="round"
        stroke-width="2"
        d="M4 6a2 2 0 012-2h2a2 2 0 012 2v2a2 2 0 01-2 2H6a2 2 0 01-2-2V6zM14 6a2 2 0 012-2h2a2 2 0 012 2v2a2 2 0 01-2 2h-2a2 2 0 01-2-2V6zM4 16a2 2 0 012-2h2a2 2 0 012 2v2a2 2 0 01-2 2H6a2 2 0 01-2-2v-2zM14 16a2 2 0 012-2h2a2 2 0 012 2v2a2 2 0 01-2 2h-2a2 2 0 01-2-2v-2z" />
    </symbol>
    <symbol id="view-grid-add" viewBox="0 0 24 24">
      <path stroke-linecap="round" stroke-linejoin="round" stroke-width="2" d="M17 14v6m-3-3h6M6 10h2a2 2 0 002-2V6a2 2 0 00-2-2H6a2 2 0 00-2 2v2a2 2 0 002 2zm10 0h2a2 2 0 002-2V6a2 2 0 00-2-2h-2a2 2 0 00-2 2v2a2 2 0 002 2zM6 20h2a2 2 0 002-2v-2a2 2 0 00-2-2H6a2 2 0 00-2 2v2a2 2 0 002 2z" />
    </symbol>
    <symbol id="x" viewBox="0 0 24 24">
      <path stroke-linecap="round" stroke-linejoin="round" stroke-width="2" d="M6 18L18 6M6 6l12 12" />
    </symbol>
    <symbol id="x-circle" viewBox="0 0 24 24">
      <path
        stroke-linecap="round"
        stroke-linejoin="round"
        stroke-width="2"
        d="M10 14l2-2m0 0l2-2m-2 2l-2-2m2 2l2 2m7-2a9 9 0 11-18 0 9 9 0 0118 0z" />
    </symbol>
  </g>

  <g fill="currentColor">
    <symbol id="solid/calendar" viewBox="0 0 20 20" fill="currentColor">
      <path fill-rule="evenodd" d="M6 2a1 1 0 00-1 1v1H4a2 2 0 00-2 2v10a2 2 0 002 2h12a2 2 0 002-2V6a2 2 0 00-2-2h-1V3a1 1 0 10-2 0v1H7V3a1 1 0 00-1-1zm0 5a1 1 0 000 2h8a1 1 0 100-2H6z" clip-rule="evenodd" />
    </symbol>
    <symbol id="solid/check-circle" viewBox="0 0 20 20">
      <path
        fill-rule="evenodd"
        d="M10 18a8 8 0 100-16 8 8 0 000 16zm3.707-9.293a1 1 0 00-1.414-1.414L9 10.586 7.707 9.293a1 1 0 00-1.414 1.414l2 2a1 1 0 001.414 0l4-4z"
        clip-rule="evenodd" />
    </symbol>
    <symbol id="solid/chevron-down" viewBox="0 0 20 20">
      <path
        fill-rule="evenodd"
        d="M5.293 7.293a1 1 0 011.414 0L10 10.586l3.293-3.293a1 1 0 111.414 1.414l-4 4a1 1 0 01-1.414 0l-4-4a1 1 0 010-1.414z"
        clip-rule="evenodd" />
    </symbol>
    <symbol id="solid/cog-6-tooth" viewBox="0 0 24 24" fill="currentColor">
      <path fill-rule="evenodd" d="M11.078 2.25c-.917 0-1.699.663-1.85 1.567L9.05 4.889c-.02.12-.115.26-.297.348a7.493 7.493 0 00-.986.57c-.166.115-.334.126-.45.083L6.3 5.508a1.875 1.875 0 00-2.282.819l-.922 1.597a1.875 1.875 0 00.432 2.385l.84.692c.095.078.17.229.154.43a7.598 7.598 0 000 1.139c.015.2-.059.352-.153.43l-.841.692a1.875 1.875 0 00-.432 2.385l.922 1.597a1.875 1.875 0 002.282.818l1.019-.382c.115-.043.283-.031.45.082.312.214.641.405.985.57.182.088.277.228.297.35l.178 1.071c.151.904.933 1.567 1.85 1.567h1.844c.916 0 1.699-.663 1.85-1.567l.178-1.072c.02-.12.114-.26.297-.349.344-.165.673-.356.985-.57.167-.114.335-.125.45-.082l1.02.382a1.875 1.875 0 002.28-.819l.923-1.597a1.875 1.875 0 00-.432-2.385l-.84-.692c-.095-.078-.17-.229-.154-.43a7.614 7.614 0 000-1.139c-.016-.2.059-.352.153-.43l.84-.692c.708-.582.891-1.59.433-2.385l-.922-1.597a1.875 1.875 0 00-2.282-.818l-1.02.382c-.114.043-.282.031-.449-.083a7.49 7.49 0 00-.985-.57c-.183-.087-.277-.227-.297-.348l-.179-1.072a1.875 1.875 0 00-1.85-1.567h-1.843zM12 15.75a3.75 3.75 0 100-7.5 3.75 3.75 0 000 7.5z" clip-rule="evenodd" />
    </symbol>
    <symbol id="solid/external-link" viewBox="0 0 20 20">
      <path d="M11 3a1 1 0 100 2h2.586l-6.293 6.293a1 1 0 101.414 1.414L15 6.414V9a1 1 0 102 0V4a1 1 0 00-1-1h-5z" />
      <path d="M5 5a2 2 0 00-2 2v8a2 2 0 002 2h8a2 2 0 002-2v-3a1 1 0 10-2 0v3H5V7h3a1 1 0 000-2H5z" />
    </symbol>
    <symbol id="solid/fire" viewBox="0 0 24 24" fill="currentColor">
      <path fill-rule="evenodd" d="M12.963 2.286a.75.75 0 00-1.071-.136 9.742 9.742 0 00-3.539 6.177A7.547 7.547 0 016.648 6.61a.75.75 0 00-1.152-.082A9 9 0 1015.68 4.534a7.46 7.46 0 01-2.717-2.248zM15.75 14.25a3.75 3.75 0 11-7.313-1.172c.628.465 1.35.81 2.133 1a5.99 5.99 0 011.925-3.545 3.75 3.75 0 013.255 3.717z" clip-rule="evenodd" />
    </symbol>
    <symbol id="solid/heart" viewBox="0 0 20 20">
      <path fill-rule="evenodd" d="M3.172 5.172a4 4 0 015.656 0L10 6.343l1.172-1.171a4 4 0 115.656 5.656L10 17.657l-6.828-6.829a4 4 0 010-5.656z" clip-rule="evenodd" />
    </symbol>
    <symbol id="solid/identification" viewBox="0 0 24 24" fill="currentColor">
      <path fill-rule="evenodd" d="M4.5 3.75a3 3 0 00-3 3v10.5a3 3 0 003 3h15a3 3 0 003-3V6.75a3 3 0 00-3-3h-15zm4.125 3a2.25 2.25 0 100 4.5 2.25 2.25 0 000-4.5zm-3.873 8.703a4.126 4.126 0 017.746 0 .75.75 0 01-.351.92 7.47 7.47 0 01-3.522.877 7.47 7.47 0 01-3.522-.877.75.75 0 01-.351-.92zM15 8.25a.75.75 0 000 1.5h3.75a.75.75 0 000-1.5H15zM14.25 12a.75.75 0 01.75-.75h3.75a.75.75 0 010 1.5H15a.75.75 0 01-.75-.75zm.75 2.25a.75.75 0 000 1.5h3.75a.75.75 0 000-1.5H15z" clip-rule="evenodd" />
    </symbol>
    <symbol id="solid/information-circle" viewBox="0 0 20 20">
      <path
        fill-rule="evenodd"
        d="M18 10a8 8 0 11-16 0 8 8 0 0116 0zm-7-4a1 1 0 11-2 0 1 1 0 012 0zM9 9a1 1 0 000 2v3a1 1 0 001 1h1a1 1 0 100-2v-3a1 1 0 00-1-1H9z"
        clip-rule="evenodd" />
    </symbol>
    <symbol id="solid/list-bullet" fill="none" viewBox="0 0 24 24" stroke-width="1.5" stroke="currentColor">
      <path stroke-linecap="round" stroke-linejoin="round" d="M8.25 6.75h12M8.25 12h12m-12 5.25h12M3.75 6.75h.007v.008H3.75V6.75zm.375 0a.375.375 0 11-.75 0 .375.375 0 01.75 0zM3.75 12h.007v.008H3.75V12zm.375 0a.375.375 0 11-.75 0 .375.375 0 01.75 0zm-.375 5.25h.007v.008H3.75v-.008zm.375 0a.375.375 0 11-.75 0 .375.375 0 01.75 0z" />
    </symbol>
    <symbol id="solid/lock" viewBox="0 0 13 15">
      <path
        fill-rule="evenodd"
        d="M10.022 2.31c-1.73-2.413-5.314-2.413-7.045 0-.819 1.2-.79 2.317-.755 3.626.007.27.014.55.014.84a.88.88 0 0 1-.187.063c-.149.037-.288.072-.555.42-.247.12-.494.482-.494.845v5.068c0 .604.742 1.328 1.483 1.328h8.034c.741 0 1.483-.724 1.483-1.328V8.103c0-.482-.37-.965-.742-1.206-.247 0-.37 0-.494-.121 0-.29.007-.57.014-.84.034-1.309.064-2.426-.755-3.626ZM5.326 11c-.865-1.328.866-2.776 2.102-1.69a1.237 1.237 0 0 1 0 1.931l-.074.07a.733.733 0 0 0-.15.17c-.05.094-.047.219-.038.562.006.205.014.487.014.888H5.82v-1.448c0-.053-.046-.083-.119-.13A1.165 1.165 0 0 1 5.326 11Zm-.865-4.224h4.078V4.603c0-1.086-.865-2.052-1.977-2.052-1.236 0-2.101.966-2.101 2.052v2.173Z"
        clip-rule="evenodd" />
    </symbol>
    <symbol id="solid/mail" viewBox="0 0 20 20" fill="currentColor">
      <path
        d="M2.003 5.884L10 9.882l7.997-3.998A2 2 0 0016 4H4a2 2 0 00-1.997 1.884z"
      />
      <path
        d="M18 8.118l-8 4-8-4V14a2 2 0 002 2h12a2 2 0 002-2V8.118z"
      />
    </symbol>
    <symbol id="solid/user-group" viewBox="0 0 20 20">
      <path
        d="M13 6a3 3 0 11-6 0 3 3 0 016 0zM18 8a2 2 0 11-4 0 2 2 0 014 0zM14 15a4 4 0 00-8 0v3h8v-3zM6 8a2 2 0 11-4 0 2 2 0 014 0zM16 18v-3a5.972 5.972 0 00-.75-2.906A3.005 3.005 0 0119 15v3h-3zM4.75 12.094A5.973 5.973 0 004 15v3H1v-3a3 3 0 013.75-2.906z" />
    </symbol>
    <symbol id="solid/plus-sm" viewBox="0 0 20 20">
      <path
        fill-rule="evenodd"
        d="M10 5a1 1 0 011 1v3h3a1 1 0 110 2h-3v3a1 1 0 11-2 0v-3H6a1 1 0 110-2h3V6a1 1 0 011-1z"
        clip-rule="evenodd" />
    </symbol>
    <symbol id="solid/minus-sm" viewBox="0 0 20 20">
      <path fill-rule="evenodd" d="M5 10a1 1 0 011-1h8a1 1 0 110 2H6a1 1 0 01-1-1z" clip-rule="evenodd" />
    </symbol>
    <symbol id="solid/selector" viewBox="0 0 20 20" fill="currentColor">
      <path
        fill-rule="evenodd"
        d="M10 3a1 1 0 01.707.293l3 3a1 1 0 01-1.414 1.414L10 5.414 7.707 7.707a1 1 0 01-1.414-1.414l3-3A1 1 0 0110 3zm-3.707 9.293a1 1 0 011.414 0L10 14.586l2.293-2.293a1 1 0 011.414 1.414l-3 3a1 1 0 01-1.414 0l-3-3a1 1 0 010-1.414z"
        clip-rule="evenodd"
      />
    </symbol>
    <symbol id="solid/table-cells" viewBox="0 0 24 24" fill="currentColor">
     <path fill-rule="evenodd" d="M1.5 5.625c0-1.036.84-1.875 1.875-1.875h17.25c1.035 0 1.875.84 1.875 1.875v12.75c0 1.035-.84 1.875-1.875 1.875H3.375A1.875 1.875 0 011.5 18.375V5.625zM21 9.375A.375.375 0 0020.625 9h-7.5a.375.375 0 00-.375.375v1.5c0 .207.168.375.375.375h7.5a.375.375 0 00.375-.375v-1.5zm0 3.75a.375.375 0 00-.375-.375h-7.5a.375.375 0 00-.375.375v1.5c0 .207.168.375.375.375h7.5a.375.375 0 00.375-.375v-1.5zm0 3.75a.375.375 0 00-.375-.375h-7.5a.375.375 0 00-.375.375v1.5c0 .207.168.375.375.375h7.5a.375.375 0 00.375-.375v-1.5zM10.875 18.75a.375.375 0 00.375-.375v-1.5a.375.375 0 00-.375-.375h-7.5a.375.375 0 00-.375.375v1.5c0 .207.168.375.375.375h7.5zM3.375 15h7.5a.375.375 0 00.375-.375v-1.5a.375.375 0 00-.375-.375h-7.5a.375.375 0 00-.375.375v1.5c0 .207.168.375.375.375zm0-3.75h7.5a.375.375 0 00.375-.375v-1.5A.375.375 0 0010.875 9h-7.5A.375.375 0 003 9.375v1.5c0 .207.168.375.375.375z" clip-rule="evenodd" />
    </symbol>
    <symbol id="solid/x" viewBox="0 0 20 20">
      <path
        fill-rule="evenodd"
        d="M4.293 4.293a1 1 0 011.414 0L10 8.586l4.293-4.293a1 1 0 111.414 1.414L11.414 10l4.293 4.293a1 1 0 01-1.414 1.414L10 11.414l-4.293 4.293a1 1 0 01-1.414-1.414L8.586 10 4.293 5.707a1 1 0 010-1.414z"
        clip-rule="evenodd" />
    </symbol>
    <symbol id="solid/x-circle" viewBox="0 0 20 20">
      <path
        fill-rule="evenodd"
        d="M10 18a8 8 0 100-16 8 8 0 000 16zM8.707 7.293a1 1 0 00-1.414 1.414L8.586 10l-1.293 1.293a1 1 0 101.414 1.414L10 11.414l1.293 1.293a1 1 0 001.414-1.414L11.414 10l1.293-1.293a1 1 0 00-1.414-1.414L10 8.586 8.707 7.293z"
        clip-rule="evenodd" />
    </symbol>
  </g>

  <g fill="none" stroke="currentColor">
    <symbol id="mini/arrows-right-left" viewBox="0 0 20 20" fill="currentColor" aria-hidden="true">
      <path fill-rule="evenodd" d="M13.2 2.24a.75.75 0 00.04 1.06l2.1 1.95H6.75a.75.75 0 000 1.5h8.59l-2.1 1.95a.75.75 0 101.02 1.1l3.5-3.25a.75.75 0 000-1.1l-3.5-3.25a.75.75 0 00-1.06.04zm-6.4 8a.75.75 0 00-1.06-.04l-3.5 3.25a.75.75 0 000 1.1l3.5 3.25a.75.75 0 101.02-1.1l-2.1-1.95h8.59a.75.75 0 000-1.5H4.66l2.1-1.95a.75.75 0 00.04-1.06z" clip-rule="evenodd" />
    </symbol>
    <symbol id="mini/chevron-right" viewBox="0 0 20 20" fill="currentColor" aria-hidden="true">
       <path fill-rule="evenodd" d="M7.21 14.77a.75.75 0 01.02-1.06L11.168 10 7.23 6.29a.75.75 0 111.04-1.08l4.5 4.25a.75.75 0 010 1.08l-4.5 4.25a.75.75 0 01-1.06-.02z" clip-rule="evenodd" />
    </symbol>
    <symbol id="mini/ellipsis-vertical" viewBox="0 0 20 20" fill="currentColor" aria-hidden="true">
      <path d="M10 3a1.5 1.5 0 110 3 1.5 1.5 0 010-3zM10 8.5a1.5 1.5 0 110 3 1.5 1.5 0 010-3zM11.5 15.5a1.5 1.5 0 10-3 0 1.5 1.5 0 003 0z" />
    </symbol>
    <symbol id="mini/exclamation-triangle" viewBox="0 0 20 20" fill="currentColor" aria-hidden="true">
      <path fill-rule="evenodd" d="M8.485 3.495c.673-1.167 2.357-1.167 3.03 0l6.28 10.875c.673 1.167-.17 2.625-1.516 2.625H3.72c-1.347 0-2.189-1.458-1.515-2.625L8.485 3.495zM10 6a.75.75 0 01.75.75v3.5a.75.75 0 01-1.5 0v-3.5A.75.75 0 0110 6zm0 9a1 1 0 100-2 1 1 0 000 2z" clip-rule="evenodd" />
    </symbol>
    <symbol id="mini/play" viewBox="0 0 20 20" fill="currentColor" aria-hidden="true">
     <path d="M6.3 2.841A1.5 1.5 0 004 4.11V15.89a1.5 1.5 0 002.3 1.269l9.344-5.89a1.5 1.5 0 000-2.538L6.3 2.84z" />
    </symbol>

    <symbol id="mini/plus" viewBox="0 0 20 20" fill="currentColor" aria-hidden="true">
      <path
        d="M10.75 4.75a.75.75 0 00-1.5 0v4.5h-4.5a.75.75 0 000 1.5h4.5v4.5a.75.75 0 001.5 0v-4.5h4.5a.75.75 0 000-1.5h-4.5v-4.5z"
      />
    </symbol>
    <symbol id="mini/queue-list" viewBox="0 0 20 20" fill="currentColor" aria-hidden="true">
      <path d="M2 4.5A2.5 2.5 0 014.5 2h11a2.5 2.5 0 010 5h-11A2.5 2.5 0 012 4.5zM2.75 9.083a.75.75 0 000 1.5h14.5a.75.75 0 000-1.5H2.75zM2.75 12.663a.75.75 0 000 1.5h14.5a.75.75 0 000-1.5H2.75zM2.75 16.25a.75.75 0 000 1.5h14.5a.75.75 0 100-1.5H2.75z" />
    </symbol>
    <symbol id="mini/trash" viewBox="0 0 20 20" fill="currentColor" aria-hidden="true">
      <path fill-rule="evenodd" d="M8.75 1A2.75 2.75 0 006 3.75v.443c-.795.077-1.584.176-2.365.298a.75.75 0 10.23 1.482l.149-.022.841 10.518A2.75 2.75 0 007.596 19h4.807a2.75 2.75 0 002.742-2.53l.841-10.52.149.023a.75.75 0 00.23-1.482A41.03 41.03 0 0014 4.193V3.75A2.75 2.75 0 0011.25 1h-2.5zM10 4c.84 0 1.673.025 2.5.075V3.75c0-.69-.56-1.25-1.25-1.25h-2.5c-.69 0-1.25.56-1.25 1.25v.325C8.327 4.025 9.16 4 10 4zM8.58 7.72a.75.75 0 00-1.5.06l.3 7.5a.75.75 0 101.5-.06l-.3-7.5zm4.34.06a.75.75 0 10-1.5-.06l-.3 7.5a.75.75 0 101.5.06l.3-7.5z" clip-rule="evenodd" />
    </symbol>
  </g>

  <g fill="none" stroke="currentColor">
    <symbol id="misc/spinner" viewBox="0 0 24 24">
      <circle style="opacity: 0.25" cx="12" cy="12" r="10" stroke="currentColor" stroke-width="4" />
      <path
        style="opacity: 0.75"
        fill="currentColor"
        d="M4 12a8 8 0 018-8V0C5.373 0 0 5.373 0 12h4zm2 5.291A7.962 7.962 0 014 12H0c0 3.042 1.135 5.824 3 7.938l3-2.647z" />
    </symbol>
    <symbol id="misc/spinner-2" viewBox="0 -256 1792 1792">
     <path
       d="M 496,192 Q 496,132 453.5,90 411,48 352,48 q -60,0 -102,42 -42,42 -42,102 0,60 42,102 42,42 102,42 59,0 101.5,-42 Q 496,252 496,192 z M 928,0 Q 928,-53 890.5,-90.5 853,-128 800,-128 747,-128 709.5,-90.5 672,-53 672,0 672,53 709.5,90.5 747,128 800,128 853,128 890.5,90.5 928,53 928,0 z M 320,640 Q 320,574 273,527 226,480 160,480 94,480 47,527 0,574 0,640 q 0,66 47,113 47,47 113,47 66,0 113,-47 47,-47 47,-113 z M 1360,192 q 0,-46 -33,-79 -33,-33 -79,-33 -46,0 -79,33 -33,33 -33,79 0,46 33,79 33,33 79,33 46,0 79,-33 33,-33 33,-79 z M 528,1088 Q 528,1015 476.5,963.5 425,912 352,912 279,912 227.5,963.5 176,1015 176,1088 q 0,73 51.5,124.5 51.5,51.5 124.5,51.5 73,0 124.5,-51.5 Q 528,1161 528,1088 z m 464,192 q 0,-80 -56,-136 -56,-56 -136,-56 -80,0 -136,56 -56,56 -56,136 0,80 56,136 56,56 136,56 80,0 136,-56 56,-56 56,-136 z m 544,-640 q 0,-40 -28,-68 -28,-28 -68,-28 -40,0 -68,28 -28,28 -28,68 0,40 28,68 28,28 68,28 40,0 68,-28 28,-28 28,-68 z m -208,448 q 0,-33 -23.5,-56.5 -23.5,-23.5 -56.5,-23.5 -33,0 -56.5,23.5 -23.5,23.5 -23.5,56.5 0,33 23.5,56.5 23.5,23.5 56.5,23.5 33,0 56.5,-23.5 23.5,-23.5 23.5,-56.5 z"
       fill="currentColor" />
    </symbol>
    <symbol id="misc/share-arrow" viewBox="0 0 18 18">
     <path
        d="M18 9l-6-6v4h-1.726A10.476 10.476 0 0 0 .213 15.767 16.931 16.931 0 0 1 12 11v4z"
        fill="currentColor"
     />
    </symbol>
    <symbol id="misc/play-button" viewBox="0 0 16 18">
      <path
        d="M15 7.26795C16.3333 8.03775 16.3333 9.96225 15 10.7321L3 17.6603C1.66667 18.4301 1.01267e-06 17.4678 1.07997e-06 15.9282L1.68565e-06 2.0718C1.75295e-06 0.532196 1.66667 -0.430054 3 0.339746L15 7.26795Z"
        fill="currentColor"
      />
    </symbol>
    <symbol id="misc/pause-button" viewBox="0 0 18 18">
      <path fill="currentColor" d="M8 18h-6v-18h6v18zm10-18h-6v18h6v-18z"/>
    </symbol>
  </g>

  <g fill="none" stroke="currentColor">
    <symbol id="brand/twitter" viewBox="0 0 512 512">
      <path
        d="M512 113.2c-18.8 8.4-39.1 14-60.3 16.5 21.7-13 38.3-33.6 46.2-58.1-20.3 12-42.8 20.8-66.7 25.5C412 76.7 384.7 64 354.5 64c-58 0-105 47-105 105 0 8.2.9 16.2 2.7 23.9-87.3-4.4-164.7-46.2-216.5-109.8-9 15.5-14.2 33.6-14.2 52.8 0 36.4 18.5 68.6 46.7 87.4-17.2-.5-33.4-5.3-47.6-13.1v1.3c0 50.9 36.2 93.4 84.3 103-8.8 2.4-18.1 3.7-27.7 3.7-6.8 0-13.3-.7-19.8-1.9 13.4 41.7 52.2 72.1 98.1 73-36 28.2-81.2 45-130.5 45-8.5 0-16.8-.5-25.1-1.5C46.5 462.7 101.7 480 161 480c193.2 0 298.9-160.1 298.9-298.9 0-4.6-.1-9.1-.3-13.6 20.5-14.7 38.3-33.2 52.4-54.3z" />
    </symbol>

    <symbol id="brand/instagram" viewBox="0 0 24 24">
      <!-- From https://simpleicons.org/?q=instagram -->
      <path d="M12 0C8.74 0 8.333.015 7.053.072 5.775.132 4.905.333 4.14.63c-.789.306-1.459.717-2.126 1.384S.935 3.35.63 4.14C.333 4.905.131 5.775.072 7.053.012 8.333 0 8.74 0 12s.015 3.667.072 4.947c.06 1.277.261 2.148.558 2.913.306.788.717 1.459 1.384 2.126.667.666 1.336 1.079 2.126 1.384.766.296 1.636.499 2.913.558C8.333 23.988 8.74 24 12 24s3.667-.015 4.947-.072c1.277-.06 2.148-.262 2.913-.558.788-.306 1.459-.718 2.126-1.384.666-.667 1.079-1.335 1.384-2.126.296-.765.499-1.636.558-2.913.06-1.28.072-1.687.072-4.947s-.015-3.667-.072-4.947c-.06-1.277-.262-2.149-.558-2.913-.306-.789-.718-1.459-1.384-2.126C21.319 1.347 20.651.935 19.86.63c-.765-.297-1.636-.499-2.913-.558C15.667.012 15.26 0 12 0zm0 2.16c3.203 0 3.585.016 4.85.071 1.17.055 1.805.249 2.227.415.562.217.96.477 1.382.896.419.42.679.819.896 1.381.164.422.36 1.057.413 2.227.057 1.266.07 1.646.07 4.85s-.015 3.585-.074 4.85c-.061 1.17-.256 1.805-.421 2.227-.224.562-.479.96-.899 1.382-.419.419-.824.679-1.38.896-.42.164-1.065.36-2.235.413-1.274.057-1.649.07-4.859.07-3.211 0-3.586-.015-4.859-.074-1.171-.061-1.816-.256-2.236-.421-.569-.224-.96-.479-1.379-.899-.421-.419-.69-.824-.9-1.38-.165-.42-.359-1.065-.42-2.235-.045-1.26-.061-1.649-.061-4.844 0-3.196.016-3.586.061-4.861.061-1.17.255-1.814.42-2.234.21-.57.479-.96.9-1.381.419-.419.81-.689 1.379-.898.42-.166 1.051-.361 2.221-.421 1.275-.045 1.65-.06 4.859-.06l.045.03zm0 3.678c-3.405 0-6.162 2.76-6.162 6.162 0 3.405 2.76 6.162 6.162 6.162 3.405 0 6.162-2.76 6.162-6.162 0-3.405-2.76-6.162-6.162-6.162zM12 16c-2.21 0-4-1.79-4-4s1.79-4 4-4 4 1.79 4 4-1.79 4-4 4zm7.846-10.405c0 .795-.646 1.44-1.44 1.44-.795 0-1.44-.646-1.44-1.44 0-.794.646-1.439 1.44-1.439.793-.001 1.44.645 1.44 1.439z"/>
    </symbol>
    <symbol id="brand/facebook" viewBox="0 0 24 24">
    <!-- https://simpleicons.org/?q=facebook -->
      <path d="M24 12.073c0-6.627-5.373-12-12-12s-12 5.373-12 12c0 5.99 4.388 10.954 10.125 11.854v-8.385H7.078v-3.47h3.047V9.43c0-3.007 1.792-4.669 4.533-4.669 1.312 0 2.686.235 2.686.235v2.953H15.83c-1.491 0-1.956.925-1.956 1.874v2.25h3.328l-.532 3.47h-2.796v8.385C19.612 23.027 24 18.062 24 12.073z"/>
    </symbol>
    <symbol id="brand/notion" viewBox="0 0 30 30">
      <!-- From https://www.notion.so/ -->
      <path
        fill-rule="evenodd"
        clip-rule="evenodd"
        d="M18.405.068l-16.6 1.226C.466 1.41 0 2.285 0 3.334v18.198c0 .817.29 1.516.99 2.45l3.902 5.074c.641.817 1.224.992 2.448.934l19.277-1.167c1.63-.116 2.097-.875 2.097-2.158V6.192c0-.663-.262-.854-1.033-1.42a85.473 85.473 0 01-.133-.096L22.25.943c-1.282-.932-1.806-1.05-3.845-.875zM7.776 5.857c-1.574.106-1.931.13-2.825-.597L2.678 3.452c-.231-.234-.115-.526.467-.584l15.958-1.166c1.34-.117 2.038.35 2.562.758l2.737 1.983c.117.059.408.408.058.408l-16.48.992-.204.014zM5.941 26.49V9.11c0-.759.233-1.109.931-1.168L25.8 6.834c.642-.058.932.35.932 1.108v17.264c0 .759-.117 1.401-1.165 1.459l-18.113 1.05c-1.048.058-1.513-.291-1.513-1.225zm17.88-16.448c.116.525 0 1.05-.525 1.11l-.873.173v12.832c-.758.408-1.456.641-2.039.641-.932 0-1.165-.292-1.863-1.166l-5.709-8.982v8.69l1.806.409s0 1.05-1.457 1.05l-4.017.233c-.117-.234 0-.817.407-.933l1.049-.291v-11.49L9.144 12.2c-.117-.525.174-1.283.99-1.342l4.31-.29 5.94 9.098v-8.049l-1.514-.174c-.117-.643.349-1.11.931-1.167l4.02-.234z"
        fill="#000" />
    </symbol>
    <symbol id="brand/nft" viewBox="0 0 41.6 48">
      <path d="M9.884,12.163l2.635-1.446V37.878l-1.865-1.073L6.807,22.372V34.588l-2.192-1.26V15.734L6.807,14.5c0,.164,2.13,7.053,3.054,10.035Zm4.874,26.882,2.471,1.634V25.511h9.21V22.454h-9.21V10.483L20.8,8.453l6.219,3.617,1.422-2.217L20.8,5.373,14.758,8.99ZM31.592,14.917v22l2.728-1.517V16.41L37.7,18.72V15.827L29.657,10.74,28.3,12.77ZM41.6,12.064V35.982L20.832,48,0,35.988V12.07L20.8,0Zm-2.47,1.307L20.8,2.754,2.47,13.377V34.588L20.832,45.2l18.3-10.618Z"
              fill="currentColor"
      />
    </symbol>
    <symbol id="brand/stripe" viewBox="0 0 53 22">
      <path
        d="M52.95 12.687h-7.157c.164 1.715 1.42 2.264 2.844 2.264 1.452 0 2.622-.325 3.591-.845v2.948c-.993.632-2.305.983-4.052.983-3.56 0-6.056-2.232-6.056-6.644 0-3.726 2.116-6.685 5.594-6.685C51.187 4.708 53 7.622 53 11.37c0 .354-.033 1.12-.05 1.318zm-5.259-4.996c-.914 0-1.93.647-1.93 2.295h3.78c0-1.646-.952-2.295-1.85-2.295zM36.358 18.037c-1.279 0-2.061-.54-2.586-.925l-.008 4.11-3.656.778V4.951h3.332l.077.905c.536-.47 1.43-1.148 2.863-1.148 2.568 0 4.986 2.315 4.986 6.574 0 4.649-2.392 6.755-5.008 6.755zm-.851-10.088c-.84 0-1.365.307-1.746.725l.021 5.436c.355.385.867.695 1.725.695 1.352 0 2.258-1.473 2.258-3.443 0-1.914-.92-3.413-2.258-3.413zm-10.44-2.998h3.67v12.825h-3.67V4.95zm0-4.17L28.737 0v2.983l-3.67.781V.781zm-3.832 8.3v8.695h-3.653V4.95h3.273l.117 1.082c.89-1.574 2.727-1.256 3.214-1.08v3.362c-.465-.15-2.032-.38-2.95.767zm-7.592 4.195c0 2.157 2.307 1.485 2.775 1.298v2.978c-.487.268-1.37.485-2.566.485-2.17 0-3.797-1.6-3.797-3.765l.016-11.706 3.569-.76.003 3.145h2.777v3.12h-2.777v5.205zm-4.357.624c0 2.634-2.05 4.137-5.09 4.137a9.94 9.94 0 0 1-3.955-.83v-3.494c1.227.668 2.747 1.169 3.958 1.169.815 0 1.359-.219 1.359-.895C5.558 12.241 0 12.898 0 8.848c0-2.59 2.02-4.14 4.986-4.14 1.211 0 2.422.186 3.633.67v3.445c-1.112-.6-2.524-.942-3.636-.942-.766 0-1.285.222-1.285.793 0 1.647 5.588.864 5.588 5.226z"
        fill="#666EE8"
        fill-rule="evenodd" />
    </symbol>
    <symbol id="brand/stripe-square" viewBox="0 0 24 24">
     <path
        d="M13.976 9.15c-2.172-.806-3.356-1.426-3.356-2.409 0-.831.683-1.305 1.901-1.305 2.227 0 4.515.858 6.09 1.631l.89-5.494C18.252.975 15.697 0 12.165 0 9.667 0 7.589.654 6.104 1.872 4.56 3.147 3.757 4.992 3.757 7.218c0 4.039 2.467 5.76 6.476 7.219 2.585.92 3.445 1.574 3.445 2.583 0 .98-.84 1.545-2.354 1.545-1.875 0-4.965-.921-6.99-2.109l-.9 5.555C5.175 22.99 8.385 24 11.714 24c2.641 0 4.843-.624 6.328-1.813 1.664-1.305 2.525-3.236 2.525-5.732 0-4.128-2.524-5.851-6.594-7.305h.003z"
        fill="currentColor"
     />
    </symbol>
    <symbol id="brand/unlock" viewBox="0 0 450 450">
      <path d="M340.03287,180.49207H325.069V124.88428H269.47281v55.60779H180.64664V124.88428H125.05v55.60779H109.967v26.42028H125.05v41.62574c0,52.08154,45.05225,94.57763,100.3291,94.57763,54.957,0,99.68994-42.49609,99.68994-94.57763V206.91235h14.96387Zm-70.56006,68.046c0,24.603-19.49072,44.73242-44.09375,44.73242a44.86368,44.86368,0,0,1-44.73242-44.73242V206.91235h88.82617Z" fill="currentColor" />
    </symbol>
    <symbol id="brand/unlock-square" viewBox="0 0 450 450">
      <rect width="450" height="450" style="fill: #ff6771"/>
      <path d="M340.03287,180.49207H325.069V124.88428H269.47281v55.60779H180.64664V124.88428H125.05v55.60779H109.967v26.42028H125.05v41.62574c0,52.08154,45.05225,94.57763,100.3291,94.57763,54.957,0,99.68994-42.49609,99.68994-94.57763V206.91235h14.96387Zm-70.56006,68.046c0,24.603-19.49072,44.73242-44.09375,44.73242a44.86368,44.86368,0,0,1-44.73242-44.73242V206.91235h88.82617Z" fill="currentColor" />
    </symbol>
    <symbol id="brand/webmon" viewBox="0 0 120 120" fill="#6ADAAB" stroke="#ffffff">
      <rect x="3" y="3" width="114" height="114" rx="57" stroke="#ffffff" stroke-width="6"/>
      <path d="M52.422 72.2525C52.422 70.4261 51.8607 68.9221 50.738 67.7404C49.6154 66.5372 47.7443 65.4628 45.1247 64.5175C42.5052 63.5506 40.4678 62.6589 39.0125 61.8424C34.1684 59.1567 31.7464 55.1817 31.7464 49.9176C31.7464 46.3509 32.7963 43.4181 34.896 41.1191C36.9958 38.8201 39.2204 37.5201 42.817 37.0904V30H48.4304V37.0904C52.0478 37.6276 54.8441 39.2175 56.8191 41.8603C58.7942 44.4816 59.7817 47.8979 59.7817 52.1092H52.2349C52.2349 49.402 51.6424 47.2748 50.4574 45.7278C49.2931 44.1594 47.7027 43.3751 45.6861 43.3751C43.6902 43.3751 42.131 43.9338 41.0083 45.051C39.8857 46.1683 39.3243 47.769 39.3243 49.8532C39.3243 51.7225 39.8753 53.2265 40.9771 54.3653C42.0998 55.4825 43.9917 56.5461 46.6528 57.556C49.3139 58.5658 51.4033 59.5004 52.921 60.3599C54.4387 61.2193 55.7173 62.2077 56.7568 63.325C57.7963 64.4208 58.5967 65.6885 59.158 67.128C59.7193 68.5676 60 70.2543 60 72.188C60 75.8192 58.9189 78.7628 56.7568 81.0188C54.6154 83.2748 52.0166 84.6392 48.1705 85.0475V90H42.817V85.0475C38.7006 84.5748 35.5301 83.0492 33.3056 80.4709C31.1019 77.8926 30 74.4763 30 70.222H37.578C37.578 72.9293 38.2328 75.0242 39.5426 76.5067C40.8732 77.9893 42.7443 78.7305 45.1559 78.7305C47.526 78.7305 49.3243 78.1397 50.5509 76.9579C51.7983 75.7762 52.422 74.2077 52.422 72.2525Z" fill="#ffffff"/>
      <rect x="70" y="55" width="5" height="15" fill="#ffffff" />
      <rect x="80" y="50" width="5" height="25" fill="#ffffff"/>
      <rect x="90" y="45" width="5" height="35" fill="#ffffff"/>
    </symbol>
    <symbol id="brand/google" viewBox="0 0 24 24">
      <g transform="matrix(1, 0, 0, 1, 27.009001, -39.238998)">
        <path fill="#4285F4" d="M -3.264 51.509 C -3.264 50.719 -3.334 49.969 -3.454 49.239 L -14.754 49.239 L -14.754 53.749 L -8.284 53.749 C -8.574 55.229 -9.424 56.479 -10.684 57.329 L -10.684 60.329 L -6.824 60.329 C -4.564 58.239 -3.264 55.159 -3.264 51.509 Z"/>
        <path fill="#34A853" d="M -14.754 63.239 C -11.514 63.239 -8.804 62.159 -6.824 60.329 L -10.684 57.329 C -11.764 58.049 -13.134 58.489 -14.754 58.489 C -17.884 58.489 -20.534 56.379 -21.484 53.529 L -25.464 53.529 L -25.464 56.619 C -23.494 60.539 -19.444 63.239 -14.754 63.239 Z"/>
        <path fill="#FBBC05" d="M -21.484 53.529 C -21.734 52.809 -21.864 52.039 -21.864 51.239 C -21.864 50.439 -21.724 49.669 -21.484 48.949 L -21.484 45.859 L -25.464 45.859 C -26.284 47.479 -26.754 49.299 -26.754 51.239 C -26.754 53.179 -26.284 54.999 -25.464 56.619 L -21.484 53.529 Z"/>
        <path fill="#EA4335" d="M -14.754 43.989 C -12.984 43.989 -11.404 44.599 -10.154 45.789 L -6.734 42.369 C -8.804 40.429 -11.514 39.239 -14.754 39.239 C -19.444 39.239 -23.494 41.939 -25.464 45.859 L -21.484 48.949 C -20.534 46.099 -17.884 43.989 -14.754 43.989 Z"/>
      </g>
    </symbol>
    <symbol id="brand/xrpl" viewBox="0 0 226.777 226.777" fill="currentColor" stroke="currentColor">
    <path d="M113.48,0.183C50.908,0.183,0.183,50.908,0.183,113.48c0,62.572,50.725,113.297,113.297,113.297
        c62.572,0,113.297-50.726,113.297-113.297C226.777,50.908,176.052,0.183,113.48,0.183z M160.899,163.96
        c-7.365,12.656-23.905,17.119-36.941,9.97c-13.037-7.149-17.635-23.205-10.268-35.862c3.068-5.272,1.153-11.96-4.28-14.941
        c-5.356-2.937-12.132-1.166-15.261,3.941h-0.002v-0.021c-0.044,0.078-0.083,0.155-0.128,0.232
        c-7.365,12.656-23.904,17.12-36.94,9.97c-13.038-7.149-17.636-23.207-10.271-35.86c7.367-12.657,23.905-17.12,36.944-9.969
        c4.357,2.39,7.765,5.779,10.107,9.7v-0.014l0.002-0.002c3.248,5.032,10.055,6.654,15.341,3.603c5.362-3.095,7.125-9.824,3.936-15.03
        c-7.651-12.494-3.42-28.645,9.451-36.072c12.869-7.428,29.506-3.321,37.159,9.172c7.651,12.495,3.422,28.645-9.451,36.073
        c-4.303,2.483-9.028,3.671-13.697,3.694l0.012,0.005v0.002c-6.175,0.207-11.081,5.161-11.007,11.191
        c0.073,6.11,5.239,11.008,11.533,10.936l-0.039,0.021c4.591-0.036,9.251,1.053,13.533,3.401
        C163.666,135.251,168.264,151.306,160.899,163.96z"/>

    </symbol>
  </g>
</svg>
