<svg width="684" height="174" viewBox="0 0 684 174" fill="none" xmlns="http://www.w3.org/2000/svg">
    <g clip-path="url(#clip0_104_458)">
        <path d="M99 89.25L99 0" stroke="#8F389D" stroke-width="14.25" />
        <path d="M99 5.3662e-07L99 18C99 42.8528 119.147 63 144 63V63" stroke="#8F389D" stroke-width="14.25" />
        <path d="M99 -5.3662e-07L99 18C99 42.8528 78.8528 63 54 63V63" stroke="#8F389D" stroke-width="14.25" />
    </g>
    <g clip-path="url(#clip1_104_458)">
        <path d="M207 89.25L207 0" stroke="#E5B0EB" stroke-width="14.25" />
        <path d="M207 5.3662e-07L207 18C207 42.8528 227.147 63 252 63V63" stroke="#E5B0EB" stroke-width="14.25" />
        <path d="M207 -5.3662e-07L207 18C207 42.8528 186.853 63 162 63V63" stroke="#E5B0EB" stroke-width="14.25" />
    </g>
    <g clip-path="url(#clip2_104_458)">
        <path d="M315 89.25L315 0" stroke="#8F389D" stroke-width="14.25" />
        <path d="M315 5.3662e-07L315 18C315 42.8528 335.147 63 360 63V63" stroke="#8F389D" stroke-width="14.25" />
        <path d="M315 -5.3662e-07L315 18C315 42.8528 294.853 63 270 63V63" stroke="#8F389D" stroke-width="14.25" />
    </g>
    <g clip-path="url(#clip3_104_458)">
        <path d="M423 89.25L423 0" stroke="#E5B0EB" stroke-width="14.25" />
        <path d="M423 5.3662e-07L423 18C423 42.8528 443.147 63 468 63V63" stroke="#E5B0EB" stroke-width="14.25" />
        <path d="M423 -5.3662e-07L423 18C423 42.8528 402.853 63 378 63V63" stroke="#E5B0EB" stroke-width="14.25" />
    </g>
    <g clip-path="url(#clip4_104_458)">
        <path d="M531 89.25L531 0" stroke="#8F389D" stroke-width="14.25" />
        <path d="M531 5.3662e-07L531 18C531 42.8528 551.147 63 576 63V63" stroke="#8F389D" stroke-width="14.25" />
        <path d="M531 -5.3662e-07L531 18C531 42.8528 510.853 63 486 63V63" stroke="#8F389D" stroke-width="14.25" />
    </g>
    <g clip-path="url(#clip5_104_458)">
        <path d="M639 89.25L639 0" stroke="#E5B0EB" stroke-width="14.25" />
        <path d="M639 5.3662e-07L639 18C639 42.8528 659.147 63 684 63V63" stroke="#E5B0EB" stroke-width="14.25" />
        <path d="M639 -5.3662e-07L639 18C639 42.8528 618.853 63 594 63V63" stroke="#E5B0EB" stroke-width="14.25" />
    </g>
    <g clip-path="url(#clip6_104_458)">
        <path d="M45 173.25L45 84" stroke="#8F389D" stroke-width="14.25" />
        <path d="M45 84L45 102C45 126.853 65.1472 147 90 147V147" stroke="#8F389D" stroke-width="14.25" />
        <path d="M45 84L45 102C45 126.853 24.8528 147 7.51267e-07 147V147" stroke="#8F389D" stroke-width="14.25" />
    </g>
    <g clip-path="url(#clip7_104_458)">
        <path d="M153 173.25L153 84" stroke="#E5B0EB" stroke-width="14.25" />
        <path d="M153 84L153 102C153 126.853 173.147 147 198 147V147" stroke="#E5B0EB" stroke-width="14.25" />
        <path d="M153 84L153 102C153 126.853 132.853 147 108 147V147" stroke="#E5B0EB" stroke-width="14.25" />
    </g>
    <g clip-path="url(#clip8_104_458)">
        <path d="M261 173.25L261 84" stroke="#8F389D" stroke-width="14.25" />
        <path d="M261 84L261 102C261 126.853 281.147 147 306 147V147" stroke="#8F389D" stroke-width="14.25" />
        <path d="M261 84L261 102C261 126.853 240.853 147 216 147V147" stroke="#8F389D" stroke-width="14.25" />
    </g>
    <g clip-path="url(#clip9_104_458)">
        <path d="M369 173.25L369 84" stroke="#E5B0EB" stroke-width="14.25" />
        <path d="M369 84L369 102C369 126.853 389.147 147 414 147V147" stroke="#E5B0EB" stroke-width="14.25" />
        <path d="M369 84L369 102C369 126.853 348.853 147 324 147V147" stroke="#E5B0EB" stroke-width="14.25" />
    </g>
    <g clip-path="url(#clip10_104_458)">
        <path d="M477 173.25L477 84" stroke="#8F389D" stroke-width="14.25" />
        <path d="M477 84L477 102C477 126.853 497.147 147 522 147V147" stroke="#8F389D" stroke-width="14.25" />
        <path d="M477 84L477 102C477 126.853 456.853 147 432 147V147" stroke="#8F389D" stroke-width="14.25" />
    </g>
    <g clip-path="url(#clip11_104_458)">
        <path d="M585 173.25L585 84" stroke="#E5B0EB" stroke-width="14.25" />
        <path d="M585 84L585 102C585 126.853 605.147 147 630 147V147" stroke="#E5B0EB" stroke-width="14.25" />
        <path d="M585 84L585 102C585 126.853 564.853 147 540 147V147" stroke="#E5B0EB" stroke-width="14.25" />
    </g>
    <defs>
        <clipPath id="clip0_104_458">
            <rect width="90" height="90" fill="white" transform="matrix(1.19249e-08 1 1 -1.19249e-08 54 0)" />
        </clipPath>
        <clipPath id="clip1_104_458">
            <rect width="90" height="90" fill="white" transform="matrix(1.19249e-08 1 1 -1.19249e-08 162 0)" />
        </clipPath>
        <clipPath id="clip2_104_458">
            <rect width="90" height="90" fill="white" transform="matrix(1.19249e-08 1 1 -1.19249e-08 270 0)" />
        </clipPath>
        <clipPath id="clip3_104_458">
            <rect width="90" height="90" fill="white" transform="matrix(1.19249e-08 1 1 -1.19249e-08 378 0)" />
        </clipPath>
        <clipPath id="clip4_104_458">
            <rect width="90" height="90" fill="white" transform="matrix(1.19249e-08 1 1 -1.19249e-08 486 0)" />
        </clipPath>
        <clipPath id="clip5_104_458">
            <rect width="90" height="90" fill="white" transform="matrix(1.19249e-08 1 1 -1.19249e-08 594 0)" />
        </clipPath>
        <clipPath id="clip6_104_458">
            <rect width="90" height="90" fill="white" transform="matrix(1.19249e-08 1 1 -1.19249e-08 0 84)" />
        </clipPath>
        <clipPath id="clip7_104_458">
            <rect width="90" height="90" fill="white" transform="matrix(1.19249e-08 1 1 -1.19249e-08 108 84)" />
        </clipPath>
        <clipPath id="clip8_104_458">
            <rect width="90" height="90" fill="white" transform="matrix(1.19249e-08 1 1 -1.19249e-08 216 84)" />
        </clipPath>
        <clipPath id="clip9_104_458">
            <rect width="90" height="90" fill="white" transform="matrix(1.19249e-08 1 1 -1.19249e-08 324 84)" />
        </clipPath>
        <clipPath id="clip10_104_458">
            <rect width="90" height="90" fill="white" transform="matrix(1.19249e-08 1 1 -1.19249e-08 432 84)" />
        </clipPath>
        <clipPath id="clip11_104_458">
            <rect width="90" height="90" fill="white" transform="matrix(1.19249e-08 1 1 -1.19249e-08 540 84)" />
        </clipPath>
    </defs>
</svg>