<svg width="656" height="120" viewBox="0 0 656 120" fill="none" xmlns="http://www.w3.org/2000/svg">
<g style="mix-blend-mode:multiply">
<path fill-rule="evenodd" clip-rule="evenodd" d="M92 120C94.2091 120 96.011 118.207 95.8966 116.001C93.817 75.8862 60.6322 44 20 44H4C1.79086 44 0 45.7909 0 48V72C0 74.2091 1.79086 76 4 76H20C42.9532 76 61.8014 93.5756 63.8209 116.003C64.019 118.203 65.7909 120 68 120H92Z" fill="#278B50"/>
</g>
<path fill-rule="evenodd" clip-rule="evenodd" d="M92 0C94.2091 0 96.011 1.7929 95.8966 3.99908C93.817 44.1138 60.6322 76 20 76H4C1.79086 76 0 74.2091 0 72V48C0 45.7909 1.79086 44 4 44H20C42.9532 44 61.8014 26.4244 63.8209 3.99702C64.019 1.79679 65.7909 0 68 0H92Z" fill="#389D61"/>
<g style="mix-blend-mode:multiply">
<path fill-rule="evenodd" clip-rule="evenodd" d="M116 120C113.791 120 111.989 118.207 112.103 116.001C114.183 75.8862 147.368 44 188 44H204C206.209 44 208 45.7909 208 48V72C208 74.2091 206.209 76 204 76H188C165.047 76 146.199 93.5756 144.179 116.003C143.981 118.203 142.209 120 140 120H116Z" fill="#278B50"/>
</g>
<path fill-rule="evenodd" clip-rule="evenodd" d="M116 0C113.791 0 111.989 1.7929 112.103 3.99908C114.183 44.1138 147.368 76 188 76H204C206.209 76 208 74.2091 208 72V48C208 45.7909 206.209 44 204 44H188C165.047 44 146.199 26.4244 144.179 3.99702C143.981 1.79679 142.209 0 140 0H116Z" fill="#389D61"/>
<g style="mix-blend-mode:multiply">
<path fill-rule="evenodd" clip-rule="evenodd" d="M316 120C318.209 120 320.011 118.207 319.897 116.001C317.817 75.8862 284.632 44 244 44H228C225.791 44 224 45.7909 224 48V72C224 74.2091 225.791 76 228 76H244C266.953 76 285.801 93.5756 287.821 116.003C288.019 118.203 289.791 120 292 120H316Z" fill="#278B50"/>
</g>
<path fill-rule="evenodd" clip-rule="evenodd" d="M316 0C318.209 0 320.011 1.7929 319.897 3.99908C317.817 44.1138 284.632 76 244 76H228C225.791 76 224 74.2091 224 72V48C224 45.7909 225.791 44 228 44H244C266.953 44 285.801 26.4244 287.821 3.99702C288.019 1.79679 289.791 0 292 0H316Z" fill="#389D61"/>
<g style="mix-blend-mode:multiply">
<path fill-rule="evenodd" clip-rule="evenodd" d="M340 120C337.791 120 335.989 118.207 336.103 116.001C338.183 75.8862 371.368 44 412 44H428C430.209 44 432 45.7909 432 48V72C432 74.2091 430.209 76 428 76H412C389.047 76 370.199 93.5756 368.179 116.003C367.981 118.203 366.209 120 364 120H340Z" fill="#278B50"/>
</g>
<path fill-rule="evenodd" clip-rule="evenodd" d="M340 0C337.791 0 335.989 1.7929 336.103 3.99908C338.183 44.1138 371.368 76 412 76H428C430.209 76 432 74.2091 432 72V48C432 45.7909 430.209 44 428 44H412C389.047 44 370.199 26.4244 368.179 3.99702C367.981 1.79679 366.209 0 364 0H340Z" fill="#389D61"/>
<g style="mix-blend-mode:multiply">
<path fill-rule="evenodd" clip-rule="evenodd" d="M540 120C542.209 120 544.011 118.207 543.897 116.001C541.817 75.8862 508.632 44 468 44H452C449.791 44 448 45.7909 448 48V72C448 74.2091 449.791 76 452 76H468C490.953 76 509.801 93.5756 511.821 116.003C512.019 118.203 513.791 120 516 120H540Z" fill="#278B50"/>
</g>
<path fill-rule="evenodd" clip-rule="evenodd" d="M540 0C542.209 0 544.011 1.7929 543.897 3.99908C541.817 44.1138 508.632 76 468 76H452C449.791 76 448 74.2091 448 72V48C448 45.7909 449.791 44 452 44H468C490.953 44 509.801 26.4244 511.821 3.99702C512.019 1.79679 513.791 0 516 0H540Z" fill="#389D61"/>
<g style="mix-blend-mode:multiply">
<path fill-rule="evenodd" clip-rule="evenodd" d="M564 120C561.791 120 559.989 118.207 560.103 116.001C562.183 75.8862 595.368 44 636 44H652C654.209 44 656 45.7909 656 48V72C656 74.2091 654.209 76 652 76H636C613.047 76 594.199 93.5756 592.179 116.003C591.981 118.203 590.209 120 588 120H564Z" fill="#278B50"/>
</g>
<path fill-rule="evenodd" clip-rule="evenodd" d="M564 0C561.791 0 559.989 1.7929 560.103 3.99908C562.183 44.1138 595.368 76 636 76H652C654.209 76 656 74.2091 656 72V48C656 45.7909 654.209 44 652 44H636C613.047 44 594.199 26.4244 592.179 3.99702C591.981 1.79679 590.209 0 588 0H564Z" fill="#389D61"/>
</svg>
