<svg width="304" height="220" viewBox="0 0 304 220" fill="none" xmlns="http://www.w3.org/2000/svg">
    <path fill-rule="evenodd" clip-rule="evenodd"
        d="M79.2388 195.697C63.9882 195.697 51.6251 183.334 51.6251 168.083L27.6133 168.083C27.6133 196.595 50.7268 219.709 79.2388 219.709L79.2388 195.697Z"
        fill="#389D61" />
    <path fill-rule="evenodd" clip-rule="evenodd"
        d="M84.0415 111.655C99.2921 111.655 111.655 99.2921 111.655 84.0415L135.667 84.0415C135.667 112.553 112.553 135.667 84.0415 135.667L84.0415 111.655Z"
        fill="white" />
    <path fill-rule="evenodd" clip-rule="evenodd"
        d="M84.0415 135.667C99.2921 135.667 111.655 148.03 111.655 163.281L135.667 163.281C135.667 134.769 112.553 111.655 84.0415 111.655L84.0415 135.667Z"
        fill="white" />
    <path fill-rule="evenodd" clip-rule="evenodd"
        d="M252.124 111.655C267.375 111.655 279.738 99.2921 279.738 84.0415L303.75 84.0415C303.75 112.553 280.636 135.667 252.124 135.667L252.124 111.655Z"
        fill="#389D61" />
    <path fill-rule="evenodd" clip-rule="evenodd"
        d="M252.124 135.667C267.375 135.667 279.738 148.03 279.738 163.281L303.75 163.281C303.75 134.769 280.636 111.655 252.124 111.655L252.124 135.667Z"
        fill="#389D61" />
    <path fill-rule="evenodd" clip-rule="evenodd"
        d="M168.083 27.6136C183.334 27.6136 195.697 15.2506 195.697 -1.04959e-06L219.709 0C219.709 28.512 196.595 51.6255 168.083 51.6255L168.083 27.6136Z"
        fill="#389D61" />
    <path fill-rule="evenodd" clip-rule="evenodd"
        d="M168.083 51.6255C183.334 51.6255 195.697 63.9885 195.697 79.2391L219.709 79.2391C219.709 50.7272 196.595 27.6136 168.083 27.6136L168.083 51.6255Z"
        fill="#389D61" />
    <path fill-rule="evenodd" clip-rule="evenodd"
        d="M79.2388 135.667C63.9882 135.667 51.6251 148.03 51.6251 163.281L27.6133 163.281C27.6133 134.769 50.7268 111.655 79.2388 111.655L79.2388 135.667Z"
        fill="#389D61" />
    <path fill-rule="evenodd" clip-rule="evenodd"
        d="M0.00047563 135.667C15.2511 135.667 27.6141 148.03 27.6141 163.281L51.626 163.281C51.626 134.769 28.5125 111.655 0.000474581 111.655L0.00047563 135.667Z"
        fill="#389D61" />
    <path fill-rule="evenodd" clip-rule="evenodd"
        d="M163.28 195.697C148.029 195.697 135.666 183.334 135.666 168.083L111.654 168.083C111.654 196.595 134.768 219.709 163.28 219.709L163.28 195.697Z"
        fill="#389D61" />
    <path fill-rule="evenodd" clip-rule="evenodd"
        d="M84.0415 195.697C99.2921 195.697 111.655 183.334 111.655 168.083L135.667 168.083C135.667 196.595 112.553 219.709 84.0415 219.709L84.0415 195.697Z"
        fill="#389D61" />
    <path fill-rule="evenodd" clip-rule="evenodd"
        d="M247.322 111.655C232.071 111.655 219.708 99.2921 219.708 84.0415L195.696 84.0415C195.696 112.553 218.81 135.667 247.322 135.667L247.322 111.655Z"
        fill="white" />
    <path fill-rule="evenodd" clip-rule="evenodd"
        d="M168.083 111.655C183.334 111.655 195.697 99.2921 195.697 84.0415L219.709 84.0415C219.709 112.553 196.595 135.667 168.083 135.667L168.083 111.655Z"
        fill="white" />
    <path fill-rule="evenodd" clip-rule="evenodd"
        d="M163.28 51.6255C148.029 51.6255 135.666 63.9885 135.666 79.2391L111.654 79.2391C111.654 50.7272 134.768 27.6136 163.28 27.6136L163.28 51.6255Z"
        fill="#EBFC6B" />
    <path fill-rule="evenodd" clip-rule="evenodd"
        d="M84.0415 51.6255C99.2921 51.6255 111.655 63.9885 111.655 79.2391L135.667 79.2391C135.667 50.7272 112.553 27.6136 84.0415 27.6136L84.0415 51.6255Z"
        fill="#EBFC6B" />
    <g opacity="0.2">
        <path fill-rule="evenodd" clip-rule="evenodd"
            d="M79.2388 51.6255C63.9882 51.6255 51.6251 63.9885 51.6251 79.2391L27.6133 79.2391C27.6133 50.7272 50.7268 27.6136 79.2388 27.6136L79.2388 51.6255Z"
            fill="white" />
        <path fill-rule="evenodd" clip-rule="evenodd"
            d="M0.00047563 51.6255C15.2511 51.6255 27.6141 63.9885 27.6141 79.2391L51.626 79.2391C51.626 50.7272 28.5125 27.6136 0.000474581 27.6136L0.00047563 51.6255Z"
            fill="white" />
    </g>
</svg>