<svg width="381" height="780" viewBox="0 0 381 780" fill="none" xmlns="http://www.w3.org/2000/svg">
<g opacity="0.4">
<g opacity="0.3">
<path fill-rule="evenodd" clip-rule="evenodd" d="M-2 60C-3.10457 60 -4.00548 59.1035 -3.9483 58.0005C-2.9085 37.9431 13.6839 22 34 22H42C43.1046 22 44 22.8954 44 24V36C44 37.1046 43.1046 38 42 38H34C22.5234 38 13.0993 46.7878 12.0896 58.0015C11.9905 59.1016 11.1046 60 10 60H-2Z" stroke="#2EB364"/>
<path fill-rule="evenodd" clip-rule="evenodd" d="M-2 0C-3.10457 0 -4.00548 0.896452 -3.9483 1.99954C-2.9085 22.0569 13.6839 38 34 38H42C43.1046 38 44 37.1046 44 36V24C44 22.8954 43.1046 22 42 22H34C22.5234 22 13.0993 13.2122 12.0896 1.99851C11.9905 0.898393 11.1046 0 10 0H-2Z" stroke="#2EB364"/>
</g>
<g opacity="0.3">
<path fill-rule="evenodd" clip-rule="evenodd" d="M42 108C43.1046 108 44.0055 107.104 43.9483 106C42.9085 85.9431 26.3161 70 6 70H-2C-3.10457 70 -4 70.8954 -4 72V84C-4 85.1046 -3.10457 86 -2 86H6C17.4766 86 26.9007 94.7878 27.9104 106.001C28.0095 107.102 28.8954 108 30 108H42Z" stroke="#2EB364"/>
<path fill-rule="evenodd" clip-rule="evenodd" d="M42 48C43.1046 48 44.0055 48.8965 43.9483 49.9995C42.9085 70.0569 26.3161 86 6 86H-2C-3.10457 86 -4 85.1046 -4 84V72C-4 70.8954 -3.10457 70 -2 70H6C17.4766 70 26.9007 61.2122 27.9104 49.9985C28.0095 48.8984 28.8954 48 30 48H42Z" stroke="#2EB364"/>
</g>
<g opacity="0.3">
<path fill-rule="evenodd" clip-rule="evenodd" d="M-2 156C-3.10457 156 -4.00548 155.104 -3.9483 154C-2.9085 133.943 13.6839 118 34 118H42C43.1046 118 44 118.895 44 120V132C44 133.105 43.1046 134 42 134H34C22.5234 134 13.0993 142.788 12.0896 154.001C11.9905 155.102 11.1046 156 10 156H-2Z" stroke="#2EB364"/>
<path fill-rule="evenodd" clip-rule="evenodd" d="M-2 96C-3.10457 96 -4.00548 96.8965 -3.9483 97.9995C-2.9085 118.057 13.6839 134 34 134H42C43.1046 134 44 133.105 44 132V120C44 118.895 43.1046 118 42 118H34C22.5234 118 13.0993 109.212 12.0896 97.9985C11.9905 96.8984 11.1046 96 10 96H-2Z" stroke="#2EB364"/>
</g>
<g opacity="0.3">
<path fill-rule="evenodd" clip-rule="evenodd" d="M42 204C43.1046 204 44.0055 203.104 43.9483 202C42.9085 181.943 26.3161 166 6 166H-2C-3.10457 166 -4 166.895 -4 168V180C-4 181.105 -3.10457 182 -2 182H6C17.4766 182 26.9007 190.788 27.9104 202.001C28.0095 203.102 28.8954 204 30 204H42Z" stroke="#2EB364"/>
<path fill-rule="evenodd" clip-rule="evenodd" d="M42 144C43.1046 144 44.0055 144.896 43.9483 146C42.9085 166.057 26.3161 182 6 182H-2C-3.10457 182 -4 181.105 -4 180V168C-4 166.895 -3.10457 166 -2 166H6C17.4766 166 26.9007 157.212 27.9104 145.999C28.0095 144.898 28.8954 144 30 144H42Z" stroke="#2EB364"/>
</g>
<g opacity="0.3">
<path fill-rule="evenodd" clip-rule="evenodd" d="M-2 252C-3.10457 252 -4.00548 251.104 -3.9483 250C-2.9085 229.943 13.6839 214 34 214H42C43.1046 214 44 214.895 44 216V228C44 229.105 43.1046 230 42 230H34C22.5234 230 13.0993 238.788 12.0896 250.001C11.9905 251.102 11.1046 252 10 252H-2Z" stroke="#2EB364"/>
<path fill-rule="evenodd" clip-rule="evenodd" d="M-2 192C-3.10457 192 -4.00548 192.896 -3.9483 194C-2.9085 214.057 13.6839 230 34 230H42C43.1046 230 44 229.105 44 228V216C44 214.895 43.1046 214 42 214H34C22.5234 214 13.0993 205.212 12.0896 193.999C11.9905 192.898 11.1046 192 10 192H-2Z" stroke="#2EB364"/>
</g>
<g opacity="0.3">
<path fill-rule="evenodd" clip-rule="evenodd" d="M42 300C43.1046 300 44.0055 299.104 43.9483 298C42.9085 277.943 26.3161 262 6 262H-2C-3.10457 262 -4 262.895 -4 264V276C-4 277.105 -3.10457 278 -2 278H6C17.4766 278 26.9007 286.788 27.9104 298.001C28.0095 299.102 28.8954 300 30 300H42Z" stroke="#2EB364"/>
<path fill-rule="evenodd" clip-rule="evenodd" d="M42 240C43.1046 240 44.0055 240.896 43.9483 242C42.9085 262.057 26.3161 278 6 278H-2C-3.10457 278 -4 277.105 -4 276V264C-4 262.895 -3.10457 262 -2 262H6C17.4766 262 26.9007 253.212 27.9104 241.999C28.0095 240.898 28.8954 240 30 240H42Z" stroke="#2EB364"/>
</g>
<g opacity="0.3">
<path fill-rule="evenodd" clip-rule="evenodd" d="M-2 348C-3.10457 348 -4.00548 347.104 -3.9483 346C-2.9085 325.943 13.6839 310 34 310H42C43.1046 310 44 310.895 44 312V324C44 325.105 43.1046 326 42 326H34C22.5234 326 13.0993 334.788 12.0896 346.001C11.9905 347.102 11.1046 348 10 348H-2Z" stroke="#2EB364"/>
<path fill-rule="evenodd" clip-rule="evenodd" d="M-2 288C-3.10457 288 -4.00548 288.896 -3.9483 290C-2.9085 310.057 13.6839 326 34 326H42C43.1046 326 44 325.105 44 324V312C44 310.895 43.1046 310 42 310H34C22.5234 310 13.0993 301.212 12.0896 289.999C11.9905 288.898 11.1046 288 10 288H-2Z" stroke="#2EB364"/>
</g>
<g opacity="0.3">
<path fill-rule="evenodd" clip-rule="evenodd" d="M42 396C43.1046 396 44.0055 395.104 43.9483 394C42.9085 373.943 26.3161 358 6 358H-2C-3.10457 358 -4 358.895 -4 360V372C-4 373.105 -3.10457 374 -2 374H6C17.4766 374 26.9007 382.788 27.9104 394.001C28.0095 395.102 28.8954 396 30 396H42Z" stroke="#2EB364"/>
<path fill-rule="evenodd" clip-rule="evenodd" d="M42 336C43.1046 336 44.0055 336.896 43.9483 338C42.9085 358.057 26.3161 374 6 374H-2C-3.10457 374 -4 373.105 -4 372V360C-4 358.895 -3.10457 358 -2 358H6C17.4766 358 26.9007 349.212 27.9104 337.999C28.0095 336.898 28.8954 336 30 336H42Z" stroke="#2EB364"/>
</g>
</g>
<g opacity="0.4">
<g opacity="0.3">
<path fill-rule="evenodd" clip-rule="evenodd" d="M-2 444C-3.10457 444 -4.00548 443.104 -3.9483 442C-2.9085 421.943 13.6839 406 34 406H42C43.1046 406 44 406.895 44 408V420C44 421.105 43.1046 422 42 422H34C22.5234 422 13.0993 430.788 12.0896 442.001C11.9905 443.102 11.1046 444 10 444H-2Z" stroke="#2EB364"/>
<path fill-rule="evenodd" clip-rule="evenodd" d="M-2 384C-3.10457 384 -4.00548 384.896 -3.9483 386C-2.9085 406.057 13.6839 422 34 422H42C43.1046 422 44 421.105 44 420V408C44 406.895 43.1046 406 42 406H34C22.5234 406 13.0993 397.212 12.0896 385.999C11.9905 384.898 11.1046 384 10 384H-2Z" stroke="#2EB364"/>
</g>
<g opacity="0.3">
<path fill-rule="evenodd" clip-rule="evenodd" d="M42 492C43.1046 492 44.0055 491.104 43.9483 490C42.9085 469.943 26.3161 454 6 454H-2C-3.10457 454 -4 454.895 -4 456V468C-4 469.105 -3.10457 470 -2 470H6C17.4766 470 26.9007 478.788 27.9104 490.001C28.0095 491.102 28.8954 492 30 492H42Z" stroke="#2EB364"/>
<path fill-rule="evenodd" clip-rule="evenodd" d="M42 432C43.1046 432 44.0055 432.896 43.9483 434C42.9085 454.057 26.3161 470 6 470H-2C-3.10457 470 -4 469.105 -4 468V456C-4 454.895 -3.10457 454 -2 454H6C17.4766 454 26.9007 445.212 27.9104 433.999C28.0095 432.898 28.8954 432 30 432H42Z" stroke="#2EB364"/>
</g>
<g opacity="0.3">
<path fill-rule="evenodd" clip-rule="evenodd" d="M-2 540C-3.10457 540 -4.00548 539.104 -3.9483 538C-2.9085 517.943 13.6839 502 34 502H42C43.1046 502 44 502.895 44 504V516C44 517.105 43.1046 518 42 518H34C22.5234 518 13.0993 526.788 12.0896 538.001C11.9905 539.102 11.1046 540 10 540H-2Z" stroke="#2EB364"/>
<path fill-rule="evenodd" clip-rule="evenodd" d="M-2 480C-3.10457 480 -4.00548 480.896 -3.9483 482C-2.9085 502.057 13.6839 518 34 518H42C43.1046 518 44 517.105 44 516V504C44 502.895 43.1046 502 42 502H34C22.5234 502 13.0993 493.212 12.0896 481.999C11.9905 480.898 11.1046 480 10 480H-2Z" stroke="#2EB364"/>
</g>
<g opacity="0.3">
<path fill-rule="evenodd" clip-rule="evenodd" d="M42 588C43.1046 588 44.0055 587.104 43.9483 586C42.9085 565.943 26.3161 550 6 550H-2C-3.10457 550 -4 550.895 -4 552V564C-4 565.105 -3.10457 566 -2 566H6C17.4766 566 26.9007 574.788 27.9104 586.001C28.0095 587.102 28.8954 588 30 588H42Z" stroke="#2EB364"/>
<path fill-rule="evenodd" clip-rule="evenodd" d="M42 528C43.1046 528 44.0055 528.896 43.9483 530C42.9085 550.057 26.3161 566 6 566H-2C-3.10457 566 -4 565.105 -4 564V552C-4 550.895 -3.10457 550 -2 550H6C17.4766 550 26.9007 541.212 27.9104 529.999C28.0095 528.898 28.8954 528 30 528H42Z" stroke="#2EB364"/>
</g>
<g opacity="0.3">
<path fill-rule="evenodd" clip-rule="evenodd" d="M-2 636C-3.10457 636 -4.00548 635.104 -3.9483 634C-2.9085 613.943 13.6839 598 34 598H42C43.1046 598 44 598.895 44 600V612C44 613.105 43.1046 614 42 614H34C22.5234 614 13.0993 622.788 12.0896 634.001C11.9905 635.102 11.1046 636 10 636H-2Z" stroke="#2EB364"/>
<path fill-rule="evenodd" clip-rule="evenodd" d="M-2 576C-3.10457 576 -4.00548 576.896 -3.9483 578C-2.9085 598.057 13.6839 614 34 614H42C43.1046 614 44 613.105 44 612V600C44 598.895 43.1046 598 42 598H34C22.5234 598 13.0993 589.212 12.0896 577.999C11.9905 576.898 11.1046 576 10 576H-2Z" stroke="#2EB364"/>
</g>
<g opacity="0.3">
<path fill-rule="evenodd" clip-rule="evenodd" d="M42 684C43.1046 684 44.0055 683.104 43.9483 682C42.9085 661.943 26.3161 646 6 646H-2C-3.10457 646 -4 646.895 -4 648V660C-4 661.105 -3.10457 662 -2 662H6C17.4766 662 26.9007 670.788 27.9104 682.001C28.0095 683.102 28.8954 684 30 684H42Z" stroke="#2EB364"/>
<path fill-rule="evenodd" clip-rule="evenodd" d="M42 624C43.1046 624 44.0055 624.896 43.9483 626C42.9085 646.057 26.3161 662 6 662H-2C-3.10457 662 -4 661.105 -4 660V648C-4 646.895 -3.10457 646 -2 646H6C17.4766 646 26.9007 637.212 27.9104 625.999C28.0095 624.898 28.8954 624 30 624H42Z" stroke="#2EB364"/>
</g>
<g opacity="0.3">
<path fill-rule="evenodd" clip-rule="evenodd" d="M-2 732C-3.10457 732 -4.00548 731.104 -3.9483 730C-2.9085 709.943 13.6839 694 34 694H42C43.1046 694 44 694.895 44 696V708C44 709.105 43.1046 710 42 710H34C22.5234 710 13.0993 718.788 12.0896 730.001C11.9905 731.102 11.1046 732 10 732H-2Z" stroke="#2EB364"/>
<path fill-rule="evenodd" clip-rule="evenodd" d="M-2 672C-3.10457 672 -4.00548 672.896 -3.9483 674C-2.9085 694.057 13.6839 710 34 710H42C43.1046 710 44 709.105 44 708V696C44 694.895 43.1046 694 42 694H34C22.5234 694 13.0993 685.212 12.0896 673.999C11.9905 672.898 11.1046 672 10 672H-2Z" stroke="#2EB364"/>
</g>
<g opacity="0.3">
<path fill-rule="evenodd" clip-rule="evenodd" d="M42 780C43.1046 780 44.0055 779.104 43.9483 778C42.9085 757.943 26.3161 742 6 742H-2C-3.10457 742 -4 742.895 -4 744V756C-4 757.105 -3.10457 758 -2 758H6C17.4766 758 26.9007 766.788 27.9104 778.001C28.0095 779.102 28.8954 780 30 780H42Z" stroke="#2EB364"/>
<path fill-rule="evenodd" clip-rule="evenodd" d="M42 720C43.1046 720 44.0055 720.896 43.9483 722C42.9085 742.057 26.3161 758 6 758H-2C-3.10457 758 -4 757.105 -4 756V744C-4 742.895 -3.10457 742 -2 742H6C17.4766 742 26.9007 733.212 27.9104 721.999C28.0095 720.898 28.8954 720 30 720H42Z" stroke="#2EB364"/>
</g>
</g>
<g opacity="0.4">
<g opacity="0.3">
<path fill-rule="evenodd" clip-rule="evenodd" d="M98 60C99.1046 60 100.005 59.1035 99.9483 58.0005C98.9085 37.9431 82.3161 22 62 22H54C52.8954 22 52 22.8954 52 24V36C52 37.1046 52.8954 38 54 38H62C73.4766 38 82.9007 46.7878 83.9104 58.0015C84.0095 59.1016 84.8954 60 86 60H98Z" stroke="#2EB364"/>
<path fill-rule="evenodd" clip-rule="evenodd" d="M98 0C99.1046 0 100.005 0.896452 99.9483 1.99954C98.9085 22.0569 82.3161 38 62 38H54C52.8954 38 52 37.1046 52 36V24C52 22.8954 52.8954 22 54 22H62C73.4766 22 82.9007 13.2122 83.9104 1.99851C84.0095 0.898393 84.8954 0 86 0H98Z" stroke="#2EB364"/>
</g>
<g opacity="0.3">
<path fill-rule="evenodd" clip-rule="evenodd" d="M110 60C108.895 60 107.995 59.1035 108.052 58.0005C109.092 37.9431 125.684 22 146 22H154C155.105 22 156 22.8954 156 24V36C156 37.1046 155.105 38 154 38H146C134.523 38 125.099 46.7878 124.09 58.0015C123.99 59.1016 123.105 60 122 60H110Z" stroke="#2EB364"/>
<path fill-rule="evenodd" clip-rule="evenodd" d="M110 0C108.895 0 107.995 0.896452 108.052 1.99954C109.092 22.0569 125.684 38 146 38H154C155.105 38 156 37.1046 156 36V24C156 22.8954 155.105 22 154 22H146C134.523 22 125.099 13.2122 124.09 1.99851C123.99 0.898393 123.105 0 122 0H110Z" stroke="#2EB364"/>
</g>
<g opacity="0.3">
<path fill-rule="evenodd" clip-rule="evenodd" d="M210 60C211.105 60 212.005 59.1035 211.948 58.0005C210.908 37.9431 194.316 22 174 22H166C164.895 22 164 22.8954 164 24V36C164 37.1046 164.895 38 166 38H174C185.477 38 194.901 46.7878 195.91 58.0015C196.01 59.1016 196.895 60 198 60H210Z" stroke="#2EB364"/>
<path fill-rule="evenodd" clip-rule="evenodd" d="M210 0C211.105 0 212.005 0.896452 211.948 1.99954C210.908 22.0569 194.316 38 174 38H166C164.895 38 164 37.1046 164 36V24C164 22.8954 164.895 22 166 22H174C185.477 22 194.901 13.2122 195.91 1.99851C196.01 0.898393 196.895 0 198 0H210Z" stroke="#2EB364"/>
</g>
<g opacity="0.3">
<path fill-rule="evenodd" clip-rule="evenodd" d="M222 60C220.895 60 219.995 59.1035 220.052 58.0005C221.092 37.9431 237.684 22 258 22H266C267.105 22 268 22.8954 268 24V36C268 37.1046 267.105 38 266 38H258C246.523 38 237.099 46.7878 236.09 58.0015C235.99 59.1016 235.105 60 234 60H222Z" stroke="#2EB364"/>
<path fill-rule="evenodd" clip-rule="evenodd" d="M222 0C220.895 0 219.995 0.896452 220.052 1.99954C221.092 22.0569 237.684 38 258 38H266C267.105 38 268 37.1046 268 36V24C268 22.8954 267.105 22 266 22H258C246.523 22 237.099 13.2122 236.09 1.99851C235.99 0.898393 235.105 0 234 0H222Z" stroke="#2EB364"/>
</g>
<g opacity="0.3">
<path fill-rule="evenodd" clip-rule="evenodd" d="M322 60C323.105 60 324.005 59.1035 323.948 58.0005C322.908 37.9431 306.316 22 286 22H278C276.895 22 276 22.8954 276 24V36C276 37.1046 276.895 38 278 38H286C297.477 38 306.901 46.7878 307.91 58.0015C308.01 59.1016 308.895 60 310 60H322Z" stroke="#2EB364"/>
<path fill-rule="evenodd" clip-rule="evenodd" d="M322 0C323.105 0 324.005 0.896452 323.948 1.99954C322.908 22.0569 306.316 38 286 38H278C276.895 38 276 37.1046 276 36V24C276 22.8954 276.895 22 278 22H286C297.477 22 306.901 13.2122 307.91 1.99851C308.01 0.898393 308.895 0 310 0H322Z" stroke="#2EB364"/>
</g>
<g opacity="0.3">
<path fill-rule="evenodd" clip-rule="evenodd" d="M334 60C332.895 60 331.995 59.1035 332.052 58.0005C333.092 37.9431 349.684 22 370 22H378C379.105 22 380 22.8954 380 24V36C380 37.1046 379.105 38 378 38H370C358.523 38 349.099 46.7878 348.09 58.0015C347.99 59.1016 347.105 60 346 60H334Z" stroke="#2EB364"/>
<path fill-rule="evenodd" clip-rule="evenodd" d="M334 0C332.895 0 331.995 0.896452 332.052 1.99954C333.092 22.0569 349.684 38 370 38H378C379.105 38 380 37.1046 380 36V24C380 22.8954 379.105 22 378 22H370C358.523 22 349.099 13.2122 348.09 1.99851C347.99 0.898393 347.105 0 346 0H334Z" stroke="#2EB364"/>
</g>
<g opacity="0.3">
<path fill-rule="evenodd" clip-rule="evenodd" d="M54 108C52.8954 108 51.9945 107.104 52.0517 106C53.0915 85.9431 69.6839 70 90 70H98C99.1046 70 100 70.8954 100 72V84C100 85.1046 99.1046 86 98 86H90C78.5234 86 69.0993 94.7878 68.0896 106.001C67.9905 107.102 67.1046 108 66 108H54Z" stroke="#2EB364"/>
<path fill-rule="evenodd" clip-rule="evenodd" d="M54 48C52.8954 48 51.9945 48.8965 52.0517 49.9995C53.0915 70.0569 69.6839 86 90 86H98C99.1046 86 100 85.1046 100 84V72C100 70.8954 99.1046 70 98 70H90C78.5234 70 69.0993 61.2122 68.0896 49.9985C67.9905 48.8984 67.1046 48 66 48H54Z" stroke="#2EB364"/>
</g>
<g opacity="0.3">
<path fill-rule="evenodd" clip-rule="evenodd" d="M154 108C155.105 108 156.005 107.104 155.948 106C154.908 85.9431 138.316 70 118 70H110C108.895 70 108 70.8954 108 72V84C108 85.1046 108.895 86 110 86H118C129.477 86 138.901 94.7878 139.91 106.001C140.01 107.102 140.895 108 142 108H154Z" stroke="#2EB364"/>
<path fill-rule="evenodd" clip-rule="evenodd" d="M154 48C155.105 48 156.005 48.8965 155.948 49.9995C154.908 70.0569 138.316 86 118 86H110C108.895 86 108 85.1046 108 84V72C108 70.8954 108.895 70 110 70H118C129.477 70 138.901 61.2122 139.91 49.9985C140.01 48.8984 140.895 48 142 48H154Z" stroke="#2EB364"/>
</g>
<g opacity="0.3">
<path fill-rule="evenodd" clip-rule="evenodd" d="M166 108C164.895 108 163.995 107.104 164.052 106C165.092 85.9431 181.684 70 202 70H210C211.105 70 212 70.8954 212 72V84C212 85.1046 211.105 86 210 86H202C190.523 86 181.099 94.7878 180.09 106.001C179.99 107.102 179.105 108 178 108H166Z" stroke="#2EB364"/>
<path fill-rule="evenodd" clip-rule="evenodd" d="M166 48C164.895 48 163.995 48.8965 164.052 49.9995C165.092 70.0569 181.684 86 202 86H210C211.105 86 212 85.1046 212 84V72C212 70.8954 211.105 70 210 70H202C190.523 70 181.099 61.2122 180.09 49.9985C179.99 48.8984 179.105 48 178 48H166Z" stroke="#2EB364"/>
</g>
<g opacity="0.3">
<path fill-rule="evenodd" clip-rule="evenodd" d="M266 108C267.105 108 268.005 107.104 267.948 106C266.908 85.9431 250.316 70 230 70H222C220.895 70 220 70.8954 220 72V84C220 85.1046 220.895 86 222 86H230C241.477 86 250.901 94.7878 251.91 106.001C252.01 107.102 252.895 108 254 108H266Z" stroke="#2EB364"/>
<path fill-rule="evenodd" clip-rule="evenodd" d="M266 48C267.105 48 268.005 48.8965 267.948 49.9995C266.908 70.0569 250.316 86 230 86H222C220.895 86 220 85.1046 220 84V72C220 70.8954 220.895 70 222 70H230C241.477 70 250.901 61.2122 251.91 49.9985C252.01 48.8984 252.895 48 254 48H266Z" stroke="#2EB364"/>
</g>
<g opacity="0.3">
<path fill-rule="evenodd" clip-rule="evenodd" d="M278 108C276.895 108 275.995 107.104 276.052 106C277.092 85.9431 293.684 70 314 70H322C323.105 70 324 70.8954 324 72V84C324 85.1046 323.105 86 322 86H314C302.523 86 293.099 94.7878 292.09 106.001C291.99 107.102 291.105 108 290 108H278Z" stroke="#2EB364"/>
<path fill-rule="evenodd" clip-rule="evenodd" d="M278 48C276.895 48 275.995 48.8965 276.052 49.9995C277.092 70.0569 293.684 86 314 86H322C323.105 86 324 85.1046 324 84V72C324 70.8954 323.105 70 322 70H314C302.523 70 293.099 61.2122 292.09 49.9985C291.99 48.8984 291.105 48 290 48H278Z" stroke="#2EB364"/>
</g>
<g opacity="0.3">
<path fill-rule="evenodd" clip-rule="evenodd" d="M378 108C379.105 108 380.005 107.104 379.948 106C378.908 85.9431 362.316 70 342 70H334C332.895 70 332 70.8954 332 72V84C332 85.1046 332.895 86 334 86H342C353.477 86 362.901 94.7878 363.91 106.001C364.01 107.102 364.895 108 366 108H378Z" stroke="#2EB364"/>
<path fill-rule="evenodd" clip-rule="evenodd" d="M378 48C379.105 48 380.005 48.8965 379.948 49.9995C378.908 70.0569 362.316 86 342 86H334C332.895 86 332 85.1046 332 84V72C332 70.8954 332.895 70 334 70H342C353.477 70 362.901 61.2122 363.91 49.9985C364.01 48.8984 364.895 48 366 48H378Z" stroke="#2EB364"/>
</g>
<g opacity="0.3">
<path fill-rule="evenodd" clip-rule="evenodd" d="M98 156C99.1046 156 100.005 155.104 99.9483 154C98.9085 133.943 82.3161 118 62 118H54C52.8954 118 52 118.895 52 120V132C52 133.105 52.8954 134 54 134H62C73.4766 134 82.9007 142.788 83.9104 154.001C84.0095 155.102 84.8954 156 86 156H98Z" stroke="#2EB364"/>
<path fill-rule="evenodd" clip-rule="evenodd" d="M98 96C99.1046 96 100.005 96.8965 99.9483 97.9995C98.9085 118.057 82.3161 134 62 134H54C52.8954 134 52 133.105 52 132V120C52 118.895 52.8954 118 54 118H62C73.4766 118 82.9007 109.212 83.9104 97.9985C84.0095 96.8984 84.8954 96 86 96H98Z" stroke="#2EB364"/>
</g>
<g opacity="0.3">
<path fill-rule="evenodd" clip-rule="evenodd" d="M110 156C108.895 156 107.995 155.104 108.052 154C109.092 133.943 125.684 118 146 118H154C155.105 118 156 118.895 156 120V132C156 133.105 155.105 134 154 134H146C134.523 134 125.099 142.788 124.09 154.001C123.99 155.102 123.105 156 122 156H110Z" stroke="#2EB364"/>
<path fill-rule="evenodd" clip-rule="evenodd" d="M110 96C108.895 96 107.995 96.8965 108.052 97.9995C109.092 118.057 125.684 134 146 134H154C155.105 134 156 133.105 156 132V120C156 118.895 155.105 118 154 118H146C134.523 118 125.099 109.212 124.09 97.9985C123.99 96.8984 123.105 96 122 96H110Z" stroke="#2EB364"/>
</g>
<g opacity="0.3">
<path fill-rule="evenodd" clip-rule="evenodd" d="M210 156C211.105 156 212.005 155.104 211.948 154C210.908 133.943 194.316 118 174 118H166C164.895 118 164 118.895 164 120V132C164 133.105 164.895 134 166 134H174C185.477 134 194.901 142.788 195.91 154.001C196.01 155.102 196.895 156 198 156H210Z" stroke="#2EB364"/>
<path fill-rule="evenodd" clip-rule="evenodd" d="M210 96C211.105 96 212.005 96.8965 211.948 97.9995C210.908 118.057 194.316 134 174 134H166C164.895 134 164 133.105 164 132V120C164 118.895 164.895 118 166 118H174C185.477 118 194.901 109.212 195.91 97.9985C196.01 96.8984 196.895 96 198 96H210Z" stroke="#2EB364"/>
</g>
<g opacity="0.3">
<path fill-rule="evenodd" clip-rule="evenodd" d="M222 156C220.895 156 219.995 155.104 220.052 154C221.092 133.943 237.684 118 258 118H266C267.105 118 268 118.895 268 120V132C268 133.105 267.105 134 266 134H258C246.523 134 237.099 142.788 236.09 154.001C235.99 155.102 235.105 156 234 156H222Z" stroke="#2EB364"/>
<path fill-rule="evenodd" clip-rule="evenodd" d="M222 96C220.895 96 219.995 96.8965 220.052 97.9995C221.092 118.057 237.684 134 258 134H266C267.105 134 268 133.105 268 132V120C268 118.895 267.105 118 266 118H258C246.523 118 237.099 109.212 236.09 97.9985C235.99 96.8984 235.105 96 234 96H222Z" stroke="#2EB364"/>
</g>
<g opacity="0.3">
<path fill-rule="evenodd" clip-rule="evenodd" d="M322 156C323.105 156 324.005 155.104 323.948 154C322.908 133.943 306.316 118 286 118H278C276.895 118 276 118.895 276 120V132C276 133.105 276.895 134 278 134H286C297.477 134 306.901 142.788 307.91 154.001C308.01 155.102 308.895 156 310 156H322Z" stroke="#2EB364"/>
<path fill-rule="evenodd" clip-rule="evenodd" d="M322 96C323.105 96 324.005 96.8965 323.948 97.9995C322.908 118.057 306.316 134 286 134H278C276.895 134 276 133.105 276 132V120C276 118.895 276.895 118 278 118H286C297.477 118 306.901 109.212 307.91 97.9985C308.01 96.8984 308.895 96 310 96H322Z" stroke="#2EB364"/>
</g>
<g opacity="0.3">
<path fill-rule="evenodd" clip-rule="evenodd" d="M334 156C332.895 156 331.995 155.104 332.052 154C333.092 133.943 349.684 118 370 118H378C379.105 118 380 118.895 380 120V132C380 133.105 379.105 134 378 134H370C358.523 134 349.099 142.788 348.09 154.001C347.99 155.102 347.105 156 346 156H334Z" stroke="#2EB364"/>
<path fill-rule="evenodd" clip-rule="evenodd" d="M334 96C332.895 96 331.995 96.8965 332.052 97.9995C333.092 118.057 349.684 134 370 134H378C379.105 134 380 133.105 380 132V120C380 118.895 379.105 118 378 118H370C358.523 118 349.099 109.212 348.09 97.9985C347.99 96.8984 347.105 96 346 96H334Z" stroke="#2EB364"/>
</g>
<g opacity="0.3">
<path fill-rule="evenodd" clip-rule="evenodd" d="M54 204C52.8954 204 51.9945 203.104 52.0517 202C53.0915 181.943 69.6839 166 90 166H98C99.1046 166 100 166.895 100 168V180C100 181.105 99.1046 182 98 182H90C78.5234 182 69.0993 190.788 68.0896 202.001C67.9905 203.102 67.1046 204 66 204H54Z" stroke="#2EB364"/>
<path fill-rule="evenodd" clip-rule="evenodd" d="M54 144C52.8954 144 51.9945 144.896 52.0517 146C53.0915 166.057 69.6839 182 90 182H98C99.1046 182 100 181.105 100 180V168C100 166.895 99.1046 166 98 166H90C78.5234 166 69.0993 157.212 68.0896 145.999C67.9905 144.898 67.1046 144 66 144H54Z" stroke="#2EB364"/>
</g>
<g opacity="0.3">
<path fill-rule="evenodd" clip-rule="evenodd" d="M154 204C155.105 204 156.005 203.104 155.948 202C154.908 181.943 138.316 166 118 166H110C108.895 166 108 166.895 108 168V180C108 181.105 108.895 182 110 182H118C129.477 182 138.901 190.788 139.91 202.001C140.01 203.102 140.895 204 142 204H154Z" stroke="#2EB364"/>
<path fill-rule="evenodd" clip-rule="evenodd" d="M154 144C155.105 144 156.005 144.896 155.948 146C154.908 166.057 138.316 182 118 182H110C108.895 182 108 181.105 108 180V168C108 166.895 108.895 166 110 166H118C129.477 166 138.901 157.212 139.91 145.999C140.01 144.898 140.895 144 142 144H154Z" stroke="#2EB364"/>
</g>
<g opacity="0.3">
<path fill-rule="evenodd" clip-rule="evenodd" d="M166 204C164.895 204 163.995 203.104 164.052 202C165.092 181.943 181.684 166 202 166H210C211.105 166 212 166.895 212 168V180C212 181.105 211.105 182 210 182H202C190.523 182 181.099 190.788 180.09 202.001C179.99 203.102 179.105 204 178 204H166Z" stroke="#2EB364"/>
<path fill-rule="evenodd" clip-rule="evenodd" d="M166 144C164.895 144 163.995 144.896 164.052 146C165.092 166.057 181.684 182 202 182H210C211.105 182 212 181.105 212 180V168C212 166.895 211.105 166 210 166H202C190.523 166 181.099 157.212 180.09 145.999C179.99 144.898 179.105 144 178 144H166Z" stroke="#2EB364"/>
</g>
<g opacity="0.3">
<path fill-rule="evenodd" clip-rule="evenodd" d="M266 204C267.105 204 268.005 203.104 267.948 202C266.908 181.943 250.316 166 230 166H222C220.895 166 220 166.895 220 168V180C220 181.105 220.895 182 222 182H230C241.477 182 250.901 190.788 251.91 202.001C252.01 203.102 252.895 204 254 204H266Z" stroke="#2EB364"/>
<path fill-rule="evenodd" clip-rule="evenodd" d="M266 144C267.105 144 268.005 144.896 267.948 146C266.908 166.057 250.316 182 230 182H222C220.895 182 220 181.105 220 180V168C220 166.895 220.895 166 222 166H230C241.477 166 250.901 157.212 251.91 145.999C252.01 144.898 252.895 144 254 144H266Z" stroke="#2EB364"/>
</g>
<g opacity="0.3">
<path fill-rule="evenodd" clip-rule="evenodd" d="M278 204C276.895 204 275.995 203.104 276.052 202C277.092 181.943 293.684 166 314 166H322C323.105 166 324 166.895 324 168V180C324 181.105 323.105 182 322 182H314C302.523 182 293.099 190.788 292.09 202.001C291.99 203.102 291.105 204 290 204H278Z" stroke="#2EB364"/>
<path fill-rule="evenodd" clip-rule="evenodd" d="M278 144C276.895 144 275.995 144.896 276.052 146C277.092 166.057 293.684 182 314 182H322C323.105 182 324 181.105 324 180V168C324 166.895 323.105 166 322 166H314C302.523 166 293.099 157.212 292.09 145.999C291.99 144.898 291.105 144 290 144H278Z" stroke="#2EB364"/>
</g>
<g opacity="0.3">
<path fill-rule="evenodd" clip-rule="evenodd" d="M378 204C379.105 204 380.005 203.104 379.948 202C378.908 181.943 362.316 166 342 166H334C332.895 166 332 166.895 332 168V180C332 181.105 332.895 182 334 182H342C353.477 182 362.901 190.788 363.91 202.001C364.01 203.102 364.895 204 366 204H378Z" stroke="#2EB364"/>
<path fill-rule="evenodd" clip-rule="evenodd" d="M378 144C379.105 144 380.005 144.896 379.948 146C378.908 166.057 362.316 182 342 182H334C332.895 182 332 181.105 332 180V168C332 166.895 332.895 166 334 166H342C353.477 166 362.901 157.212 363.91 145.999C364.01 144.898 364.895 144 366 144H378Z" stroke="#2EB364"/>
</g>
<g opacity="0.3">
<path fill-rule="evenodd" clip-rule="evenodd" d="M98 252C99.1046 252 100.005 251.104 99.9483 250C98.9085 229.943 82.3161 214 62 214H54C52.8954 214 52 214.895 52 216V228C52 229.105 52.8954 230 54 230H62C73.4766 230 82.9007 238.788 83.9104 250.001C84.0095 251.102 84.8954 252 86 252H98Z" stroke="#2EB364"/>
<path fill-rule="evenodd" clip-rule="evenodd" d="M98 192C99.1046 192 100.005 192.896 99.9483 194C98.9085 214.057 82.3161 230 62 230H54C52.8954 230 52 229.105 52 228V216C52 214.895 52.8954 214 54 214H62C73.4766 214 82.9007 205.212 83.9104 193.999C84.0095 192.898 84.8954 192 86 192H98Z" stroke="#2EB364"/>
</g>
<g opacity="0.3">
<path fill-rule="evenodd" clip-rule="evenodd" d="M110 252C108.895 252 107.995 251.104 108.052 250C109.092 229.943 125.684 214 146 214H154C155.105 214 156 214.895 156 216V228C156 229.105 155.105 230 154 230H146C134.523 230 125.099 238.788 124.09 250.001C123.99 251.102 123.105 252 122 252H110Z" stroke="#2EB364"/>
<path fill-rule="evenodd" clip-rule="evenodd" d="M110 192C108.895 192 107.995 192.896 108.052 194C109.092 214.057 125.684 230 146 230H154C155.105 230 156 229.105 156 228V216C156 214.895 155.105 214 154 214H146C134.523 214 125.099 205.212 124.09 193.999C123.99 192.898 123.105 192 122 192H110Z" stroke="#2EB364"/>
</g>
<g opacity="0.3">
<path fill-rule="evenodd" clip-rule="evenodd" d="M210 252C211.105 252 212.005 251.104 211.948 250C210.908 229.943 194.316 214 174 214H166C164.895 214 164 214.895 164 216V228C164 229.105 164.895 230 166 230H174C185.477 230 194.901 238.788 195.91 250.001C196.01 251.102 196.895 252 198 252H210Z" stroke="#2EB364"/>
<path fill-rule="evenodd" clip-rule="evenodd" d="M210 192C211.105 192 212.005 192.896 211.948 194C210.908 214.057 194.316 230 174 230H166C164.895 230 164 229.105 164 228V216C164 214.895 164.895 214 166 214H174C185.477 214 194.901 205.212 195.91 193.999C196.01 192.898 196.895 192 198 192H210Z" stroke="#2EB364"/>
</g>
<g opacity="0.3">
<path fill-rule="evenodd" clip-rule="evenodd" d="M222 252C220.895 252 219.995 251.104 220.052 250C221.092 229.943 237.684 214 258 214H266C267.105 214 268 214.895 268 216V228C268 229.105 267.105 230 266 230H258C246.523 230 237.099 238.788 236.09 250.001C235.99 251.102 235.105 252 234 252H222Z" stroke="#2EB364"/>
<path fill-rule="evenodd" clip-rule="evenodd" d="M222 192C220.895 192 219.995 192.896 220.052 194C221.092 214.057 237.684 230 258 230H266C267.105 230 268 229.105 268 228V216C268 214.895 267.105 214 266 214H258C246.523 214 237.099 205.212 236.09 193.999C235.99 192.898 235.105 192 234 192H222Z" stroke="#2EB364"/>
</g>
<g opacity="0.3">
<path fill-rule="evenodd" clip-rule="evenodd" d="M322 252C323.105 252 324.005 251.104 323.948 250C322.908 229.943 306.316 214 286 214H278C276.895 214 276 214.895 276 216V228C276 229.105 276.895 230 278 230H286C297.477 230 306.901 238.788 307.91 250.001C308.01 251.102 308.895 252 310 252H322Z" stroke="#2EB364"/>
<path fill-rule="evenodd" clip-rule="evenodd" d="M322 192C323.105 192 324.005 192.896 323.948 194C322.908 214.057 306.316 230 286 230H278C276.895 230 276 229.105 276 228V216C276 214.895 276.895 214 278 214H286C297.477 214 306.901 205.212 307.91 193.999C308.01 192.898 308.895 192 310 192H322Z" stroke="#2EB364"/>
</g>
<g opacity="0.3">
<path fill-rule="evenodd" clip-rule="evenodd" d="M334 252C332.895 252 331.995 251.104 332.052 250C333.092 229.943 349.684 214 370 214H378C379.105 214 380 214.895 380 216V228C380 229.105 379.105 230 378 230H370C358.523 230 349.099 238.788 348.09 250.001C347.99 251.102 347.105 252 346 252H334Z" stroke="#2EB364"/>
<path fill-rule="evenodd" clip-rule="evenodd" d="M334 192C332.895 192 331.995 192.896 332.052 194C333.092 214.057 349.684 230 370 230H378C379.105 230 380 229.105 380 228V216C380 214.895 379.105 214 378 214H370C358.523 214 349.099 205.212 348.09 193.999C347.99 192.898 347.105 192 346 192H334Z" stroke="#2EB364"/>
</g>
<g opacity="0.3">
<path fill-rule="evenodd" clip-rule="evenodd" d="M54 300C52.8954 300 51.9945 299.104 52.0517 298C53.0915 277.943 69.6839 262 90 262H98C99.1046 262 100 262.895 100 264V276C100 277.105 99.1046 278 98 278H90C78.5234 278 69.0993 286.788 68.0896 298.001C67.9905 299.102 67.1046 300 66 300H54Z" stroke="#2EB364"/>
<path fill-rule="evenodd" clip-rule="evenodd" d="M54 240C52.8954 240 51.9945 240.896 52.0517 242C53.0915 262.057 69.6839 278 90 278H98C99.1046 278 100 277.105 100 276V264C100 262.895 99.1046 262 98 262H90C78.5234 262 69.0993 253.212 68.0896 241.999C67.9905 240.898 67.1046 240 66 240H54Z" stroke="#2EB364"/>
</g>
<g opacity="0.3">
<path fill-rule="evenodd" clip-rule="evenodd" d="M154 300C155.105 300 156.005 299.104 155.948 298C154.908 277.943 138.316 262 118 262H110C108.895 262 108 262.895 108 264V276C108 277.105 108.895 278 110 278H118C129.477 278 138.901 286.788 139.91 298.001C140.01 299.102 140.895 300 142 300H154Z" stroke="#2EB364"/>
<path fill-rule="evenodd" clip-rule="evenodd" d="M154 240C155.105 240 156.005 240.896 155.948 242C154.908 262.057 138.316 278 118 278H110C108.895 278 108 277.105 108 276V264C108 262.895 108.895 262 110 262H118C129.477 262 138.901 253.212 139.91 241.999C140.01 240.898 140.895 240 142 240H154Z" stroke="#2EB364"/>
</g>
<g opacity="0.3">
<path fill-rule="evenodd" clip-rule="evenodd" d="M166 300C164.895 300 163.995 299.104 164.052 298C165.092 277.943 181.684 262 202 262H210C211.105 262 212 262.895 212 264V276C212 277.105 211.105 278 210 278H202C190.523 278 181.099 286.788 180.09 298.001C179.99 299.102 179.105 300 178 300H166Z" stroke="#2EB364"/>
<path fill-rule="evenodd" clip-rule="evenodd" d="M166 240C164.895 240 163.995 240.896 164.052 242C165.092 262.057 181.684 278 202 278H210C211.105 278 212 277.105 212 276V264C212 262.895 211.105 262 210 262H202C190.523 262 181.099 253.212 180.09 241.999C179.99 240.898 179.105 240 178 240H166Z" stroke="#2EB364"/>
</g>
<g opacity="0.3">
<path fill-rule="evenodd" clip-rule="evenodd" d="M266 300C267.105 300 268.005 299.104 267.948 298C266.908 277.943 250.316 262 230 262H222C220.895 262 220 262.895 220 264V276C220 277.105 220.895 278 222 278H230C241.477 278 250.901 286.788 251.91 298.001C252.01 299.102 252.895 300 254 300H266Z" stroke="#2EB364"/>
<path fill-rule="evenodd" clip-rule="evenodd" d="M266 240C267.105 240 268.005 240.896 267.948 242C266.908 262.057 250.316 278 230 278H222C220.895 278 220 277.105 220 276V264C220 262.895 220.895 262 222 262H230C241.477 262 250.901 253.212 251.91 241.999C252.01 240.898 252.895 240 254 240H266Z" stroke="#2EB364"/>
</g>
<g opacity="0.3">
<path fill-rule="evenodd" clip-rule="evenodd" d="M278 300C276.895 300 275.995 299.104 276.052 298C277.092 277.943 293.684 262 314 262H322C323.105 262 324 262.895 324 264V276C324 277.105 323.105 278 322 278H314C302.523 278 293.099 286.788 292.09 298.001C291.99 299.102 291.105 300 290 300H278Z" stroke="#2EB364"/>
<path fill-rule="evenodd" clip-rule="evenodd" d="M278 240C276.895 240 275.995 240.896 276.052 242C277.092 262.057 293.684 278 314 278H322C323.105 278 324 277.105 324 276V264C324 262.895 323.105 262 322 262H314C302.523 262 293.099 253.212 292.09 241.999C291.99 240.898 291.105 240 290 240H278Z" stroke="#2EB364"/>
</g>
<g opacity="0.3">
<path fill-rule="evenodd" clip-rule="evenodd" d="M378 300C379.105 300 380.005 299.104 379.948 298C378.908 277.943 362.316 262 342 262H334C332.895 262 332 262.895 332 264V276C332 277.105 332.895 278 334 278H342C353.477 278 362.901 286.788 363.91 298.001C364.01 299.102 364.895 300 366 300H378Z" stroke="#2EB364"/>
<path fill-rule="evenodd" clip-rule="evenodd" d="M378 240C379.105 240 380.005 240.896 379.948 242C378.908 262.057 362.316 278 342 278H334C332.895 278 332 277.105 332 276V264C332 262.895 332.895 262 334 262H342C353.477 262 362.901 253.212 363.91 241.999C364.01 240.898 364.895 240 366 240H378Z" stroke="#2EB364"/>
</g>
<g opacity="0.3">
<path fill-rule="evenodd" clip-rule="evenodd" d="M98 348C99.1046 348 100.005 347.104 99.9483 346C98.9085 325.943 82.3161 310 62 310H54C52.8954 310 52 310.895 52 312V324C52 325.105 52.8954 326 54 326H62C73.4766 326 82.9007 334.788 83.9104 346.001C84.0095 347.102 84.8954 348 86 348H98Z" stroke="#2EB364"/>
<path fill-rule="evenodd" clip-rule="evenodd" d="M98 288C99.1046 288 100.005 288.896 99.9483 290C98.9085 310.057 82.3161 326 62 326H54C52.8954 326 52 325.105 52 324V312C52 310.895 52.8954 310 54 310H62C73.4766 310 82.9007 301.212 83.9104 289.999C84.0095 288.898 84.8954 288 86 288H98Z" stroke="#2EB364"/>
</g>
<g opacity="0.3">
<path fill-rule="evenodd" clip-rule="evenodd" d="M110 348C108.895 348 107.995 347.104 108.052 346C109.092 325.943 125.684 310 146 310H154C155.105 310 156 310.895 156 312V324C156 325.105 155.105 326 154 326H146C134.523 326 125.099 334.788 124.09 346.001C123.99 347.102 123.105 348 122 348H110Z" stroke="#2EB364"/>
<path fill-rule="evenodd" clip-rule="evenodd" d="M110 288C108.895 288 107.995 288.896 108.052 290C109.092 310.057 125.684 326 146 326H154C155.105 326 156 325.105 156 324V312C156 310.895 155.105 310 154 310H146C134.523 310 125.099 301.212 124.09 289.999C123.99 288.898 123.105 288 122 288H110Z" stroke="#2EB364"/>
</g>
<g opacity="0.3">
<path fill-rule="evenodd" clip-rule="evenodd" d="M210 348C211.105 348 212.005 347.104 211.948 346C210.908 325.943 194.316 310 174 310H166C164.895 310 164 310.895 164 312V324C164 325.105 164.895 326 166 326H174C185.477 326 194.901 334.788 195.91 346.001C196.01 347.102 196.895 348 198 348H210Z" stroke="#2EB364"/>
<path fill-rule="evenodd" clip-rule="evenodd" d="M210 288C211.105 288 212.005 288.896 211.948 290C210.908 310.057 194.316 326 174 326H166C164.895 326 164 325.105 164 324V312C164 310.895 164.895 310 166 310H174C185.477 310 194.901 301.212 195.91 289.999C196.01 288.898 196.895 288 198 288H210Z" stroke="#2EB364"/>
</g>
<g opacity="0.3">
<path fill-rule="evenodd" clip-rule="evenodd" d="M222 348C220.895 348 219.995 347.104 220.052 346C221.092 325.943 237.684 310 258 310H266C267.105 310 268 310.895 268 312V324C268 325.105 267.105 326 266 326H258C246.523 326 237.099 334.788 236.09 346.001C235.99 347.102 235.105 348 234 348H222Z" stroke="#2EB364"/>
<path fill-rule="evenodd" clip-rule="evenodd" d="M222 288C220.895 288 219.995 288.896 220.052 290C221.092 310.057 237.684 326 258 326H266C267.105 326 268 325.105 268 324V312C268 310.895 267.105 310 266 310H258C246.523 310 237.099 301.212 236.09 289.999C235.99 288.898 235.105 288 234 288H222Z" stroke="#2EB364"/>
</g>
<g opacity="0.3">
<path fill-rule="evenodd" clip-rule="evenodd" d="M322 348C323.105 348 324.005 347.104 323.948 346C322.908 325.943 306.316 310 286 310H278C276.895 310 276 310.895 276 312V324C276 325.105 276.895 326 278 326H286C297.477 326 306.901 334.788 307.91 346.001C308.01 347.102 308.895 348 310 348H322Z" stroke="#2EB364"/>
<path fill-rule="evenodd" clip-rule="evenodd" d="M322 288C323.105 288 324.005 288.896 323.948 290C322.908 310.057 306.316 326 286 326H278C276.895 326 276 325.105 276 324V312C276 310.895 276.895 310 278 310H286C297.477 310 306.901 301.212 307.91 289.999C308.01 288.898 308.895 288 310 288H322Z" stroke="#2EB364"/>
</g>
<g opacity="0.3">
<path fill-rule="evenodd" clip-rule="evenodd" d="M334 348C332.895 348 331.995 347.104 332.052 346C333.092 325.943 349.684 310 370 310H378C379.105 310 380 310.895 380 312V324C380 325.105 379.105 326 378 326H370C358.523 326 349.099 334.788 348.09 346.001C347.99 347.102 347.105 348 346 348H334Z" stroke="#2EB364"/>
<path fill-rule="evenodd" clip-rule="evenodd" d="M334 288C332.895 288 331.995 288.896 332.052 290C333.092 310.057 349.684 326 370 326H378C379.105 326 380 325.105 380 324V312C380 310.895 379.105 310 378 310H370C358.523 310 349.099 301.212 348.09 289.999C347.99 288.898 347.105 288 346 288H334Z" stroke="#2EB364"/>
</g>
<g opacity="0.3">
<path fill-rule="evenodd" clip-rule="evenodd" d="M54 396C52.8954 396 51.9945 395.104 52.0517 394C53.0915 373.943 69.6839 358 90 358H98C99.1046 358 100 358.895 100 360V372C100 373.105 99.1046 374 98 374H90C78.5234 374 69.0993 382.788 68.0896 394.001C67.9905 395.102 67.1046 396 66 396H54Z" stroke="#2EB364"/>
<path fill-rule="evenodd" clip-rule="evenodd" d="M54 336C52.8954 336 51.9945 336.896 52.0517 338C53.0915 358.057 69.6839 374 90 374H98C99.1046 374 100 373.105 100 372V360C100 358.895 99.1046 358 98 358H90C78.5234 358 69.0993 349.212 68.0896 337.999C67.9905 336.898 67.1046 336 66 336H54Z" stroke="#2EB364"/>
</g>
<g opacity="0.3">
<path fill-rule="evenodd" clip-rule="evenodd" d="M154 396C155.105 396 156.005 395.104 155.948 394C154.908 373.943 138.316 358 118 358H110C108.895 358 108 358.895 108 360V372C108 373.105 108.895 374 110 374H118C129.477 374 138.901 382.788 139.91 394.001C140.01 395.102 140.895 396 142 396H154Z" stroke="#2EB364"/>
<path fill-rule="evenodd" clip-rule="evenodd" d="M154 336C155.105 336 156.005 336.896 155.948 338C154.908 358.057 138.316 374 118 374H110C108.895 374 108 373.105 108 372V360C108 358.895 108.895 358 110 358H118C129.477 358 138.901 349.212 139.91 337.999C140.01 336.898 140.895 336 142 336H154Z" stroke="#2EB364"/>
</g>
<g opacity="0.3">
<path fill-rule="evenodd" clip-rule="evenodd" d="M166 396C164.895 396 163.995 395.104 164.052 394C165.092 373.943 181.684 358 202 358H210C211.105 358 212 358.895 212 360V372C212 373.105 211.105 374 210 374H202C190.523 374 181.099 382.788 180.09 394.001C179.99 395.102 179.105 396 178 396H166Z" stroke="#2EB364"/>
<path fill-rule="evenodd" clip-rule="evenodd" d="M166 336C164.895 336 163.995 336.896 164.052 338C165.092 358.057 181.684 374 202 374H210C211.105 374 212 373.105 212 372V360C212 358.895 211.105 358 210 358H202C190.523 358 181.099 349.212 180.09 337.999C179.99 336.898 179.105 336 178 336H166Z" stroke="#2EB364"/>
</g>
<g opacity="0.3">
<path fill-rule="evenodd" clip-rule="evenodd" d="M266 396C267.105 396 268.005 395.104 267.948 394C266.908 373.943 250.316 358 230 358H222C220.895 358 220 358.895 220 360V372C220 373.105 220.895 374 222 374H230C241.477 374 250.901 382.788 251.91 394.001C252.01 395.102 252.895 396 254 396H266Z" stroke="#2EB364"/>
<path fill-rule="evenodd" clip-rule="evenodd" d="M266 336C267.105 336 268.005 336.896 267.948 338C266.908 358.057 250.316 374 230 374H222C220.895 374 220 373.105 220 372V360C220 358.895 220.895 358 222 358H230C241.477 358 250.901 349.212 251.91 337.999C252.01 336.898 252.895 336 254 336H266Z" stroke="#2EB364"/>
</g>
<g opacity="0.3">
<path fill-rule="evenodd" clip-rule="evenodd" d="M278 396C276.895 396 275.995 395.104 276.052 394C277.092 373.943 293.684 358 314 358H322C323.105 358 324 358.895 324 360V372C324 373.105 323.105 374 322 374H314C302.523 374 293.099 382.788 292.09 394.001C291.99 395.102 291.105 396 290 396H278Z" stroke="#2EB364"/>
<path fill-rule="evenodd" clip-rule="evenodd" d="M278 336C276.895 336 275.995 336.896 276.052 338C277.092 358.057 293.684 374 314 374H322C323.105 374 324 373.105 324 372V360C324 358.895 323.105 358 322 358H314C302.523 358 293.099 349.212 292.09 337.999C291.99 336.898 291.105 336 290 336H278Z" stroke="#2EB364"/>
</g>
<g opacity="0.3">
<path fill-rule="evenodd" clip-rule="evenodd" d="M378 396C379.105 396 380.005 395.104 379.948 394C378.908 373.943 362.316 358 342 358H334C332.895 358 332 358.895 332 360V372C332 373.105 332.895 374 334 374H342C353.477 374 362.901 382.788 363.91 394.001C364.01 395.102 364.895 396 366 396H378Z" stroke="#2EB364"/>
<path fill-rule="evenodd" clip-rule="evenodd" d="M378 336C379.105 336 380.005 336.896 379.948 338C378.908 358.057 362.316 374 342 374H334C332.895 374 332 373.105 332 372V360C332 358.895 332.895 358 334 358H342C353.477 358 362.901 349.212 363.91 337.999C364.01 336.898 364.895 336 366 336H378Z" stroke="#2EB364"/>
</g>
</g>
<g opacity="0.4">
<g opacity="0.3">
<path fill-rule="evenodd" clip-rule="evenodd" d="M98 444C99.1046 444 100.005 443.104 99.9483 442C98.9085 421.943 82.3161 406 62 406H54C52.8954 406 52 406.895 52 408V420C52 421.105 52.8954 422 54 422H62C73.4766 422 82.9007 430.788 83.9104 442.001C84.0095 443.102 84.8954 444 86 444H98Z" stroke="#2EB364"/>
<path fill-rule="evenodd" clip-rule="evenodd" d="M98 384C99.1046 384 100.005 384.896 99.9483 386C98.9085 406.057 82.3161 422 62 422H54C52.8954 422 52 421.105 52 420V408C52 406.895 52.8954 406 54 406H62C73.4766 406 82.9007 397.212 83.9104 385.999C84.0095 384.898 84.8954 384 86 384H98Z" stroke="#2EB364"/>
</g>
<g opacity="0.3">
<path fill-rule="evenodd" clip-rule="evenodd" d="M110 444C108.895 444 107.995 443.104 108.052 442C109.092 421.943 125.684 406 146 406H154C155.105 406 156 406.895 156 408V420C156 421.105 155.105 422 154 422H146C134.523 422 125.099 430.788 124.09 442.001C123.99 443.102 123.105 444 122 444H110Z" stroke="#2EB364"/>
<path fill-rule="evenodd" clip-rule="evenodd" d="M110 384C108.895 384 107.995 384.896 108.052 386C109.092 406.057 125.684 422 146 422H154C155.105 422 156 421.105 156 420V408C156 406.895 155.105 406 154 406H146C134.523 406 125.099 397.212 124.09 385.999C123.99 384.898 123.105 384 122 384H110Z" stroke="#2EB364"/>
</g>
<g opacity="0.3">
<path fill-rule="evenodd" clip-rule="evenodd" d="M210 444C211.105 444 212.005 443.104 211.948 442C210.908 421.943 194.316 406 174 406H166C164.895 406 164 406.895 164 408V420C164 421.105 164.895 422 166 422H174C185.477 422 194.901 430.788 195.91 442.001C196.01 443.102 196.895 444 198 444H210Z" stroke="#2EB364"/>
<path fill-rule="evenodd" clip-rule="evenodd" d="M210 384C211.105 384 212.005 384.896 211.948 386C210.908 406.057 194.316 422 174 422H166C164.895 422 164 421.105 164 420V408C164 406.895 164.895 406 166 406H174C185.477 406 194.901 397.212 195.91 385.999C196.01 384.898 196.895 384 198 384H210Z" stroke="#2EB364"/>
</g>
<g opacity="0.3">
<path fill-rule="evenodd" clip-rule="evenodd" d="M222 444C220.895 444 219.995 443.104 220.052 442C221.092 421.943 237.684 406 258 406H266C267.105 406 268 406.895 268 408V420C268 421.105 267.105 422 266 422H258C246.523 422 237.099 430.788 236.09 442.001C235.99 443.102 235.105 444 234 444H222Z" stroke="#2EB364"/>
<path fill-rule="evenodd" clip-rule="evenodd" d="M222 384C220.895 384 219.995 384.896 220.052 386C221.092 406.057 237.684 422 258 422H266C267.105 422 268 421.105 268 420V408C268 406.895 267.105 406 266 406H258C246.523 406 237.099 397.212 236.09 385.999C235.99 384.898 235.105 384 234 384H222Z" stroke="#2EB364"/>
</g>
<g opacity="0.3">
<path fill-rule="evenodd" clip-rule="evenodd" d="M322 444C323.105 444 324.005 443.104 323.948 442C322.908 421.943 306.316 406 286 406H278C276.895 406 276 406.895 276 408V420C276 421.105 276.895 422 278 422H286C297.477 422 306.901 430.788 307.91 442.001C308.01 443.102 308.895 444 310 444H322Z" stroke="#2EB364"/>
<path fill-rule="evenodd" clip-rule="evenodd" d="M322 384C323.105 384 324.005 384.896 323.948 386C322.908 406.057 306.316 422 286 422H278C276.895 422 276 421.105 276 420V408C276 406.895 276.895 406 278 406H286C297.477 406 306.901 397.212 307.91 385.999C308.01 384.898 308.895 384 310 384H322Z" stroke="#2EB364"/>
</g>
<g opacity="0.3">
<path fill-rule="evenodd" clip-rule="evenodd" d="M334 444C332.895 444 331.995 443.104 332.052 442C333.092 421.943 349.684 406 370 406H378C379.105 406 380 406.895 380 408V420C380 421.105 379.105 422 378 422H370C358.523 422 349.099 430.788 348.09 442.001C347.99 443.102 347.105 444 346 444H334Z" stroke="#2EB364"/>
<path fill-rule="evenodd" clip-rule="evenodd" d="M334 384C332.895 384 331.995 384.896 332.052 386C333.092 406.057 349.684 422 370 422H378C379.105 422 380 421.105 380 420V408C380 406.895 379.105 406 378 406H370C358.523 406 349.099 397.212 348.09 385.999C347.99 384.898 347.105 384 346 384H334Z" stroke="#2EB364"/>
</g>
<g opacity="0.3">
<path fill-rule="evenodd" clip-rule="evenodd" d="M54 492C52.8954 492 51.9945 491.104 52.0517 490C53.0915 469.943 69.6839 454 90 454H98C99.1046 454 100 454.895 100 456V468C100 469.105 99.1046 470 98 470H90C78.5234 470 69.0993 478.788 68.0896 490.001C67.9905 491.102 67.1046 492 66 492H54Z" stroke="#2EB364"/>
<path fill-rule="evenodd" clip-rule="evenodd" d="M54 432C52.8954 432 51.9945 432.896 52.0517 434C53.0915 454.057 69.6839 470 90 470H98C99.1046 470 100 469.105 100 468V456C100 454.895 99.1046 454 98 454H90C78.5234 454 69.0993 445.212 68.0896 433.999C67.9905 432.898 67.1046 432 66 432H54Z" stroke="#2EB364"/>
</g>
<g opacity="0.3">
<path fill-rule="evenodd" clip-rule="evenodd" d="M154 492C155.105 492 156.005 491.104 155.948 490C154.908 469.943 138.316 454 118 454H110C108.895 454 108 454.895 108 456V468C108 469.105 108.895 470 110 470H118C129.477 470 138.901 478.788 139.91 490.001C140.01 491.102 140.895 492 142 492H154Z" stroke="#2EB364"/>
<path fill-rule="evenodd" clip-rule="evenodd" d="M154 432C155.105 432 156.005 432.896 155.948 434C154.908 454.057 138.316 470 118 470H110C108.895 470 108 469.105 108 468V456C108 454.895 108.895 454 110 454H118C129.477 454 138.901 445.212 139.91 433.999C140.01 432.898 140.895 432 142 432H154Z" stroke="#2EB364"/>
</g>
<g opacity="0.3">
<path fill-rule="evenodd" clip-rule="evenodd" d="M166 492C164.895 492 163.995 491.104 164.052 490C165.092 469.943 181.684 454 202 454H210C211.105 454 212 454.895 212 456V468C212 469.105 211.105 470 210 470H202C190.523 470 181.099 478.788 180.09 490.001C179.99 491.102 179.105 492 178 492H166Z" stroke="#2EB364"/>
<path fill-rule="evenodd" clip-rule="evenodd" d="M166 432C164.895 432 163.995 432.896 164.052 434C165.092 454.057 181.684 470 202 470H210C211.105 470 212 469.105 212 468V456C212 454.895 211.105 454 210 454H202C190.523 454 181.099 445.212 180.09 433.999C179.99 432.898 179.105 432 178 432H166Z" stroke="#2EB364"/>
</g>
<g opacity="0.3">
<path fill-rule="evenodd" clip-rule="evenodd" d="M266 492C267.105 492 268.005 491.104 267.948 490C266.908 469.943 250.316 454 230 454H222C220.895 454 220 454.895 220 456V468C220 469.105 220.895 470 222 470H230C241.477 470 250.901 478.788 251.91 490.001C252.01 491.102 252.895 492 254 492H266Z" stroke="#2EB364"/>
<path fill-rule="evenodd" clip-rule="evenodd" d="M266 432C267.105 432 268.005 432.896 267.948 434C266.908 454.057 250.316 470 230 470H222C220.895 470 220 469.105 220 468V456C220 454.895 220.895 454 222 454H230C241.477 454 250.901 445.212 251.91 433.999C252.01 432.898 252.895 432 254 432H266Z" stroke="#2EB364"/>
</g>
<g opacity="0.3">
<path fill-rule="evenodd" clip-rule="evenodd" d="M278 492C276.895 492 275.995 491.104 276.052 490C277.092 469.943 293.684 454 314 454H322C323.105 454 324 454.895 324 456V468C324 469.105 323.105 470 322 470H314C302.523 470 293.099 478.788 292.09 490.001C291.99 491.102 291.105 492 290 492H278Z" stroke="#2EB364"/>
<path fill-rule="evenodd" clip-rule="evenodd" d="M278 432C276.895 432 275.995 432.896 276.052 434C277.092 454.057 293.684 470 314 470H322C323.105 470 324 469.105 324 468V456C324 454.895 323.105 454 322 454H314C302.523 454 293.099 445.212 292.09 433.999C291.99 432.898 291.105 432 290 432H278Z" stroke="#2EB364"/>
</g>
<g opacity="0.3">
<path fill-rule="evenodd" clip-rule="evenodd" d="M378 492C379.105 492 380.005 491.104 379.948 490C378.908 469.943 362.316 454 342 454H334C332.895 454 332 454.895 332 456V468C332 469.105 332.895 470 334 470H342C353.477 470 362.901 478.788 363.91 490.001C364.01 491.102 364.895 492 366 492H378Z" stroke="#2EB364"/>
<path fill-rule="evenodd" clip-rule="evenodd" d="M378 432C379.105 432 380.005 432.896 379.948 434C378.908 454.057 362.316 470 342 470H334C332.895 470 332 469.105 332 468V456C332 454.895 332.895 454 334 454H342C353.477 454 362.901 445.212 363.91 433.999C364.01 432.898 364.895 432 366 432H378Z" stroke="#2EB364"/>
</g>
<g opacity="0.3">
<path fill-rule="evenodd" clip-rule="evenodd" d="M98 540C99.1046 540 100.005 539.104 99.9483 538C98.9085 517.943 82.3161 502 62 502H54C52.8954 502 52 502.895 52 504V516C52 517.105 52.8954 518 54 518H62C73.4766 518 82.9007 526.788 83.9104 538.001C84.0095 539.102 84.8954 540 86 540H98Z" stroke="#2EB364"/>
<path fill-rule="evenodd" clip-rule="evenodd" d="M98 480C99.1046 480 100.005 480.896 99.9483 482C98.9085 502.057 82.3161 518 62 518H54C52.8954 518 52 517.105 52 516V504C52 502.895 52.8954 502 54 502H62C73.4766 502 82.9007 493.212 83.9104 481.999C84.0095 480.898 84.8954 480 86 480H98Z" stroke="#2EB364"/>
</g>
<g opacity="0.3">
<path fill-rule="evenodd" clip-rule="evenodd" d="M110 540C108.895 540 107.995 539.104 108.052 538C109.092 517.943 125.684 502 146 502H154C155.105 502 156 502.895 156 504V516C156 517.105 155.105 518 154 518H146C134.523 518 125.099 526.788 124.09 538.001C123.99 539.102 123.105 540 122 540H110Z" stroke="#2EB364"/>
<path fill-rule="evenodd" clip-rule="evenodd" d="M110 480C108.895 480 107.995 480.896 108.052 482C109.092 502.057 125.684 518 146 518H154C155.105 518 156 517.105 156 516V504C156 502.895 155.105 502 154 502H146C134.523 502 125.099 493.212 124.09 481.999C123.99 480.898 123.105 480 122 480H110Z" stroke="#2EB364"/>
</g>
<g opacity="0.3">
<path fill-rule="evenodd" clip-rule="evenodd" d="M210 540C211.105 540 212.005 539.104 211.948 538C210.908 517.943 194.316 502 174 502H166C164.895 502 164 502.895 164 504V516C164 517.105 164.895 518 166 518H174C185.477 518 194.901 526.788 195.91 538.001C196.01 539.102 196.895 540 198 540H210Z" stroke="#2EB364"/>
<path fill-rule="evenodd" clip-rule="evenodd" d="M210 480C211.105 480 212.005 480.896 211.948 482C210.908 502.057 194.316 518 174 518H166C164.895 518 164 517.105 164 516V504C164 502.895 164.895 502 166 502H174C185.477 502 194.901 493.212 195.91 481.999C196.01 480.898 196.895 480 198 480H210Z" stroke="#2EB364"/>
</g>
<g opacity="0.3">
<path fill-rule="evenodd" clip-rule="evenodd" d="M222 540C220.895 540 219.995 539.104 220.052 538C221.092 517.943 237.684 502 258 502H266C267.105 502 268 502.895 268 504V516C268 517.105 267.105 518 266 518H258C246.523 518 237.099 526.788 236.09 538.001C235.99 539.102 235.105 540 234 540H222Z" stroke="#2EB364"/>
<path fill-rule="evenodd" clip-rule="evenodd" d="M222 480C220.895 480 219.995 480.896 220.052 482C221.092 502.057 237.684 518 258 518H266C267.105 518 268 517.105 268 516V504C268 502.895 267.105 502 266 502H258C246.523 502 237.099 493.212 236.09 481.999C235.99 480.898 235.105 480 234 480H222Z" stroke="#2EB364"/>
</g>
<g opacity="0.3">
<path fill-rule="evenodd" clip-rule="evenodd" d="M322 540C323.105 540 324.005 539.104 323.948 538C322.908 517.943 306.316 502 286 502H278C276.895 502 276 502.895 276 504V516C276 517.105 276.895 518 278 518H286C297.477 518 306.901 526.788 307.91 538.001C308.01 539.102 308.895 540 310 540H322Z" stroke="#2EB364"/>
<path fill-rule="evenodd" clip-rule="evenodd" d="M322 480C323.105 480 324.005 480.896 323.948 482C322.908 502.057 306.316 518 286 518H278C276.895 518 276 517.105 276 516V504C276 502.895 276.895 502 278 502H286C297.477 502 306.901 493.212 307.91 481.999C308.01 480.898 308.895 480 310 480H322Z" stroke="#2EB364"/>
</g>
<g opacity="0.3">
<path fill-rule="evenodd" clip-rule="evenodd" d="M334 540C332.895 540 331.995 539.104 332.052 538C333.092 517.943 349.684 502 370 502H378C379.105 502 380 502.895 380 504V516C380 517.105 379.105 518 378 518H370C358.523 518 349.099 526.788 348.09 538.001C347.99 539.102 347.105 540 346 540H334Z" stroke="#2EB364"/>
<path fill-rule="evenodd" clip-rule="evenodd" d="M334 480C332.895 480 331.995 480.896 332.052 482C333.092 502.057 349.684 518 370 518H378C379.105 518 380 517.105 380 516V504C380 502.895 379.105 502 378 502H370C358.523 502 349.099 493.212 348.09 481.999C347.99 480.898 347.105 480 346 480H334Z" stroke="#2EB364"/>
</g>
<g opacity="0.3">
<path fill-rule="evenodd" clip-rule="evenodd" d="M54 588C52.8954 588 51.9945 587.104 52.0517 586C53.0915 565.943 69.6839 550 90 550H98C99.1046 550 100 550.895 100 552V564C100 565.105 99.1046 566 98 566H90C78.5234 566 69.0993 574.788 68.0896 586.001C67.9905 587.102 67.1046 588 66 588H54Z" stroke="#2EB364"/>
<path fill-rule="evenodd" clip-rule="evenodd" d="M54 528C52.8954 528 51.9945 528.896 52.0517 530C53.0915 550.057 69.6839 566 90 566H98C99.1046 566 100 565.105 100 564V552C100 550.895 99.1046 550 98 550H90C78.5234 550 69.0993 541.212 68.0896 529.999C67.9905 528.898 67.1046 528 66 528H54Z" stroke="#2EB364"/>
</g>
<g opacity="0.3">
<path fill-rule="evenodd" clip-rule="evenodd" d="M154 588C155.105 588 156.005 587.104 155.948 586C154.908 565.943 138.316 550 118 550H110C108.895 550 108 550.895 108 552V564C108 565.105 108.895 566 110 566H118C129.477 566 138.901 574.788 139.91 586.001C140.01 587.102 140.895 588 142 588H154Z" stroke="#2EB364"/>
<path fill-rule="evenodd" clip-rule="evenodd" d="M154 528C155.105 528 156.005 528.896 155.948 530C154.908 550.057 138.316 566 118 566H110C108.895 566 108 565.105 108 564V552C108 550.895 108.895 550 110 550H118C129.477 550 138.901 541.212 139.91 529.999C140.01 528.898 140.895 528 142 528H154Z" stroke="#2EB364"/>
</g>
<g opacity="0.3">
<path fill-rule="evenodd" clip-rule="evenodd" d="M166 588C164.895 588 163.995 587.104 164.052 586C165.092 565.943 181.684 550 202 550H210C211.105 550 212 550.895 212 552V564C212 565.105 211.105 566 210 566H202C190.523 566 181.099 574.788 180.09 586.001C179.99 587.102 179.105 588 178 588H166Z" stroke="#2EB364"/>
<path fill-rule="evenodd" clip-rule="evenodd" d="M166 528C164.895 528 163.995 528.896 164.052 530C165.092 550.057 181.684 566 202 566H210C211.105 566 212 565.105 212 564V552C212 550.895 211.105 550 210 550H202C190.523 550 181.099 541.212 180.09 529.999C179.99 528.898 179.105 528 178 528H166Z" stroke="#2EB364"/>
</g>
<g opacity="0.3">
<path fill-rule="evenodd" clip-rule="evenodd" d="M266 588C267.105 588 268.005 587.104 267.948 586C266.908 565.943 250.316 550 230 550H222C220.895 550 220 550.895 220 552V564C220 565.105 220.895 566 222 566H230C241.477 566 250.901 574.788 251.91 586.001C252.01 587.102 252.895 588 254 588H266Z" stroke="#2EB364"/>
<path fill-rule="evenodd" clip-rule="evenodd" d="M266 528C267.105 528 268.005 528.896 267.948 530C266.908 550.057 250.316 566 230 566H222C220.895 566 220 565.105 220 564V552C220 550.895 220.895 550 222 550H230C241.477 550 250.901 541.212 251.91 529.999C252.01 528.898 252.895 528 254 528H266Z" stroke="#2EB364"/>
</g>
<g opacity="0.3">
<path fill-rule="evenodd" clip-rule="evenodd" d="M278 588C276.895 588 275.995 587.104 276.052 586C277.092 565.943 293.684 550 314 550H322C323.105 550 324 550.895 324 552V564C324 565.105 323.105 566 322 566H314C302.523 566 293.099 574.788 292.09 586.001C291.99 587.102 291.105 588 290 588H278Z" stroke="#2EB364"/>
<path fill-rule="evenodd" clip-rule="evenodd" d="M278 528C276.895 528 275.995 528.896 276.052 530C277.092 550.057 293.684 566 314 566H322C323.105 566 324 565.105 324 564V552C324 550.895 323.105 550 322 550H314C302.523 550 293.099 541.212 292.09 529.999C291.99 528.898 291.105 528 290 528H278Z" stroke="#2EB364"/>
</g>
<g opacity="0.3">
<path fill-rule="evenodd" clip-rule="evenodd" d="M378 588C379.105 588 380.005 587.104 379.948 586C378.908 565.943 362.316 550 342 550H334C332.895 550 332 550.895 332 552V564C332 565.105 332.895 566 334 566H342C353.477 566 362.901 574.788 363.91 586.001C364.01 587.102 364.895 588 366 588H378Z" stroke="#2EB364"/>
<path fill-rule="evenodd" clip-rule="evenodd" d="M378 528C379.105 528 380.005 528.896 379.948 530C378.908 550.057 362.316 566 342 566H334C332.895 566 332 565.105 332 564V552C332 550.895 332.895 550 334 550H342C353.477 550 362.901 541.212 363.91 529.999C364.01 528.898 364.895 528 366 528H378Z" stroke="#2EB364"/>
</g>
<g opacity="0.3">
<path fill-rule="evenodd" clip-rule="evenodd" d="M98 636C99.1046 636 100.005 635.104 99.9483 634C98.9085 613.943 82.3161 598 62 598H54C52.8954 598 52 598.895 52 600V612C52 613.105 52.8954 614 54 614H62C73.4766 614 82.9007 622.788 83.9104 634.001C84.0095 635.102 84.8954 636 86 636H98Z" stroke="#2EB364"/>
<path fill-rule="evenodd" clip-rule="evenodd" d="M98 576C99.1046 576 100.005 576.896 99.9483 578C98.9085 598.057 82.3161 614 62 614H54C52.8954 614 52 613.105 52 612V600C52 598.895 52.8954 598 54 598H62C73.4766 598 82.9007 589.212 83.9104 577.999C84.0095 576.898 84.8954 576 86 576H98Z" stroke="#2EB364"/>
</g>
<g opacity="0.3">
<path fill-rule="evenodd" clip-rule="evenodd" d="M110 636C108.895 636 107.995 635.104 108.052 634C109.092 613.943 125.684 598 146 598H154C155.105 598 156 598.895 156 600V612C156 613.105 155.105 614 154 614H146C134.523 614 125.099 622.788 124.09 634.001C123.99 635.102 123.105 636 122 636H110Z" stroke="#2EB364"/>
<path fill-rule="evenodd" clip-rule="evenodd" d="M110 576C108.895 576 107.995 576.896 108.052 578C109.092 598.057 125.684 614 146 614H154C155.105 614 156 613.105 156 612V600C156 598.895 155.105 598 154 598H146C134.523 598 125.099 589.212 124.09 577.999C123.99 576.898 123.105 576 122 576H110Z" stroke="#2EB364"/>
</g>
<g opacity="0.3">
<path fill-rule="evenodd" clip-rule="evenodd" d="M210 636C211.105 636 212.005 635.104 211.948 634C210.908 613.943 194.316 598 174 598H166C164.895 598 164 598.895 164 600V612C164 613.105 164.895 614 166 614H174C185.477 614 194.901 622.788 195.91 634.001C196.01 635.102 196.895 636 198 636H210Z" stroke="#2EB364"/>
<path fill-rule="evenodd" clip-rule="evenodd" d="M210 576C211.105 576 212.005 576.896 211.948 578C210.908 598.057 194.316 614 174 614H166C164.895 614 164 613.105 164 612V600C164 598.895 164.895 598 166 598H174C185.477 598 194.901 589.212 195.91 577.999C196.01 576.898 196.895 576 198 576H210Z" stroke="#2EB364"/>
</g>
<g opacity="0.3">
<path fill-rule="evenodd" clip-rule="evenodd" d="M222 636C220.895 636 219.995 635.104 220.052 634C221.092 613.943 237.684 598 258 598H266C267.105 598 268 598.895 268 600V612C268 613.105 267.105 614 266 614H258C246.523 614 237.099 622.788 236.09 634.001C235.99 635.102 235.105 636 234 636H222Z" stroke="#2EB364"/>
<path fill-rule="evenodd" clip-rule="evenodd" d="M222 576C220.895 576 219.995 576.896 220.052 578C221.092 598.057 237.684 614 258 614H266C267.105 614 268 613.105 268 612V600C268 598.895 267.105 598 266 598H258C246.523 598 237.099 589.212 236.09 577.999C235.99 576.898 235.105 576 234 576H222Z" stroke="#2EB364"/>
</g>
<g opacity="0.3">
<path fill-rule="evenodd" clip-rule="evenodd" d="M322 636C323.105 636 324.005 635.104 323.948 634C322.908 613.943 306.316 598 286 598H278C276.895 598 276 598.895 276 600V612C276 613.105 276.895 614 278 614H286C297.477 614 306.901 622.788 307.91 634.001C308.01 635.102 308.895 636 310 636H322Z" stroke="#2EB364"/>
<path fill-rule="evenodd" clip-rule="evenodd" d="M322 576C323.105 576 324.005 576.896 323.948 578C322.908 598.057 306.316 614 286 614H278C276.895 614 276 613.105 276 612V600C276 598.895 276.895 598 278 598H286C297.477 598 306.901 589.212 307.91 577.999C308.01 576.898 308.895 576 310 576H322Z" stroke="#2EB364"/>
</g>
<g opacity="0.3">
<path fill-rule="evenodd" clip-rule="evenodd" d="M334 636C332.895 636 331.995 635.104 332.052 634C333.092 613.943 349.684 598 370 598H378C379.105 598 380 598.895 380 600V612C380 613.105 379.105 614 378 614H370C358.523 614 349.099 622.788 348.09 634.001C347.99 635.102 347.105 636 346 636H334Z" stroke="#2EB364"/>
<path fill-rule="evenodd" clip-rule="evenodd" d="M334 576C332.895 576 331.995 576.896 332.052 578C333.092 598.057 349.684 614 370 614H378C379.105 614 380 613.105 380 612V600C380 598.895 379.105 598 378 598H370C358.523 598 349.099 589.212 348.09 577.999C347.99 576.898 347.105 576 346 576H334Z" stroke="#2EB364"/>
</g>
<g opacity="0.3">
<path fill-rule="evenodd" clip-rule="evenodd" d="M54 684C52.8954 684 51.9945 683.104 52.0517 682C53.0915 661.943 69.6839 646 90 646H98C99.1046 646 100 646.895 100 648V660C100 661.105 99.1046 662 98 662H90C78.5234 662 69.0993 670.788 68.0896 682.001C67.9905 683.102 67.1046 684 66 684H54Z" stroke="#2EB364"/>
<path fill-rule="evenodd" clip-rule="evenodd" d="M54 624C52.8954 624 51.9945 624.896 52.0517 626C53.0915 646.057 69.6839 662 90 662H98C99.1046 662 100 661.105 100 660V648C100 646.895 99.1046 646 98 646H90C78.5234 646 69.0993 637.212 68.0896 625.999C67.9905 624.898 67.1046 624 66 624H54Z" stroke="#2EB364"/>
</g>
<g opacity="0.3">
<path fill-rule="evenodd" clip-rule="evenodd" d="M154 684C155.105 684 156.005 683.104 155.948 682C154.908 661.943 138.316 646 118 646H110C108.895 646 108 646.895 108 648V660C108 661.105 108.895 662 110 662H118C129.477 662 138.901 670.788 139.91 682.001C140.01 683.102 140.895 684 142 684H154Z" stroke="#2EB364"/>
<path fill-rule="evenodd" clip-rule="evenodd" d="M154 624C155.105 624 156.005 624.896 155.948 626C154.908 646.057 138.316 662 118 662H110C108.895 662 108 661.105 108 660V648C108 646.895 108.895 646 110 646H118C129.477 646 138.901 637.212 139.91 625.999C140.01 624.898 140.895 624 142 624H154Z" stroke="#2EB364"/>
</g>
<g opacity="0.3">
<path fill-rule="evenodd" clip-rule="evenodd" d="M166 684C164.895 684 163.995 683.104 164.052 682C165.092 661.943 181.684 646 202 646H210C211.105 646 212 646.895 212 648V660C212 661.105 211.105 662 210 662H202C190.523 662 181.099 670.788 180.09 682.001C179.99 683.102 179.105 684 178 684H166Z" stroke="#2EB364"/>
<path fill-rule="evenodd" clip-rule="evenodd" d="M166 624C164.895 624 163.995 624.896 164.052 626C165.092 646.057 181.684 662 202 662H210C211.105 662 212 661.105 212 660V648C212 646.895 211.105 646 210 646H202C190.523 646 181.099 637.212 180.09 625.999C179.99 624.898 179.105 624 178 624H166Z" stroke="#2EB364"/>
</g>
<g opacity="0.3">
<path fill-rule="evenodd" clip-rule="evenodd" d="M266 684C267.105 684 268.005 683.104 267.948 682C266.908 661.943 250.316 646 230 646H222C220.895 646 220 646.895 220 648V660C220 661.105 220.895 662 222 662H230C241.477 662 250.901 670.788 251.91 682.001C252.01 683.102 252.895 684 254 684H266Z" stroke="#2EB364"/>
<path fill-rule="evenodd" clip-rule="evenodd" d="M266 624C267.105 624 268.005 624.896 267.948 626C266.908 646.057 250.316 662 230 662H222C220.895 662 220 661.105 220 660V648C220 646.895 220.895 646 222 646H230C241.477 646 250.901 637.212 251.91 625.999C252.01 624.898 252.895 624 254 624H266Z" stroke="#2EB364"/>
</g>
<g opacity="0.3">
<path fill-rule="evenodd" clip-rule="evenodd" d="M278 684C276.895 684 275.995 683.104 276.052 682C277.092 661.943 293.684 646 314 646H322C323.105 646 324 646.895 324 648V660C324 661.105 323.105 662 322 662H314C302.523 662 293.099 670.788 292.09 682.001C291.99 683.102 291.105 684 290 684H278Z" stroke="#2EB364"/>
<path fill-rule="evenodd" clip-rule="evenodd" d="M278 624C276.895 624 275.995 624.896 276.052 626C277.092 646.057 293.684 662 314 662H322C323.105 662 324 661.105 324 660V648C324 646.895 323.105 646 322 646H314C302.523 646 293.099 637.212 292.09 625.999C291.99 624.898 291.105 624 290 624H278Z" stroke="#2EB364"/>
</g>
<g opacity="0.3">
<path fill-rule="evenodd" clip-rule="evenodd" d="M378 684C379.105 684 380.005 683.104 379.948 682C378.908 661.943 362.316 646 342 646H334C332.895 646 332 646.895 332 648V660C332 661.105 332.895 662 334 662H342C353.477 662 362.901 670.788 363.91 682.001C364.01 683.102 364.895 684 366 684H378Z" stroke="#2EB364"/>
<path fill-rule="evenodd" clip-rule="evenodd" d="M378 624C379.105 624 380.005 624.896 379.948 626C378.908 646.057 362.316 662 342 662H334C332.895 662 332 661.105 332 660V648C332 646.895 332.895 646 334 646H342C353.477 646 362.901 637.212 363.91 625.999C364.01 624.898 364.895 624 366 624H378Z" stroke="#2EB364"/>
</g>
<g opacity="0.3">
<path fill-rule="evenodd" clip-rule="evenodd" d="M98 732C99.1046 732 100.005 731.104 99.9483 730C98.9085 709.943 82.3161 694 62 694H54C52.8954 694 52 694.895 52 696V708C52 709.105 52.8954 710 54 710H62C73.4766 710 82.9007 718.788 83.9104 730.001C84.0095 731.102 84.8954 732 86 732H98Z" stroke="#2EB364"/>
<path fill-rule="evenodd" clip-rule="evenodd" d="M98 672C99.1046 672 100.005 672.896 99.9483 674C98.9085 694.057 82.3161 710 62 710H54C52.8954 710 52 709.105 52 708V696C52 694.895 52.8954 694 54 694H62C73.4766 694 82.9007 685.212 83.9104 673.999C84.0095 672.898 84.8954 672 86 672H98Z" stroke="#2EB364"/>
</g>
<g opacity="0.3">
<path fill-rule="evenodd" clip-rule="evenodd" d="M110 732C108.895 732 107.995 731.104 108.052 730C109.092 709.943 125.684 694 146 694H154C155.105 694 156 694.895 156 696V708C156 709.105 155.105 710 154 710H146C134.523 710 125.099 718.788 124.09 730.001C123.99 731.102 123.105 732 122 732H110Z" stroke="#2EB364"/>
<path fill-rule="evenodd" clip-rule="evenodd" d="M110 672C108.895 672 107.995 672.896 108.052 674C109.092 694.057 125.684 710 146 710H154C155.105 710 156 709.105 156 708V696C156 694.895 155.105 694 154 694H146C134.523 694 125.099 685.212 124.09 673.999C123.99 672.898 123.105 672 122 672H110Z" stroke="#2EB364"/>
</g>
<g opacity="0.3">
<path fill-rule="evenodd" clip-rule="evenodd" d="M210 732C211.105 732 212.005 731.104 211.948 730C210.908 709.943 194.316 694 174 694H166C164.895 694 164 694.895 164 696V708C164 709.105 164.895 710 166 710H174C185.477 710 194.901 718.788 195.91 730.001C196.01 731.102 196.895 732 198 732H210Z" stroke="#2EB364"/>
<path fill-rule="evenodd" clip-rule="evenodd" d="M210 672C211.105 672 212.005 672.896 211.948 674C210.908 694.057 194.316 710 174 710H166C164.895 710 164 709.105 164 708V696C164 694.895 164.895 694 166 694H174C185.477 694 194.901 685.212 195.91 673.999C196.01 672.898 196.895 672 198 672H210Z" stroke="#2EB364"/>
</g>
<g opacity="0.3">
<path fill-rule="evenodd" clip-rule="evenodd" d="M222 732C220.895 732 219.995 731.104 220.052 730C221.092 709.943 237.684 694 258 694H266C267.105 694 268 694.895 268 696V708C268 709.105 267.105 710 266 710H258C246.523 710 237.099 718.788 236.09 730.001C235.99 731.102 235.105 732 234 732H222Z" stroke="#2EB364"/>
<path fill-rule="evenodd" clip-rule="evenodd" d="M222 672C220.895 672 219.995 672.896 220.052 674C221.092 694.057 237.684 710 258 710H266C267.105 710 268 709.105 268 708V696C268 694.895 267.105 694 266 694H258C246.523 694 237.099 685.212 236.09 673.999C235.99 672.898 235.105 672 234 672H222Z" stroke="#2EB364"/>
</g>
<g opacity="0.3">
<path fill-rule="evenodd" clip-rule="evenodd" d="M322 732C323.105 732 324.005 731.104 323.948 730C322.908 709.943 306.316 694 286 694H278C276.895 694 276 694.895 276 696V708C276 709.105 276.895 710 278 710H286C297.477 710 306.901 718.788 307.91 730.001C308.01 731.102 308.895 732 310 732H322Z" stroke="#2EB364"/>
<path fill-rule="evenodd" clip-rule="evenodd" d="M322 672C323.105 672 324.005 672.896 323.948 674C322.908 694.057 306.316 710 286 710H278C276.895 710 276 709.105 276 708V696C276 694.895 276.895 694 278 694H286C297.477 694 306.901 685.212 307.91 673.999C308.01 672.898 308.895 672 310 672H322Z" stroke="#2EB364"/>
</g>
<g opacity="0.3">
<path fill-rule="evenodd" clip-rule="evenodd" d="M334 732C332.895 732 331.995 731.104 332.052 730C333.092 709.943 349.684 694 370 694H378C379.105 694 380 694.895 380 696V708C380 709.105 379.105 710 378 710H370C358.523 710 349.099 718.788 348.09 730.001C347.99 731.102 347.105 732 346 732H334Z" stroke="#2EB364"/>
<path fill-rule="evenodd" clip-rule="evenodd" d="M334 672C332.895 672 331.995 672.896 332.052 674C333.092 694.057 349.684 710 370 710H378C379.105 710 380 709.105 380 708V696C380 694.895 379.105 694 378 694H370C358.523 694 349.099 685.212 348.09 673.999C347.99 672.898 347.105 672 346 672H334Z" stroke="#2EB364"/>
</g>
<g opacity="0.3">
<path fill-rule="evenodd" clip-rule="evenodd" d="M54 780C52.8954 780 51.9945 779.104 52.0517 778C53.0915 757.943 69.6839 742 90 742H98C99.1046 742 100 742.895 100 744V756C100 757.105 99.1046 758 98 758H90C78.5234 758 69.0993 766.788 68.0896 778.001C67.9905 779.102 67.1046 780 66 780H54Z" stroke="#2EB364"/>
<path fill-rule="evenodd" clip-rule="evenodd" d="M54 720C52.8954 720 51.9945 720.896 52.0517 722C53.0915 742.057 69.6839 758 90 758H98C99.1046 758 100 757.105 100 756V744C100 742.895 99.1046 742 98 742H90C78.5234 742 69.0993 733.212 68.0896 721.999C67.9905 720.898 67.1046 720 66 720H54Z" stroke="#2EB364"/>
</g>
<g opacity="0.3">
<path fill-rule="evenodd" clip-rule="evenodd" d="M154 780C155.105 780 156.005 779.104 155.948 778C154.908 757.943 138.316 742 118 742H110C108.895 742 108 742.895 108 744V756C108 757.105 108.895 758 110 758H118C129.477 758 138.901 766.788 139.91 778.001C140.01 779.102 140.895 780 142 780H154Z" stroke="#2EB364"/>
<path fill-rule="evenodd" clip-rule="evenodd" d="M154 720C155.105 720 156.005 720.896 155.948 722C154.908 742.057 138.316 758 118 758H110C108.895 758 108 757.105 108 756V744C108 742.895 108.895 742 110 742H118C129.477 742 138.901 733.212 139.91 721.999C140.01 720.898 140.895 720 142 720H154Z" stroke="#2EB364"/>
</g>
<g opacity="0.3">
<path fill-rule="evenodd" clip-rule="evenodd" d="M166 780C164.895 780 163.995 779.104 164.052 778C165.092 757.943 181.684 742 202 742H210C211.105 742 212 742.895 212 744V756C212 757.105 211.105 758 210 758H202C190.523 758 181.099 766.788 180.09 778.001C179.99 779.102 179.105 780 178 780H166Z" stroke="#2EB364"/>
<path fill-rule="evenodd" clip-rule="evenodd" d="M166 720C164.895 720 163.995 720.896 164.052 722C165.092 742.057 181.684 758 202 758H210C211.105 758 212 757.105 212 756V744C212 742.895 211.105 742 210 742H202C190.523 742 181.099 733.212 180.09 721.999C179.99 720.898 179.105 720 178 720H166Z" stroke="#2EB364"/>
</g>
<g opacity="0.3">
<path fill-rule="evenodd" clip-rule="evenodd" d="M266 780C267.105 780 268.005 779.104 267.948 778C266.908 757.943 250.316 742 230 742H222C220.895 742 220 742.895 220 744V756C220 757.105 220.895 758 222 758H230C241.477 758 250.901 766.788 251.91 778.001C252.01 779.102 252.895 780 254 780H266Z" stroke="#2EB364"/>
<path fill-rule="evenodd" clip-rule="evenodd" d="M266 720C267.105 720 268.005 720.896 267.948 722C266.908 742.057 250.316 758 230 758H222C220.895 758 220 757.105 220 756V744C220 742.895 220.895 742 222 742H230C241.477 742 250.901 733.212 251.91 721.999C252.01 720.898 252.895 720 254 720H266Z" stroke="#2EB364"/>
</g>
<g opacity="0.3">
<path fill-rule="evenodd" clip-rule="evenodd" d="M278 780C276.895 780 275.995 779.104 276.052 778C277.092 757.943 293.684 742 314 742H322C323.105 742 324 742.895 324 744V756C324 757.105 323.105 758 322 758H314C302.523 758 293.099 766.788 292.09 778.001C291.99 779.102 291.105 780 290 780H278Z" stroke="#2EB364"/>
<path fill-rule="evenodd" clip-rule="evenodd" d="M278 720C276.895 720 275.995 720.896 276.052 722C277.092 742.057 293.684 758 314 758H322C323.105 758 324 757.105 324 756V744C324 742.895 323.105 742 322 742H314C302.523 742 293.099 733.212 292.09 721.999C291.99 720.898 291.105 720 290 720H278Z" stroke="#2EB364"/>
</g>
<g opacity="0.3">
<path fill-rule="evenodd" clip-rule="evenodd" d="M378 780C379.105 780 380.005 779.104 379.948 778C378.908 757.943 362.316 742 342 742H334C332.895 742 332 742.895 332 744V756C332 757.105 332.895 758 334 758H342C353.477 758 362.901 766.788 363.91 778.001C364.01 779.102 364.895 780 366 780H378Z" stroke="#2EB364"/>
<path fill-rule="evenodd" clip-rule="evenodd" d="M378 720C379.105 720 380.005 720.896 379.948 722C378.908 742.057 362.316 758 342 758H334C332.895 758 332 757.105 332 756V744C332 742.895 332.895 742 334 742H342C353.477 742 362.901 733.212 363.91 721.999C364.01 720.898 364.895 720 366 720H378Z" stroke="#2EB364"/>
</g>
</g>
</svg>
