<svg width="656" height="130" viewBox="0 0 656 120" fill="none" xmlns="http://www.w3.org/2000/svg">
<g style="mix-blend-mode:multiply">
<path fill-rule="evenodd" clip-rule="evenodd" d="M4 120C1.79086 120 -0.0109634 118.207 0.103409 116.001C2.183 75.8862 35.3678 44 76 44H92C94.2091 44 96 45.7909 96 48V72C96 74.2091 94.2091 76 92 76H76C53.0468 76 34.1986 93.5756 32.1791 116.003C31.981 118.203 30.2091 120 28 120H4Z" fill="#EFBE56"/>
</g>
<g style="mix-blend-mode:multiply">
<path fill-rule="evenodd" clip-rule="evenodd" d="M4 0C1.79086 0 -0.0109634 1.7929 0.103409 3.99908C2.183 44.1138 35.3678 76 76 76H92C94.2091 76 96 74.2091 96 72V48C96 45.7909 94.2091 44 92 44H76C53.0468 44 34.1986 26.4244 32.1791 3.99702C31.981 1.79679 30.2091 0 28 0H4Z" fill="#97DFD8"/>
</g>
<g style="mix-blend-mode:multiply">
<path fill-rule="evenodd" clip-rule="evenodd" d="M204 120C206.209 120 208.011 118.207 207.897 116.001C205.817 75.8862 172.632 44 132 44H116C113.791 44 112 45.7909 112 48V72C112 74.2091 113.791 76 116 76H132C154.953 76 173.801 93.5756 175.821 116.003C176.019 118.203 177.791 120 180 120H204Z" fill="#EFBE56"/>
</g>
<g style="mix-blend-mode:multiply">
<path fill-rule="evenodd" clip-rule="evenodd" d="M204 0C206.209 0 208.011 1.7929 207.897 3.99908C205.817 44.1138 172.632 76 132 76H116C113.791 76 112 74.2091 112 72V48C112 45.7909 113.791 44 116 44H132C154.953 44 173.801 26.4244 175.821 3.99702C176.019 1.79679 177.791 0 180 0H204Z" fill="#97DFD8"/>
</g>
<g style="mix-blend-mode:multiply">
<path fill-rule="evenodd" clip-rule="evenodd" d="M228 120C225.791 120 223.989 118.207 224.103 116.001C226.183 75.8862 259.368 44 300 44H316C318.209 44 320 45.7909 320 48V72C320 74.2091 318.209 76 316 76H300C277.047 76 258.199 93.5756 256.179 116.003C255.981 118.203 254.209 120 252 120H228Z" fill="#EFBE56"/>
</g>
<g style="mix-blend-mode:multiply">
<path fill-rule="evenodd" clip-rule="evenodd" d="M228 0C225.791 0 223.989 1.7929 224.103 3.99908C226.183 44.1138 259.368 76 300 76H316C318.209 76 320 74.2091 320 72V48C320 45.7909 318.209 44 316 44H300C277.047 44 258.199 26.4244 256.179 3.99702C255.981 1.79679 254.209 0 252 0H228Z" fill="#97DFD8"/>
</g>
<g style="mix-blend-mode:multiply">
<path fill-rule="evenodd" clip-rule="evenodd" d="M428 120C430.209 120 432.011 118.207 431.897 116.001C429.817 75.8862 396.632 44 356 44H340C337.791 44 336 45.7909 336 48V72C336 74.2091 337.791 76 340 76H356C378.953 76 397.801 93.5756 399.821 116.003C400.019 118.203 401.791 120 404 120H428Z" fill="#EFBE56"/>
</g>
<g style="mix-blend-mode:multiply">
<path fill-rule="evenodd" clip-rule="evenodd" d="M428 0C430.209 0 432.011 1.7929 431.897 3.99908C429.817 44.1138 396.632 76 356 76H340C337.791 76 336 74.2091 336 72V48C336 45.7909 337.791 44 340 44H356C378.953 44 397.801 26.4244 399.821 3.99702C400.019 1.79679 401.791 0 404 0H428Z" fill="#97DFD8"/>
</g>
<g style="mix-blend-mode:multiply">
<path fill-rule="evenodd" clip-rule="evenodd" d="M452 120C449.791 120 447.989 118.207 448.103 116.001C450.183 75.8862 483.368 44 524 44H540C542.209 44 544 45.7909 544 48V72C544 74.2091 542.209 76 540 76H524C501.047 76 482.199 93.5756 480.179 116.003C479.981 118.203 478.209 120 476 120H452Z" fill="#EFBE56"/>
</g>
<g style="mix-blend-mode:multiply">
<path fill-rule="evenodd" clip-rule="evenodd" d="M452 0C449.791 0 447.989 1.7929 448.103 3.99908C450.183 44.1138 483.368 76 524 76H540C542.209 76 544 74.2091 544 72V48C544 45.7909 542.209 44 540 44H524C501.047 44 482.199 26.4244 480.179 3.99702C479.981 1.79679 478.209 0 476 0H452Z" fill="#97DFD8"/>
</g>
<g style="mix-blend-mode:multiply">
<path fill-rule="evenodd" clip-rule="evenodd" d="M652 120C654.209 120 656.011 118.207 655.897 116.001C653.817 75.8862 620.632 44 580 44H564C561.791 44 560 45.7909 560 48V72C560 74.2091 561.791 76 564 76H580C602.953 76 621.801 93.5756 623.821 116.003C624.019 118.203 625.791 120 628 120H652Z" fill="#EFBE56"/>
</g>
<g style="mix-blend-mode:multiply">
<path fill-rule="evenodd" clip-rule="evenodd" d="M652 0C654.209 0 656.011 1.7929 655.897 3.99908C653.817 44.1138 620.632 76 580 76H564C561.791 76 560 74.2091 560 72V48C560 45.7909 561.791 44 564 44H580C602.953 44 621.801 26.4244 623.821 3.99702C624.019 1.79679 625.791 0 628 0H652Z" fill="#97DFD8"/>
</g>
</svg>
