<svg width="785" height="770" viewBox="0 0 785 770" fill="none" xmlns="http://www.w3.org/2000/svg">
    <path fill-rule="evenodd" clip-rule="evenodd"
        d="M163.239 745.697C147.989 745.697 135.626 733.334 135.626 718.083L111.614 718.083C111.614 746.595 134.727 769.709 163.239 769.709L163.239 745.697Z"
        fill="#D6EAD7" />
    <path fill-rule="evenodd" clip-rule="evenodd"
        d="M168.041 661.655C183.292 661.655 195.655 649.292 195.655 634.042L219.667 634.042C219.667 662.553 196.553 685.667 168.041 685.667L168.041 661.655Z"
        fill="#D6EAD7" />
    <path fill-rule="evenodd" clip-rule="evenodd"
        d="M168.041 685.667C183.292 685.667 195.655 698.03 195.655 713.281L219.667 713.281C219.667 684.769 196.553 661.655 168.041 661.655L168.041 685.667Z"
        fill="#D6EAD7" />
    <path fill-rule="evenodd" clip-rule="evenodd"
        d="M336.124 661.655C351.375 661.655 363.738 649.292 363.738 634.042L387.75 634.042C387.75 662.553 364.636 685.667 336.124 685.667L336.124 661.655Z"
        fill="#2EB364" />
    <path fill-rule="evenodd" clip-rule="evenodd"
        d="M336.124 685.667C351.375 685.667 363.738 698.03 363.738 713.281L387.75 713.281C387.75 684.769 364.636 661.655 336.124 661.655L336.124 685.667Z"
        fill="#2EB364" />
    <path fill-rule="evenodd" clip-rule="evenodd"
        d="M252.083 577.614C267.334 577.614 279.697 565.251 279.697 550L303.708 550C303.708 578.512 280.595 601.625 252.083 601.625L252.083 577.614Z"
        fill="#2EB364" />
    <path fill-rule="evenodd" clip-rule="evenodd"
        d="M252.083 601.625C267.334 601.625 279.697 613.989 279.697 629.239L303.708 629.239C303.708 600.727 280.595 577.614 252.083 577.614L252.083 601.625Z"
        fill="#2EB364" />
    <path fill-rule="evenodd" clip-rule="evenodd"
        d="M163.239 685.667C147.989 685.667 135.626 698.03 135.626 713.281L111.614 713.281C111.614 684.769 134.727 661.655 163.239 661.655L163.239 685.667Z"
        fill="#2EB364" />
    <path fill-rule="evenodd" clip-rule="evenodd"
        d="M84 685.667C99.2506 685.667 111.614 698.03 111.614 713.281L135.625 713.281C135.625 684.769 112.512 661.655 84 661.655L84 685.667Z"
        fill="#2EB364" />
    <g opacity="0.2">
        <path fill-rule="evenodd" clip-rule="evenodd"
            d="M79.2393 685.667C63.9887 685.667 51.6256 698.03 51.6256 713.281L27.6138 713.281C27.6138 684.769 50.7273 661.655 79.2393 661.655L79.2393 685.667Z"
            fill="#EBFC6B" />
        <path fill-rule="evenodd" clip-rule="evenodd"
            d="M-1.26511e-05 685.667C15.2506 685.667 27.6136 698.03 27.6136 713.281L51.6255 713.281C51.6255 684.769 28.512 661.655 -1.37007e-05 661.655L-1.26511e-05 685.667Z"
            fill="#EBFC6B" />
    </g>
    <g opacity="0.1">
        <path fill-rule="evenodd" clip-rule="evenodd"
            d="M79.2393 745.614C63.9887 745.614 51.6256 733.251 51.6256 718L27.6138 718C27.6138 746.512 50.7273 769.625 79.2393 769.625L79.2393 745.614Z"
            fill="#2EB364" />
        <path fill-rule="evenodd" clip-rule="evenodd"
            d="M-1.26511e-05 745.614C15.2506 745.614 27.6136 733.251 27.6136 718L51.6255 718C51.6255 746.512 28.512 769.625 -1.37007e-05 769.625L-1.26511e-05 745.614Z"
            fill="#2EB364" />
    </g>
    <g opacity="0.1">
        <path fill-rule="evenodd" clip-rule="evenodd"
            d="M414.489 745.614C399.239 745.614 386.876 733.251 386.876 718L362.864 718C362.864 746.512 385.977 769.625 414.489 769.625L414.489 745.614Z"
            fill="#D6EAD7" />
        <path fill-rule="evenodd" clip-rule="evenodd"
            d="M335.25 745.614C350.501 745.614 362.864 733.251 362.864 718L386.875 718C386.875 746.512 363.762 769.625 335.25 769.625L335.25 745.614Z"
            fill="#D6EAD7" />
    </g>
    <path fill-rule="evenodd" clip-rule="evenodd"
        d="M247.281 745.697C232.03 745.697 219.667 733.334 219.667 718.083L195.655 718.083C195.655 746.595 218.769 769.709 247.281 769.709L247.281 745.697Z"
        fill="#2EB364" />
    <path fill-rule="evenodd" clip-rule="evenodd"
        d="M168.041 745.697C183.292 745.697 195.655 733.334 195.655 718.083L219.667 718.083C219.667 746.595 196.553 769.709 168.041 769.709L168.041 745.697Z"
        fill="#2EB364" />
    <path fill-rule="evenodd" clip-rule="evenodd"
        d="M331.322 661.655C316.072 661.655 303.709 649.292 303.709 634.042L279.697 634.042C279.697 662.553 302.81 685.667 331.322 685.667L331.322 661.655Z"
        fill="#D6EAD7" />
    <path fill-rule="evenodd" clip-rule="evenodd"
        d="M252.083 661.655C267.334 661.655 279.697 649.292 279.697 634.042L303.708 634.042C303.708 662.553 280.595 685.667 252.083 685.667L252.083 661.655Z"
        fill="#D6EAD7" />
    <path fill-rule="evenodd" clip-rule="evenodd"
        d="M247.281 601.625C232.03 601.625 219.667 613.989 219.667 629.239L195.655 629.239C195.655 600.727 218.769 577.614 247.281 577.614L247.281 601.625Z"
        fill="#EBFC6B" />
    <path fill-rule="evenodd" clip-rule="evenodd"
        d="M168.041 601.625C183.292 601.625 195.655 613.989 195.655 629.239L219.667 629.239C219.667 600.727 196.553 577.614 168.041 577.614L168.041 601.625Z"
        fill="#EBFC6B" />
    <g opacity="0.2">
        <path fill-rule="evenodd" clip-rule="evenodd"
            d="M163.239 601.625C147.989 601.625 135.626 613.989 135.626 629.239L111.614 629.239C111.614 600.727 134.727 577.614 163.239 577.614L163.239 601.625Z"
            fill="#D6EAD7" />
        <path fill-rule="evenodd" clip-rule="evenodd"
            d="M84 601.625C99.2506 601.625 111.614 613.989 111.614 629.239L135.625 629.239C135.625 600.727 112.512 577.614 84 577.614L84 601.625Z"
            fill="#D6EAD7" />
    </g>
    <path fill-rule="evenodd" clip-rule="evenodd"
        d="M560.239 195.697C544.989 195.697 532.626 183.334 532.626 168.083L508.614 168.083C508.614 196.595 531.727 219.709 560.239 219.709L560.239 195.697Z"
        fill="#2EB364" />
    <path fill-rule="evenodd" clip-rule="evenodd"
        d="M565.041 111.655C580.292 111.655 592.655 99.2921 592.655 84.0415L616.667 84.0415C616.667 112.553 593.553 135.667 565.041 135.667L565.041 111.655Z"
        fill="#D6EAD7" />
    <path fill-rule="evenodd" clip-rule="evenodd"
        d="M565.041 135.667C580.292 135.667 592.655 148.03 592.655 163.281L616.667 163.281C616.667 134.769 593.553 111.655 565.041 111.655L565.041 135.667Z"
        fill="#D6EAD7" />
    <path fill-rule="evenodd" clip-rule="evenodd"
        d="M733.124 111.655C748.375 111.655 760.738 99.2921 760.738 84.0415L784.75 84.0415C784.75 112.553 761.636 135.667 733.124 135.667L733.124 111.655Z"
        fill="#2EB364" />
    <path fill-rule="evenodd" clip-rule="evenodd"
        d="M733.124 135.667C748.375 135.667 760.738 148.03 760.738 163.281L784.75 163.281C784.75 134.769 761.636 111.655 733.124 111.655L733.124 135.667Z"
        fill="#2EB364" />
    <path fill-rule="evenodd" clip-rule="evenodd"
        d="M649.083 27.6136C664.334 27.6136 676.697 15.2506 676.697 -1.04959e-06L700.708 0C700.708 28.512 677.595 51.6255 649.083 51.6255L649.083 27.6136Z"
        fill="#2EB364" />
    <path fill-rule="evenodd" clip-rule="evenodd"
        d="M649.083 51.6255C664.334 51.6255 676.697 63.9885 676.697 79.2391L700.708 79.2391C700.708 50.7272 677.595 27.6136 649.083 27.6136L649.083 51.6255Z"
        fill="#2EB364" />
    <path fill-rule="evenodd" clip-rule="evenodd"
        d="M560.239 135.667C544.989 135.667 532.626 148.03 532.626 163.281L508.614 163.281C508.614 134.769 531.727 111.655 560.239 111.655L560.239 135.667Z"
        fill="#2EB364" />
    <path fill-rule="evenodd" clip-rule="evenodd"
        d="M481 135.667C496.251 135.667 508.614 148.03 508.614 163.281L532.625 163.281C532.625 134.769 509.512 111.655 481 111.655L481 135.667Z"
        fill="#2EB364" />
    <path fill-rule="evenodd" clip-rule="evenodd"
        d="M644.281 195.697C629.03 195.697 616.667 183.334 616.667 168.083L592.655 168.083C592.655 196.595 615.769 219.709 644.281 219.709L644.281 195.697Z"
        fill="#2EB364" />
    <path fill-rule="evenodd" clip-rule="evenodd"
        d="M565.041 195.697C580.292 195.697 592.655 183.334 592.655 168.083L616.667 168.083C616.667 196.595 593.553 219.709 565.041 219.709L565.041 195.697Z"
        fill="#2EB364" />
    <path fill-rule="evenodd" clip-rule="evenodd"
        d="M728.322 111.655C713.072 111.655 700.709 99.2921 700.709 84.0415L676.697 84.0415C676.697 112.553 699.81 135.667 728.322 135.667L728.322 111.655Z"
        fill="#D6EAD7" />
    <path fill-rule="evenodd" clip-rule="evenodd"
        d="M649.083 111.655C664.334 111.655 676.697 99.2921 676.697 84.0415L700.708 84.0415C700.708 112.553 677.595 135.667 649.083 135.667L649.083 111.655Z"
        fill="#D6EAD7" />
    <path fill-rule="evenodd" clip-rule="evenodd"
        d="M644.281 51.6255C629.03 51.6255 616.667 63.9885 616.667 79.2391L592.655 79.2391C592.655 50.7272 615.769 27.6136 644.281 27.6136L644.281 51.6255Z"
        fill="#EBFC6B" />
    <path fill-rule="evenodd" clip-rule="evenodd"
        d="M565.041 51.6255C580.292 51.6255 592.655 63.9885 592.655 79.2391L616.667 79.2391C616.667 50.7272 593.553 27.6136 565.041 27.6136L565.041 51.6255Z"
        fill="#EBFC6B" />
    <g opacity="0.2">
        <path fill-rule="evenodd" clip-rule="evenodd"
            d="M560.239 51.6255C544.989 51.6255 532.626 63.9885 532.626 79.2391L508.614 79.2391C508.614 50.7272 531.727 27.6136 560.239 27.6136L560.239 51.6255Z"
            fill="#2EB364" />
        <path fill-rule="evenodd" clip-rule="evenodd"
            d="M481 51.6255C496.251 51.6255 508.614 63.9885 508.614 79.2391L532.625 79.2391C532.625 50.7272 509.512 27.6136 481 27.6136L481 51.6255Z"
            fill="#2EB364" />
    </g>
</svg>