<svg width="707" height="874" viewBox="0 0 707 874" fill="none" xmlns="http://www.w3.org/2000/svg">
    <rect width="898" height="976" transform="translate(976) rotate(90)" fill="#F4F3ED" />
    <g opacity="0.1">
        <g clip-path="url(#clip0_38_974)">
            <path d="M789.25 189L700 189" stroke="#27874E" stroke-width="14" />
            <path d="M700 189L718 189C742.853 189 763 209.147 763 234V234" stroke="#27874E" stroke-width="14" />
            <path d="M700 189L718 189C742.853 189 763 168.853 763 144V144" stroke="#27874E" stroke-width="14" />
        </g>
        <g clip-path="url(#clip1_38_974)">
            <path d="M789.25 397L700 397" stroke="#27874E" stroke-width="14" />
            <path d="M700 397L718 397C742.853 397 763 417.147 763 442V442" stroke="#27874E" stroke-width="14" />
            <path d="M700 397L718 397C742.853 397 763 376.853 763 352V352" stroke="#27874E" stroke-width="14" />
        </g>
        <g clip-path="url(#clip2_38_974)">
            <path d="M789.25 605L700 605" stroke="#27874E" stroke-width="14" />
            <path d="M700 605L718 605C742.853 605 763 625.147 763 650V650" stroke="#27874E" stroke-width="14" />
            <path d="M700 605L718 605C742.853 605 763 584.853 763 560V560" stroke="#27874E" stroke-width="14" />
        </g>
        <g clip-path="url(#clip3_38_974)">
            <path d="M789.25 813L700 813" stroke="#27874E" stroke-width="14" />
            <path d="M700 813L718 813C742.853 813 763 833.147 763 858V858" stroke="#27874E" stroke-width="14" />
            <path d="M700 813L718 813C742.853 813 763 792.853 763 768V768" stroke="#27874E" stroke-width="14" />
        </g>
    </g>
    <g opacity="0.1">
        <g clip-path="url(#clip4_38_974)">
            <path d="M626.75 85L716 85" stroke="#27874E" stroke-width="14" />
            <path d="M716 85L698 85C673.147 85 653 105.147 653 130V130" stroke="#27874E" stroke-width="14" />
            <path d="M716 85L698 85C673.147 85 653 64.8528 653 40V40" stroke="#27874E" stroke-width="14" />
        </g>
        <g clip-path="url(#clip5_38_974)">
            <path d="M679.25 189L590 189" stroke="#27874E" stroke-width="14" />
            <path d="M590 189L608 189C632.853 189 653 209.147 653 234V234" stroke="#27874E" stroke-width="14" />
            <path d="M590 189L608 189C632.853 189 653 168.853 653 144V144" stroke="#27874E" stroke-width="14" />
        </g>
        <g clip-path="url(#clip6_38_974)">
            <path d="M626.75 293L716 293" stroke="#27874E" stroke-width="14" />
            <path d="M716 293L698 293C673.147 293 653 313.147 653 338V338" stroke="#27874E" stroke-width="14" />
            <path d="M716 293L698 293C673.147 293 653 272.853 653 248V248" stroke="#27874E" stroke-width="14" />
        </g>
        <g clip-path="url(#clip7_38_974)">
            <path d="M679.25 397L590 397" stroke="#27874E" stroke-width="14" />
            <path d="M590 397L608 397C632.853 397 653 417.147 653 442V442" stroke="#27874E" stroke-width="14" />
            <path d="M590 397L608 397C632.853 397 653 376.853 653 352V352" stroke="#27874E" stroke-width="14" />
        </g>
        <g clip-path="url(#clip8_38_974)">
            <path d="M626.75 501L716 501" stroke="#27874E" stroke-width="14" />
            <path d="M716 501L698 501C673.147 501 653 521.147 653 546V546" stroke="#27874E" stroke-width="14" />
            <path d="M716 501L698 501C673.147 501 653 480.853 653 456V456" stroke="#27874E" stroke-width="14" />
        </g>
        <g clip-path="url(#clip9_38_974)">
            <path d="M679.25 605L590 605" stroke="#27874E" stroke-width="14" />
            <path d="M590 605L608 605C632.853 605 653 625.147 653 650V650" stroke="#27874E" stroke-width="14" />
            <path d="M590 605L608 605C632.853 605 653 584.853 653 560V560" stroke="#27874E" stroke-width="14" />
        </g>
        <g clip-path="url(#clip10_38_974)">
            <path d="M626.75 709L716 709" stroke="#27874E" stroke-width="14" />
            <path d="M716 709L698 709C673.147 709 653 729.147 653 754V754" stroke="#27874E" stroke-width="14" />
            <path d="M716 709L698 709C673.147 709 653 688.853 653 664V664" stroke="#27874E" stroke-width="14" />
        </g>
        <g clip-path="url(#clip11_38_974)">
            <path d="M679.25 813L590 813" stroke="#27874E" stroke-width="14" />
            <path d="M590 813L608 813C632.853 813 653 833.147 653 858V858" stroke="#27874E" stroke-width="14" />
            <path d="M590 813L608 813C632.853 813 653 792.853 653 768V768" stroke="#27874E" stroke-width="14" />
        </g>
    </g>
    <g opacity="0.1">
        <g clip-path="url(#clip12_38_974)">
            <path d="M516.75 85L606 85" stroke="#27874E" stroke-width="14" />
            <path d="M606 85L588 85C563.147 85 543 105.147 543 130V130" stroke="#27874E" stroke-width="14" />
            <path d="M606 85L588 85C563.147 85 543 64.8528 543 40V40" stroke="#27874E" stroke-width="14" />
        </g>
        <g clip-path="url(#clip13_38_974)">
            <path d="M569.25 189L480 189" stroke="#27874E" stroke-width="14" />
            <path d="M480 189L498 189C522.853 189 543 209.147 543 234V234" stroke="#27874E" stroke-width="14" />
            <path d="M480 189L498 189C522.853 189 543 168.853 543 144V144" stroke="#27874E" stroke-width="14" />
        </g>
        <g clip-path="url(#clip14_38_974)">
            <path d="M516.75 293L606 293" stroke="#27874E" stroke-width="14" />
            <path d="M606 293L588 293C563.147 293 543 313.147 543 338V338" stroke="#27874E" stroke-width="14" />
            <path d="M606 293L588 293C563.147 293 543 272.853 543 248V248" stroke="#27874E" stroke-width="14" />
        </g>
        <g clip-path="url(#clip15_38_974)">
            <path d="M569.25 397L480 397" stroke="#27874E" stroke-width="14" />
            <path d="M480 397L498 397C522.853 397 543 417.147 543 442V442" stroke="#27874E" stroke-width="14" />
            <path d="M480 397L498 397C522.853 397 543 376.853 543 352V352" stroke="#27874E" stroke-width="14" />
        </g>
        <g clip-path="url(#clip16_38_974)">
            <path d="M516.75 501L606 501" stroke="#27874E" stroke-width="14" />
            <path d="M606 501L588 501C563.147 501 543 521.147 543 546V546" stroke="#27874E" stroke-width="14" />
            <path d="M606 501L588 501C563.147 501 543 480.853 543 456V456" stroke="#27874E" stroke-width="14" />
        </g>
        <g clip-path="url(#clip17_38_974)">
            <path d="M569.25 605L480 605" stroke="#27874E" stroke-width="14" />
            <path d="M480 605L498 605C522.853 605 543 625.147 543 650V650" stroke="#27874E" stroke-width="14" />
            <path d="M480 605L498 605C522.853 605 543 584.853 543 560V560" stroke="#27874E" stroke-width="14" />
        </g>
        <g clip-path="url(#clip18_38_974)">
            <path d="M516.75 709L606 709" stroke="#27874E" stroke-width="14" />
            <path d="M606 709L588 709C563.147 709 543 729.147 543 754V754" stroke="#27874E" stroke-width="14" />
            <path d="M606 709L588 709C563.147 709 543 688.853 543 664V664" stroke="#27874E" stroke-width="14" />
        </g>
        <g clip-path="url(#clip19_38_974)">
            <path d="M569.25 813L480 813" stroke="#27874E" stroke-width="14" />
            <path d="M480 813L498 813C522.853 813 543 833.147 543 858V858" stroke="#27874E" stroke-width="14" />
            <path d="M480 813L498 813C522.853 813 543 792.853 543 768V768" stroke="#27874E" stroke-width="14" />
        </g>
    </g>
    <g opacity="0.1">
        <g clip-path="url(#clip20_38_974)">
            <path d="M406.75 85L496 85" stroke="#27874E" stroke-width="14" />
            <path d="M496 85L478 85C453.147 85 433 105.147 433 130V130" stroke="#27874E" stroke-width="14" />
            <path d="M496 85L478 85C453.147 85 433 64.8528 433 40V40" stroke="#27874E" stroke-width="14" />
        </g>
        <g clip-path="url(#clip21_38_974)">
            <path d="M459.25 189L370 189" stroke="#27874E" stroke-width="14" />
            <path d="M370 189L388 189C412.853 189 433 209.147 433 234V234" stroke="#27874E" stroke-width="14" />
            <path d="M370 189L388 189C412.853 189 433 168.853 433 144V144" stroke="#27874E" stroke-width="14" />
        </g>
        <g clip-path="url(#clip22_38_974)">
            <path d="M406.75 293L496 293" stroke="#27874E" stroke-width="14" />
            <path d="M496 293L478 293C453.147 293 433 313.147 433 338V338" stroke="#27874E" stroke-width="14" />
            <path d="M496 293L478 293C453.147 293 433 272.853 433 248V248" stroke="#27874E" stroke-width="14" />
        </g>
        <g clip-path="url(#clip23_38_974)">
            <path d="M459.25 397L370 397" stroke="#27874E" stroke-width="14" />
            <path d="M370 397L388 397C412.853 397 433 417.147 433 442V442" stroke="#27874E" stroke-width="14" />
            <path d="M370 397L388 397C412.853 397 433 376.853 433 352V352" stroke="#27874E" stroke-width="14" />
        </g>
        <g clip-path="url(#clip24_38_974)">
            <path d="M406.75 501L496 501" stroke="#27874E" stroke-width="14" />
            <path d="M496 501L478 501C453.147 501 433 521.147 433 546V546" stroke="#27874E" stroke-width="14" />
            <path d="M496 501L478 501C453.147 501 433 480.853 433 456V456" stroke="#27874E" stroke-width="14" />
        </g>
        <g clip-path="url(#clip25_38_974)">
            <path d="M459.25 605L370 605" stroke="#27874E" stroke-width="14" />
            <path d="M370 605L388 605C412.853 605 433 625.147 433 650V650" stroke="#27874E" stroke-width="14" />
            <path d="M370 605L388 605C412.853 605 433 584.853 433 560V560" stroke="#27874E" stroke-width="14" />
        </g>
        <g clip-path="url(#clip26_38_974)">
            <path d="M406.75 709L496 709" stroke="#27874E" stroke-width="14" />
            <path d="M496 709L478 709C453.147 709 433 729.147 433 754V754" stroke="#27874E" stroke-width="14" />
            <path d="M496 709L478 709C453.147 709 433 688.853 433 664V664" stroke="#27874E" stroke-width="14" />
        </g>
        <g clip-path="url(#clip27_38_974)">
            <path d="M459.25 813L370 813" stroke="#27874E" stroke-width="14" />
            <path d="M370 813L388 813C412.853 813 433 833.147 433 858V858" stroke="#27874E" stroke-width="14" />
            <path d="M370 813L388 813C412.853 813 433 792.853 433 768V768" stroke="#27874E" stroke-width="14" />
        </g>
    </g>
    <g opacity="0.1">
        <g clip-path="url(#clip28_38_974)">
            <path d="M296.75 85L386 85" stroke="#27874E" stroke-width="14" />
            <path d="M386 85L368 85C343.147 85 323 105.147 323 130V130" stroke="#27874E" stroke-width="14" />
            <path d="M386 85L368 85C343.147 85 323 64.8528 323 40V40" stroke="#27874E" stroke-width="14" />
        </g>
        <g clip-path="url(#clip29_38_974)">
            <path d="M349.25 189L260 189" stroke="#27874E" stroke-width="14" />
            <path d="M260 189L278 189C302.853 189 323 209.147 323 234V234" stroke="#27874E" stroke-width="14" />
            <path d="M260 189L278 189C302.853 189 323 168.853 323 144V144" stroke="#27874E" stroke-width="14" />
        </g>
        <g clip-path="url(#clip30_38_974)">
            <path d="M296.75 293L386 293" stroke="#27874E" stroke-width="14" />
            <path d="M386 293L368 293C343.147 293 323 313.147 323 338V338" stroke="#27874E" stroke-width="14" />
            <path d="M386 293L368 293C343.147 293 323 272.853 323 248V248" stroke="#27874E" stroke-width="14" />
        </g>
        <g clip-path="url(#clip31_38_974)">
            <path d="M349.25 397L260 397" stroke="#27874E" stroke-width="14" />
            <path d="M260 397L278 397C302.853 397 323 417.147 323 442V442" stroke="#27874E" stroke-width="14" />
            <path d="M260 397L278 397C302.853 397 323 376.853 323 352V352" stroke="#27874E" stroke-width="14" />
        </g>
        <g clip-path="url(#clip32_38_974)">
            <path d="M296.75 501L386 501" stroke="#27874E" stroke-width="14" />
            <path d="M386 501L368 501C343.147 501 323 521.147 323 546V546" stroke="#27874E" stroke-width="14" />
            <path d="M386 501L368 501C343.147 501 323 480.853 323 456V456" stroke="#27874E" stroke-width="14" />
        </g>
        <g clip-path="url(#clip33_38_974)">
            <path d="M349.25 605L260 605" stroke="#27874E" stroke-width="14" />
            <path d="M260 605L278 605C302.853 605 323 625.147 323 650V650" stroke="#27874E" stroke-width="14" />
            <path d="M260 605L278 605C302.853 605 323 584.853 323 560V560" stroke="#27874E" stroke-width="14" />
        </g>
        <g clip-path="url(#clip34_38_974)">
            <path d="M296.75 709L386 709" stroke="#27874E" stroke-width="14" />
            <path d="M386 709L368 709C343.147 709 323 729.147 323 754V754" stroke="#27874E" stroke-width="14" />
            <path d="M386 709L368 709C343.147 709 323 688.853 323 664V664" stroke="#27874E" stroke-width="14" />
        </g>
        <g clip-path="url(#clip35_38_974)">
            <path d="M349.25 813L260 813" stroke="#27874E" stroke-width="14" />
            <path d="M260 813L278 813C302.853 813 323 833.147 323 858V858" stroke="#27874E" stroke-width="14" />
            <path d="M260 813L278 813C302.853 813 323 792.853 323 768V768" stroke="#27874E" stroke-width="14" />
        </g>
    </g>
    <g opacity="0.1">
        <g clip-path="url(#clip36_38_974)">
            <path d="M186.75 85L276 85" stroke="#27874E" stroke-width="14" />
            <path d="M276 85L258 85C233.147 85 213 105.147 213 130V130" stroke="#27874E" stroke-width="14" />
            <path d="M276 85L258 85C233.147 85 213 64.8528 213 40V40" stroke="#27874E" stroke-width="14" />
        </g>
        <g clip-path="url(#clip37_38_974)">
            <path d="M239.25 189L150 189" stroke="#27874E" stroke-width="14" />
            <path d="M150 189L168 189C192.853 189 213 209.147 213 234V234" stroke="#27874E" stroke-width="14" />
            <path d="M150 189L168 189C192.853 189 213 168.853 213 144V144" stroke="#27874E" stroke-width="14" />
        </g>
        <g clip-path="url(#clip38_38_974)">
            <path d="M186.75 293L276 293" stroke="#27874E" stroke-width="14" />
            <path d="M276 293L258 293C233.147 293 213 313.147 213 338V338" stroke="#27874E" stroke-width="14" />
            <path d="M276 293L258 293C233.147 293 213 272.853 213 248V248" stroke="#27874E" stroke-width="14" />
        </g>
        <g clip-path="url(#clip39_38_974)">
            <path d="M239.25 397L150 397" stroke="#27874E" stroke-width="14" />
            <path d="M150 397L168 397C192.853 397 213 417.147 213 442V442" stroke="#27874E" stroke-width="14" />
            <path d="M150 397L168 397C192.853 397 213 376.853 213 352V352" stroke="#27874E" stroke-width="14" />
        </g>
        <g clip-path="url(#clip40_38_974)">
            <path d="M186.75 501L276 501" stroke="#27874E" stroke-width="14" />
            <path d="M276 501L258 501C233.147 501 213 521.147 213 546V546" stroke="#27874E" stroke-width="14" />
            <path d="M276 501L258 501C233.147 501 213 480.853 213 456V456" stroke="#27874E" stroke-width="14" />
        </g>
        <g clip-path="url(#clip41_38_974)">
            <path d="M239.25 605L150 605" stroke="#27874E" stroke-width="14" />
            <path d="M150 605L168 605C192.853 605 213 625.147 213 650V650" stroke="#27874E" stroke-width="14" />
            <path d="M150 605L168 605C192.853 605 213 584.853 213 560V560" stroke="#27874E" stroke-width="14" />
        </g>
        <g clip-path="url(#clip42_38_974)">
            <path d="M186.75 709L276 709" stroke="#27874E" stroke-width="14" />
            <path d="M276 709L258 709C233.147 709 213 729.147 213 754V754" stroke="#27874E" stroke-width="14" />
            <path d="M276 709L258 709C233.147 709 213 688.853 213 664V664" stroke="#27874E" stroke-width="14" />
        </g>
        <g clip-path="url(#clip43_38_974)">
            <path d="M239.25 813L150 813" stroke="#27874E" stroke-width="14" />
            <path d="M150 813L168 813C192.853 813 213 833.147 213 858V858" stroke="#27874E" stroke-width="14" />
            <path d="M150 813L168 813C192.853 813 213 792.853 213 768V768" stroke="#27874E" stroke-width="14" />
        </g>
    </g>
    <g opacity="0.1">
        <g clip-path="url(#clip44_38_974)">
            <path d="M76.75 85L166 85" stroke="#27874E" stroke-width="14" />
            <path d="M166 85L148 85C123.147 85 103 105.147 103 130V130" stroke="#27874E" stroke-width="14" />
            <path d="M166 85L148 85C123.147 85 103 64.8528 103 40V40" stroke="#27874E" stroke-width="14" />
        </g>
        <g clip-path="url(#clip45_38_974)">
            <path d="M129.25 189L40 189" stroke="#27874E" stroke-width="14" />
            <path d="M40 189L58 189C82.8528 189 103 209.147 103 234V234" stroke="#27874E" stroke-width="14" />
            <path d="M40 189L58 189C82.8528 189 103 168.853 103 144V144" stroke="#27874E" stroke-width="14" />
        </g>
        <g clip-path="url(#clip46_38_974)">
            <path d="M76.75 293L166 293" stroke="#27874E" stroke-width="14" />
            <path d="M166 293L148 293C123.147 293 103 313.147 103 338V338" stroke="#27874E" stroke-width="14" />
            <path d="M166 293L148 293C123.147 293 103 272.853 103 248V248" stroke="#27874E" stroke-width="14" />
        </g>
        <g clip-path="url(#clip47_38_974)">
            <path d="M129.25 397L40 397" stroke="#27874E" stroke-width="14" />
            <path d="M40 397L58 397C82.8528 397 103 417.147 103 442V442" stroke="#27874E" stroke-width="14" />
            <path d="M40 397L58 397C82.8528 397 103 376.853 103 352V352" stroke="#27874E" stroke-width="14" />
        </g>
        <g clip-path="url(#clip48_38_974)">
            <path d="M76.75 501L166 501" stroke="#27874E" stroke-width="14" />
            <path d="M166 501L148 501C123.147 501 103 521.147 103 546V546" stroke="#27874E" stroke-width="14" />
            <path d="M166 501L148 501C123.147 501 103 480.853 103 456V456" stroke="#27874E" stroke-width="14" />
        </g>
        <g clip-path="url(#clip49_38_974)">
            <path d="M129.25 605L40 605" stroke="#27874E" stroke-width="14" />
            <path d="M40 605L58 605C82.8528 605 103 625.147 103 650V650" stroke="#27874E" stroke-width="14" />
            <path d="M40 605L58 605C82.8528 605 103 584.853 103 560V560" stroke="#27874E" stroke-width="14" />
        </g>
        <g clip-path="url(#clip50_38_974)">
            <path d="M76.75 709L166 709" stroke="#27874E" stroke-width="14" />
            <path d="M166 709L148 709C123.147 709 103 729.147 103 754V754" stroke="#27874E" stroke-width="14" />
            <path d="M166 709L148 709C123.147 709 103 688.853 103 664V664" stroke="#27874E" stroke-width="14" />
        </g>
        <g clip-path="url(#clip51_38_974)">
            <path d="M129.25 813L40 813" stroke="#27874E" stroke-width="14" />
            <path d="M40 813L58 813C82.8528 813 103 833.147 103 858V858" stroke="#27874E" stroke-width="14" />
            <path d="M40 813L58 813C82.8528 813 103 792.853 103 768V768" stroke="#27874E" stroke-width="14" />
        </g>
    </g>
    <defs>
        <clipPath id="clip0_38_974">
            <rect width="90" height="90" fill="white" transform="translate(700 144)" />
        </clipPath>
        <clipPath id="clip1_38_974">
            <rect width="90" height="90" fill="white" transform="translate(700 352)" />
        </clipPath>
        <clipPath id="clip2_38_974">
            <rect width="90" height="90" fill="white" transform="translate(700 560)" />
        </clipPath>
        <clipPath id="clip3_38_974">
            <rect width="90" height="90" fill="white" transform="translate(700 768)" />
        </clipPath>
        <clipPath id="clip4_38_974">
            <rect width="90" height="90" fill="white" transform="matrix(-1 -3.17865e-08 -3.17865e-08 1 716 40)" />
        </clipPath>
        <clipPath id="clip5_38_974">
            <rect width="90" height="90" fill="white" transform="translate(590 144)" />
        </clipPath>
        <clipPath id="clip6_38_974">
            <rect width="90" height="90" fill="white" transform="matrix(-1 -3.17865e-08 -3.17865e-08 1 716 248)" />
        </clipPath>
        <clipPath id="clip7_38_974">
            <rect width="90" height="90" fill="white" transform="translate(590 352)" />
        </clipPath>
        <clipPath id="clip8_38_974">
            <rect width="90" height="90" fill="white" transform="matrix(-1 -3.17865e-08 -3.17865e-08 1 716 456)" />
        </clipPath>
        <clipPath id="clip9_38_974">
            <rect width="90" height="90" fill="white" transform="translate(590 560)" />
        </clipPath>
        <clipPath id="clip10_38_974">
            <rect width="90" height="90" fill="white" transform="matrix(-1 -3.17865e-08 -3.17865e-08 1 716 664)" />
        </clipPath>
        <clipPath id="clip11_38_974">
            <rect width="90" height="90" fill="white" transform="translate(590 768)" />
        </clipPath>
        <clipPath id="clip12_38_974">
            <rect width="90" height="90" fill="white" transform="matrix(-1 -3.17865e-08 -3.17865e-08 1 606 40)" />
        </clipPath>
        <clipPath id="clip13_38_974">
            <rect width="90" height="90" fill="white" transform="translate(480 144)" />
        </clipPath>
        <clipPath id="clip14_38_974">
            <rect width="90" height="90" fill="white" transform="matrix(-1 -3.17865e-08 -3.17865e-08 1 606 248)" />
        </clipPath>
        <clipPath id="clip15_38_974">
            <rect width="90" height="90" fill="white" transform="translate(480 352)" />
        </clipPath>
        <clipPath id="clip16_38_974">
            <rect width="90" height="90" fill="white" transform="matrix(-1 -3.17865e-08 -3.17865e-08 1 606 456)" />
        </clipPath>
        <clipPath id="clip17_38_974">
            <rect width="90" height="90" fill="white" transform="translate(480 560)" />
        </clipPath>
        <clipPath id="clip18_38_974">
            <rect width="90" height="90" fill="white" transform="matrix(-1 -3.17865e-08 -3.17865e-08 1 606 664)" />
        </clipPath>
        <clipPath id="clip19_38_974">
            <rect width="90" height="90" fill="white" transform="translate(480 768)" />
        </clipPath>
        <clipPath id="clip20_38_974">
            <rect width="90" height="90" fill="white" transform="matrix(-1 -3.17865e-08 -3.17865e-08 1 496 40)" />
        </clipPath>
        <clipPath id="clip21_38_974">
            <rect width="90" height="90" fill="white" transform="translate(370 144)" />
        </clipPath>
        <clipPath id="clip22_38_974">
            <rect width="90" height="90" fill="white" transform="matrix(-1 -3.17865e-08 -3.17865e-08 1 496 248)" />
        </clipPath>
        <clipPath id="clip23_38_974">
            <rect width="90" height="90" fill="white" transform="translate(370 352)" />
        </clipPath>
        <clipPath id="clip24_38_974">
            <rect width="90" height="90" fill="white" transform="matrix(-1 -3.17865e-08 -3.17865e-08 1 496 456)" />
        </clipPath>
        <clipPath id="clip25_38_974">
            <rect width="90" height="90" fill="white" transform="translate(370 560)" />
        </clipPath>
        <clipPath id="clip26_38_974">
            <rect width="90" height="90" fill="white" transform="matrix(-1 -3.17865e-08 -3.17865e-08 1 496 664)" />
        </clipPath>
        <clipPath id="clip27_38_974">
            <rect width="90" height="90" fill="white" transform="translate(370 768)" />
        </clipPath>
        <clipPath id="clip28_38_974">
            <rect width="90" height="90" fill="white" transform="matrix(-1 -3.17865e-08 -3.17865e-08 1 386 40)" />
        </clipPath>
        <clipPath id="clip29_38_974">
            <rect width="90" height="90" fill="white" transform="translate(260 144)" />
        </clipPath>
        <clipPath id="clip30_38_974">
            <rect width="90" height="90" fill="white" transform="matrix(-1 -3.17865e-08 -3.17865e-08 1 386 248)" />
        </clipPath>
        <clipPath id="clip31_38_974">
            <rect width="90" height="90" fill="white" transform="translate(260 352)" />
        </clipPath>
        <clipPath id="clip32_38_974">
            <rect width="90" height="90" fill="white" transform="matrix(-1 -3.17865e-08 -3.17865e-08 1 386 456)" />
        </clipPath>
        <clipPath id="clip33_38_974">
            <rect width="90" height="90" fill="white" transform="translate(260 560)" />
        </clipPath>
        <clipPath id="clip34_38_974">
            <rect width="90" height="90" fill="white" transform="matrix(-1 -3.17865e-08 -3.17865e-08 1 386 664)" />
        </clipPath>
        <clipPath id="clip35_38_974">
            <rect width="90" height="90" fill="white" transform="translate(260 768)" />
        </clipPath>
        <clipPath id="clip36_38_974">
            <rect width="90" height="90" fill="white" transform="matrix(-1 -3.17865e-08 -3.17865e-08 1 276 40)" />
        </clipPath>
        <clipPath id="clip37_38_974">
            <rect width="90" height="90" fill="white" transform="translate(150 144)" />
        </clipPath>
        <clipPath id="clip38_38_974">
            <rect width="90" height="90" fill="white" transform="matrix(-1 -3.17865e-08 -3.17865e-08 1 276 248)" />
        </clipPath>
        <clipPath id="clip39_38_974">
            <rect width="90" height="90" fill="white" transform="translate(150 352)" />
        </clipPath>
        <clipPath id="clip40_38_974">
            <rect width="90" height="90" fill="white" transform="matrix(-1 -3.17865e-08 -3.17865e-08 1 276 456)" />
        </clipPath>
        <clipPath id="clip41_38_974">
            <rect width="90" height="90" fill="white" transform="translate(150 560)" />
        </clipPath>
        <clipPath id="clip42_38_974">
            <rect width="90" height="90" fill="white" transform="matrix(-1 -3.17865e-08 -3.17865e-08 1 276 664)" />
        </clipPath>
        <clipPath id="clip43_38_974">
            <rect width="90" height="90" fill="white" transform="translate(150 768)" />
        </clipPath>
        <clipPath id="clip44_38_974">
            <rect width="90" height="90" fill="white" transform="matrix(-1 -3.17865e-08 -3.17865e-08 1 166 40)" />
        </clipPath>
        <clipPath id="clip45_38_974">
            <rect width="90" height="90" fill="white" transform="translate(40 144)" />
        </clipPath>
        <clipPath id="clip46_38_974">
            <rect width="90" height="90" fill="white" transform="matrix(-1 -3.17865e-08 -3.17865e-08 1 166 248)" />
        </clipPath>
        <clipPath id="clip47_38_974">
            <rect width="90" height="90" fill="white" transform="translate(40 352)" />
        </clipPath>
        <clipPath id="clip48_38_974">
            <rect width="90" height="90" fill="white" transform="matrix(-1 -3.17865e-08 -3.17865e-08 1 166 456)" />
        </clipPath>
        <clipPath id="clip49_38_974">
            <rect width="90" height="90" fill="white" transform="translate(40 560)" />
        </clipPath>
        <clipPath id="clip50_38_974">
            <rect width="90" height="90" fill="white" transform="matrix(-1 -3.17865e-08 -3.17865e-08 1 166 664)" />
        </clipPath>
        <clipPath id="clip51_38_974">
            <rect width="90" height="90" fill="white" transform="translate(40 768)" />
        </clipPath>
    </defs>
</svg>