<svg width="415" height="220" viewBox="0 0 415 220" fill="none" xmlns="http://www.w3.org/2000/svg">
<path fill-rule="evenodd" clip-rule="evenodd" d="M163.239 195.697C147.988 195.697 135.625 183.334 135.625 168.083L111.613 168.083C111.613 196.595 134.727 219.709 163.239 219.709L163.239 195.697Z" fill="white"/>
<path fill-rule="evenodd" clip-rule="evenodd" d="M168.041 111.655C183.292 111.655 195.655 99.2921 195.655 84.0415L219.667 84.0415C219.667 112.553 196.553 135.667 168.041 135.667L168.041 111.655Z" fill="white"/>
<path fill-rule="evenodd" clip-rule="evenodd" d="M168.041 135.667C183.292 135.667 195.655 148.03 195.655 163.281L219.667 163.281C219.667 134.769 196.553 111.655 168.041 111.655L168.041 135.667Z" fill="white"/>
<path fill-rule="evenodd" clip-rule="evenodd" d="M336.124 111.655C351.375 111.655 363.738 99.2921 363.738 84.0415L387.75 84.0415C387.75 112.553 364.636 135.667 336.124 135.667L336.124 111.655Z" fill="#2EB364"/>
<path fill-rule="evenodd" clip-rule="evenodd" d="M336.124 135.667C351.375 135.667 363.738 148.03 363.738 163.281L387.75 163.281C387.75 134.769 364.636 111.655 336.124 111.655L336.124 135.667Z" fill="#2EB364"/>
<path fill-rule="evenodd" clip-rule="evenodd" d="M252.083 27.6136C267.334 27.6136 279.697 15.2506 279.697 -1.04959e-06L303.709 0C303.709 28.512 280.595 51.6255 252.083 51.6255L252.083 27.6136Z" fill="#2EB364"/>
<path fill-rule="evenodd" clip-rule="evenodd" d="M252.083 51.6255C267.334 51.6255 279.697 63.9885 279.697 79.2391L303.709 79.2391C303.709 50.7272 280.595 27.6136 252.083 27.6136L252.083 51.6255Z" fill="#2EB364"/>
<path fill-rule="evenodd" clip-rule="evenodd" d="M163.239 135.667C147.988 135.667 135.625 148.03 135.625 163.281L111.613 163.281C111.613 134.769 134.727 111.655 163.239 111.655L163.239 135.667Z" fill="#2EB364"/>
<path fill-rule="evenodd" clip-rule="evenodd" d="M84.0005 135.667C99.2511 135.667 111.614 148.03 111.614 163.281L135.626 163.281C135.626 134.769 112.512 111.655 84.0005 111.655L84.0005 135.667Z" fill="#2EB364"/>
<g opacity="0.2">
<path fill-rule="evenodd" clip-rule="evenodd" d="M79.2388 135.667C63.9882 135.667 51.6251 148.03 51.6251 163.281L27.6133 163.281C27.6133 134.769 50.7268 111.655 79.2388 111.655L79.2388 135.667Z" fill="#EBFC6B"/>
<path fill-rule="evenodd" clip-rule="evenodd" d="M0.00047563 135.667C15.2511 135.667 27.6141 148.03 27.6141 163.281L51.626 163.281C51.626 134.769 28.5125 111.655 0.000474581 111.655L0.00047563 135.667Z" fill="#EBFC6B"/>
</g>
<g opacity="0.4">
<path fill-rule="evenodd" clip-rule="evenodd" d="M79.2388 195.614C63.9882 195.614 51.6251 183.251 51.6251 168L27.6133 168C27.6133 196.512 50.7268 219.625 79.2388 219.625L79.2388 195.614Z" fill="white"/>
<path fill-rule="evenodd" clip-rule="evenodd" d="M0.00047563 195.614C15.2511 195.614 27.6141 183.251 27.6141 168L51.626 168C51.626 196.512 28.5125 219.625 0.000474581 219.625L0.00047563 195.614Z" fill="white"/>
</g>
<g opacity="0.1">
<path fill-rule="evenodd" clip-rule="evenodd" d="M414.489 195.614C399.238 195.614 386.875 183.251 386.875 168L362.863 168C362.863 196.512 385.977 219.625 414.489 219.625L414.489 195.614Z" fill="white"/>
<path fill-rule="evenodd" clip-rule="evenodd" d="M335.25 195.614C350.501 195.614 362.864 183.251 362.864 168L386.876 168C386.876 196.512 363.762 219.625 335.25 219.625L335.25 195.614Z" fill="white"/>
</g>
<path fill-rule="evenodd" clip-rule="evenodd" d="M247.28 195.697C232.029 195.697 219.666 183.334 219.666 168.083L195.654 168.083C195.654 196.595 218.768 219.709 247.28 219.709L247.28 195.697Z" fill="#2EB364"/>
<path fill-rule="evenodd" clip-rule="evenodd" d="M168.041 195.697C183.292 195.697 195.655 183.334 195.655 168.083L219.667 168.083C219.667 196.595 196.553 219.709 168.041 219.709L168.041 195.697Z" fill="#2EB364"/>
<path fill-rule="evenodd" clip-rule="evenodd" d="M331.322 111.655C316.071 111.655 303.708 99.2921 303.708 84.0415L279.696 84.0415C279.696 112.553 302.81 135.667 331.322 135.667L331.322 111.655Z" fill="white"/>
<path fill-rule="evenodd" clip-rule="evenodd" d="M252.083 111.655C267.334 111.655 279.697 99.2921 279.697 84.0415L303.709 84.0415C303.709 112.553 280.595 135.667 252.083 135.667L252.083 111.655Z" fill="white"/>
<path fill-rule="evenodd" clip-rule="evenodd" d="M247.28 51.6255C232.029 51.6255 219.666 63.9885 219.666 79.2391L195.654 79.2391C195.654 50.7272 218.768 27.6136 247.28 27.6136L247.28 51.6255Z" fill="#EBFC6B"/>
<path fill-rule="evenodd" clip-rule="evenodd" d="M168.041 51.6255C183.292 51.6255 195.655 63.9885 195.655 79.2391L219.667 79.2391C219.667 50.7272 196.553 27.6136 168.041 27.6136L168.041 51.6255Z" fill="#EBFC6B"/>
<g opacity="0.2">
<path fill-rule="evenodd" clip-rule="evenodd" d="M163.239 51.6255C147.988 51.6255 135.625 63.9885 135.625 79.2391L111.613 79.2391C111.613 50.7272 134.727 27.6136 163.239 27.6136L163.239 51.6255Z" fill="white"/>
<path fill-rule="evenodd" clip-rule="evenodd" d="M84.0005 51.6255C99.2511 51.6255 111.614 63.9885 111.614 79.2391L135.626 79.2391C135.626 50.7272 112.512 27.6136 84.0005 27.6136L84.0005 51.6255Z" fill="white"/>
</g>
</svg>
